<?xml version="1.0" encoding="UTF-8"?>
<svg xmlns="http://www.w3.org/2000/svg" xmlns:xlink="http://www.w3.org/1999/xlink" viewBox="0 0 583.22 260.05">
  <defs>
    <style>
      .cls-1 {
        fill: none;
      }

      .cls-2 {
        fill: #f9f3df;
      }

      .cls-3 {
        fill: url(#linear-gradient);
      }

      .cls-4 {
        opacity: .58;
      }

      .cls-5 {
        clip-path: url(#clippath);
      }
    </style>
    <clipPath id="clippath">
      <path class="cls-1" d="M22.71,35.14c-.19.24-.37.71,1.02,4.03,1.08,2.59,1.63,3.89,2.32,3.94.74.05,1.39-1.03,2.67-3.2,1.42-2.42,2.15-3.66,1.66-4.41-.32-.48-.86-.34-4.06-.51-2.71-.14-3.25-.29-3.6.14ZM20.62,51.46c.32.02.61-.45,1.17-1.4.62-1.06.94-1.6.73-1.93-.14-.21-.38-.15-1.78-.22-1.18-.06-1.42-.13-1.57.06-.08.1-.16.31.44,1.77.47,1.14.72,1.7,1.01,1.72ZM14.22,40.13c1.76.09,2.11.19,2.34-.09.12-.15.24-.46-.66-2.62-.7-1.69-1.06-2.53-1.51-2.56-.48-.03-.91.67-1.73,2.08-.93,1.58-1.4,2.38-1.08,2.87.21.31.56.22,2.64.33ZM6.16,27.51c1.34-.56,2.01-.85,2.04-1.2.03-.38-.53-.72-1.65-1.38-1.25-.74-1.9-1.11-2.28-.86-.25.16-.17.45-.26,2.1-.07,1.4-.15,1.68.07,1.86.12.1.37.19,2.09-.53ZM7.59,43.15c.05-.28-.19-.43-1.3-1.66-.93-1.04-1.08-1.29-1.36-1.26-.15.01-.38.12-1.04,1.78-.52,1.3-.77,1.96-.54,2.22.25.29.87.15,2.09-.15,1.37-.33,2.07-.5,2.15-.94ZM3.67,57.51c-1.06-.62-1.6-.94-1.93-.73-.21.14-.15.38-.22,1.78-.06,1.18-.13,1.42.06,1.57.1.08.31.16,1.77-.45,1.14-.47,1.7-.72,1.72-1.01.02-.32-.45-.61-1.4-1.17ZM28.74,50.6c.19.4.62.36,3.07.85,2.07.42,2.47.6,2.78.31.17-.16.36-.51-.32-3.22-.54-2.12-.81-3.18-1.33-3.3-.57-.12-1.19.63-2.41,2.15-1.37,1.7-2.07,2.57-1.78,3.2ZM41.68,43.74c.16,0,.41-.07,1.37-1.68.75-1.26,1.12-1.89.93-2.19-.21-.33-.86-.26-2.16-.12-1.46.16-2.2.24-2.36.67-.1.28.13.46,1.05,1.86.78,1.18.89,1.45,1.17,1.46ZM22.75,22.29c1.74.04,2.09.13,2.3-.15.12-.16.22-.46-.73-2.57-.74-1.64-1.12-2.47-1.56-2.48-.48-.02-.87.69-1.65,2.1-.87,1.58-1.31,2.39-.98,2.86.21.3.56.2,2.61.25ZM29.18,70.01c-1.63-.09-1.96-.18-2.16.08-.11.14-.22.43.61,2.43.65,1.56.98,2.34,1.39,2.37.45.03.84-.62,1.6-1.92.86-1.46,1.29-2.2,1-2.65-.19-.29-.52-.2-2.44-.3ZM41.37,77.07c2.09.24,2.51.38,2.79.06.16-.18.32-.54-.6-3.17-.72-2.06-1.09-3.09-1.61-3.16-.57-.08-1.13.73-2.22,2.35-1.22,1.81-1.84,2.74-1.49,3.34.22.39.65.3,3.13.58ZM32.22,86.76c-.14.23.02.43.57,1.84.47,1.19.51,1.45.76,1.52.14.04.38.02,1.53-1.22.9-.97,1.35-1.46,1.24-1.76-.12-.33-.71-.4-1.89-.52-1.32-.14-1.99-.21-2.22.15ZM50.22,86.72c1.25.29,1.49.4,1.68.23.11-.09.23-.3-.14-1.96-.29-1.29-.44-1.94-.75-2.02-.34-.09-.73.36-1.5,1.26-.86,1.01-1.3,1.52-1.13,1.91.11.25.37.23,1.84.57ZM22.16,107.12c.7-.1,1.09-1.24,1.85-3.51.84-2.54,1.28-3.85.67-4.44-.39-.38-.87-.14-3.89.34-2.55.41-3.09.38-3.33.84-.13.26-.2.74,1.75,3.56,1.52,2.2,2.3,3.3,2.95,3.21ZM47.38,107.12c.14.04.38.02,1.53-1.22.9-.97,1.35-1.46,1.24-1.76-.12-.33-.71-.4-1.89-.52-1.32-.14-1.99-.21-2.22.15-.14.23.02.43.57,1.84.47,1.19.51,1.45.76,1.52ZM78.26,100.17c-.42-.12-.94.42-1.95,1.52-1.13,1.23-1.71,1.85-1.52,2.35.12.32.46.3,2.29.81,1.55.42,1.85.58,2.1.38.14-.11.3-.37-.08-2.47-.3-1.64-.46-2.46-.85-2.58ZM21.71,87.52c1.82.24,2.74.35,3.03-.04.31-.43-.03-1.19-.73-2.7-.78-1.69-1.18-2.55-1.77-2.51-.38.03-.51.4-1.82,2.27-1.11,1.58-1.39,1.86-1.29,2.21.06.2.25.47,2.58.77ZM33.28,107.76c-.07.15-.08.41,1.2,1.8,1,1.08,1.51,1.62,1.89,1.52.41-.11.59-.75.93-2.04.38-1.44.58-2.18.19-2.46-.25-.18-.52-.01-2.28.48-1.49.41-1.81.44-1.93.71ZM56.42,3.95c-1.63-.83-2.45-1.24-2.81-.98-.39.29-.26,1.1.02,2.7.31,1.8.47,2.72,1.03,2.88.36.1.57-.19,2.23-1.46,1.4-1.07,1.74-1.22,1.73-1.58,0-.2-.12-.51-2.2-1.57ZM77.02,25.58c0-.16-.1-.41-1.77-1.27-1.31-.67-1.97-1-2.26-.79-.31.23-.21.88.02,2.18.25,1.45.38,2.19.83,2.33.29.08.46-.16,1.8-1.17,1.13-.86,1.4-.99,1.39-1.27ZM84.05,45.3c.38.05.75-.49,1.48-1.58.81-1.22,1.23-1.84.99-2.25-.15-.26-.44-.2-2.1-.38-1.4-.15-1.68-.25-1.87-.03-.11.12-.21.36.41,2.13.49,1.38.74,2.07,1.09,2.12ZM104.15,37.45c1.52.99,1.78,1.25,2.13,1.12.19-.07.45-.29.76-2.67.24-1.86.35-2.8-.02-3.05-.41-.28-1.15.13-2.61.96-1.63.93-2.47,1.4-2.43,2,.02.38.38.48,2.18,1.65ZM118.69,22.48c1.24.75,1.86,1.12,2.16.93.32-.2.27-.85.14-2.13-.14-1.44-.22-2.17-.65-2.33-.28-.1-.46.12-1.84,1.02-1.17.76-1.44.87-1.45,1.15,0,.16.06.41,1.65,1.36ZM143.6,27.69c1.58-.96,2.38-1.45,2.33-2.04-.03-.37-.39-.46-2.19-1.55-1.52-.92-1.79-1.18-2.12-1.04-.18.08-.43.3-.66,2.65-.18,1.84-.26,2.76.12,3,.41.26,1.13-.16,2.53-1.02ZM146.64,33.24c-.38,0-.5.34-1.79,2.01-1.09,1.41-1.37,1.65-1.27,1.99.06.19.25.46,2.56.96,1.8.38,2.71.57,2.99.22.31-.38-.04-1.14-.73-2.63-.78-1.67-1.18-2.53-1.76-2.54ZM105.18,87.95c-.01-.24-.24-.31-1.38-1.07-.96-.64-1.13-.81-1.35-.73-.12.05-.29.18-.5,1.7-.17,1.18-.25,1.78,0,1.95.26.18.73-.07,1.67-.59,1.05-.58,1.58-.88,1.56-1.26ZM119.79,84.32c-.24-.04-.36.16-1.36,1.09-.85.79-1.05.91-1.02,1.14.02.13.11.32,1.53.88,1.11.44,1.67.65,1.89.46.24-.21.1-.73-.19-1.76-.32-1.15-.48-1.74-.86-1.81ZM133.24,107.07c-1.49-.24-1.78-.36-2-.15-.12.12-.25.37.32,2.3.44,1.5.67,2.26,1.04,2.33.41.07.84-.48,1.67-1.61.94-1.26,1.42-1.9,1.19-2.34-.15-.28-.46-.24-2.22-.53ZM139.69,72.85c.09-1.95.12-2.93-.29-3.16-.45-.25-1.18.24-2.62,1.22-1.61,1.1-2.44,1.67-2.35,2.28.06.39.44.47,2.41,1.52,1.66.89,1.96,1.15,2.3.98.19-.09.44-.34.55-2.84ZM156.64,77.01c-.04-.59-.96-.97-2.79-1.73-2.05-.84-3.1-1.28-3.62-.81-.34.3-.17.71.05,3.23.19,2.13.13,2.57.5,2.79.21.12.6.21,3.04-1.24,1.91-1.13,2.86-1.7,2.82-2.24ZM143.64,89.04c-1.92-.94-2.27-1.21-2.65-1.01-.21.11-.49.4-.5,3.24-.02,2.22-.01,3.33.47,3.57.52.27,1.33-.32,2.92-1.5,1.78-1.32,2.69-2,2.56-2.69-.08-.44-.52-.51-2.79-1.62ZM158.39,45.63c.29.07.78.02,3.13-2.6,1.83-2.04,2.74-3.08,2.5-3.7-.27-.68-1.49-.8-3.94-1-2.74-.23-4.14-.35-4.59.39-.29.48.07.9,1.27,3.79,1.01,2.45,1.11,2.99,1.63,3.11ZM158.12,22.72c1.76,1.12,2.65,1.67,3.09,1.41.47-.28.41-1.22.26-3.08-.17-2.08-.25-3.15-.87-3.39-.4-.16-.67.16-2.69,1.42-1.71,1.07-2.1,1.21-2.13,1.62-.01.23.08.59,2.34,2.02ZM208.56,24.97c0-.58-.89-1.01-2.65-1.85-1.97-.94-2.98-1.43-3.53-.99-.35.28-.2.69-.12,3.18.07,2.11-.01,2.54.34,2.78.2.13.58.24,3.06-1.06,1.94-1.01,2.91-1.52,2.9-2.06ZM189.17,22.36c.8-1.37,1.19-2.05.98-2.38-.23-.35-.93-.27-2.34-.11-1.57.19-2.37.28-2.54.76-.11.3.14.5,1.15,1.99.86,1.26.97,1.56,1.28,1.57.17,0,.44-.08,1.46-1.83ZM213.49,35.69c-.3-.11-.5.14-1.99,1.15-1.26.86-1.56.97-1.57,1.28,0,.17.08.44,1.83,1.46,1.37.8,2.05,1.19,2.38.98.35-.23.27-.93.11-2.34-.19-1.57-.28-2.37-.76-2.54ZM218.24,50.75c.4.11.88-.42,1.81-1.48,1.04-1.19,1.58-1.79,1.39-2.26-.12-.3-.44-.28-2.19-.71-1.48-.37-1.77-.51-2-.31-.13.11-.28.35.13,2.34.32,1.55.49,2.32.86,2.42ZM218.75,37.29c0,.26.11.67,2.75,2.23,2.06,1.22,3.1,1.82,3.59,1.5.53-.34.43-1.41.19-3.54-.27-2.38-.4-3.6-1.12-3.85-.46-.16-.76.21-3.03,1.73-1.92,1.28-2.37,1.46-2.38,1.93ZM220.47,22.02c1.56-.19,2.36-.29,2.49-.77.08-.31-.18-.51-1.3-2.03-.95-1.28-1.09-1.59-1.4-1.59-.17,0-.44.08-1.33,1.86-.7,1.39-1.04,2.1-.81,2.42.25.36.96.28,2.35.11ZM220.39,88.74c.42-.12.57-.81.86-2.19.33-1.54.49-2.32.08-2.61-.27-.18-.54,0-2.34.57-1.52.48-1.85.52-1.96.81-.06.16-.07.44,1.33,1.87,1.09,1.11,1.64,1.67,2.03,1.55ZM221.14,106.73c.58-.35.49-1.49.3-3.75-.21-2.54-.32-3.83-1.08-4.13-.48-.19-.81.2-3.27,1.75-2.08,1.31-2.56,1.48-2.59,1.98-.02.28.1.72,2.86,2.45,2.15,1.35,3.24,2.03,3.77,1.7ZM235.18,110.94c1.76,1.28,2.07,1.61,2.46,1.52.22-.05.51-.23.81-2.7.24-1.93.35-2.9-.09-3.23-.48-.36-1.32-.05-2.97.6-1.85.72-2.8,1.09-2.75,1.72.03.41.45.57,2.53,2.09ZM246.24,103.2c-1.48-.37-1.77-.51-2-.31-.13.11-.28.35.13,2.34.32,1.55.49,2.32.86,2.42.4.11.88-.42,1.81-1.48,1.04-1.19,1.58-1.79,1.39-2.26-.12-.3-.44-.28-2.19-.71ZM278.11,102.94c-.03-.42-.69-.69-2-1.22-1.47-.59-2.22-.9-2.59-.56-.24.22-.12.51.05,2.3.14,1.52.1,1.83.37,1.99.15.09.43.15,2.16-.9,1.35-.81,2.03-1.23,2-1.61ZM248.15,87.34c1.46.61,2.19.91,2.48.66.32-.27.15-.96-.2-2.33-.39-1.53-.59-2.32-1.08-2.42-.32-.07-.48.21-1.82,1.4-1.14,1.01-1.42,1.17-1.39,1.48.02.17.14.43,2,1.21ZM290.87,78.83c-.25.03-.63.21-1.7,2.98-.84,2.16-1.25,3.25-.88,3.67.41.46,1.42.19,3.41-.37,2.23-.63,3.37-.95,3.51-1.67.09-.46-.32-.69-2.13-2.62-1.53-1.63-1.77-2.03-2.22-1.98ZM331.56,105.99c-.25.03-.63.21-1.7,2.98-.84,2.16-1.25,3.25-.88,3.67.41.46,1.42.19,3.41-.37,2.23-.63,3.37-.95,3.51-1.67.09-.46-.32-.69-2.13-2.62-1.53-1.63-1.77-2.03-2.22-1.98ZM312.87,63.65c-.32-.48-.86-.34-4.06-.51-2.71-.14-3.25-.29-3.6.14-.19.24-.37.71,1.02,4.03,1.08,2.59,1.63,3.89,2.32,3.94.74.05,1.39-1.03,2.67-3.2,1.42-2.42,2.15-3.66,1.66-4.41ZM303.23,76.05c-1.18-.06-1.42-.13-1.57.06-.08.1-.16.31.44,1.77.47,1.14.72,1.7,1.01,1.72.32.02.61-.45,1.17-1.4.62-1.06.94-1.6.73-1.93-.14-.21-.38-.15-1.78-.22ZM299.05,68.18c.12-.15.24-.46-.66-2.62-.7-1.69-1.06-2.53-1.51-2.56-.48-.03-.91.67-1.73,2.08-.93,1.58-1.4,2.38-1.08,2.87.21.31.56.22,2.64.33,1.76.09,2.11.19,2.34-.09ZM286.76,52.22c-.25.16-.17.45-.26,2.1-.07,1.4-.15,1.68.07,1.86.12.1.37.19,2.09-.53,1.34-.56,2.01-.85,2.04-1.2.03-.38-.53-.72-1.65-1.38-1.25-.74-1.9-1.11-2.28-.86ZM287.94,72.23c1.37-.33,2.07-.5,2.15-.94.05-.28-.19-.43-1.3-1.66-.93-1.04-1.08-1.29-1.36-1.26-.15.01-.38.12-1.04,1.78-.52,1.3-.77,1.96-.54,2.22.25.29.87.15,2.09-.15ZM311.24,78.74c.19.4.62.36,3.07.85,2.07.42,2.47.6,2.78.31.17-.16.36-.51-.32-3.22-.54-2.12-.81-3.18-1.33-3.3-.57-.12-1.19.63-2.41,2.15-1.37,1.7-2.07,2.57-1.78,3.2ZM326.48,68.01c-.21-.33-.86-.26-2.16-.12-1.46.16-2.2.24-2.36.67-.1.28.13.46,1.05,1.86.78,1.18.89,1.45,1.17,1.46.16,0,.41-.07,1.37-1.68.75-1.26,1.12-1.89.93-2.19ZM305.25,50.43c1.74.04,2.09.13,2.3-.15.12-.16.22-.46-.73-2.57-.74-1.64-1.12-2.47-1.56-2.48-.48-.02-.87.69-1.65,2.1-.87,1.58-1.31,2.39-.98,2.86.21.3.56.2,2.61.25ZM273.89,12.37c.14.04.38.02,1.53-1.22.9-.97,1.35-1.46,1.24-1.76-.12-.33-.71-.4-1.89-.52-1.32-.14-1.99-.21-2.22.15-.14.23.02.43.57,1.84.47,1.19.51,1.45.76,1.52ZM290.55,8.97c1.25.29,1.49.4,1.68.23.11-.09.23-.3-.14-1.96-.29-1.29-.44-1.94-.75-2.02-.34-.09-.73.36-1.5,1.26-.86,1.01-1.3,1.52-1.13,1.91.11.25.37.23,1.84.57ZM262.49,29.36c.7-.1,1.09-1.24,1.85-3.51.84-2.54,1.28-3.85.67-4.44-.39-.38-.87-.14-3.89.34-2.55.41-3.09.38-3.33.84-.13.26-.2.74,1.75,3.56,1.52,2.2,2.3,3.3,2.95,3.21ZM287.71,29.36c.14.04.38.02,1.53-1.22.9-.97,1.35-1.46,1.24-1.76-.12-.33-.71-.4-1.89-.52-1.32-.14-1.99-.21-2.22.15-.14.23.02.43.57,1.84.47,1.19.51,1.45.76,1.52ZM262.03,9.77c1.82.24,2.74.35,3.03-.04.31-.43-.03-1.19-.73-2.7-.78-1.69-1.18-2.55-1.77-2.51-.38.03-.51.4-1.82,2.27-1.11,1.58-1.39,1.86-1.29,2.21.06.2.25.47,2.58.77ZM273.61,30.01c-.07.15-.08.41,1.2,1.8,1,1.08,1.51,1.62,1.89,1.52.41-.11.59-.75.93-2.04.38-1.44.58-2.18.19-2.46-.25-.18-.52-.01-2.28.48-1.49.41-1.81.44-1.93.71ZM342.09,85.86c-1.74-.19-2.63-.28-2.93.19-.19.3.03.57.76,2.44.61,1.57.67,1.92,1,2.01.18.05.5.02,2.03-1.61,1.2-1.28,1.79-1.93,1.64-2.33-.16-.44-.94-.53-2.5-.69ZM364.04,114.53c1.69-.12,2.03-.07,2.21-.36.1-.16.17-.47-.94-2.42-.87-1.52-1.31-2.28-1.74-2.26-.46.03-.78.75-1.4,2.18-.69,1.61-1.04,2.43-.68,2.86.23.27.56.14,2.55,0ZM392.22,106.6c-1.2-1.19-1.39-1.49-1.72-1.43-.19.03-.47.18-1.21,2.29-.58,1.65-.86,2.49-.57,2.79.32.33,1.07.1,2.57-.37,1.67-.53,2.52-.8,2.61-1.35.05-.35-.26-.51-1.67-1.93ZM528.17,110.26c.32.33,1.07.1,2.57-.37,1.67-.53,2.52-.8,2.61-1.35.05-.35-.26-.51-1.67-1.93-1.2-1.19-1.39-1.49-1.72-1.43-.19.03-.47.18-1.21,2.29-.58,1.65-.86,2.49-.57,2.79ZM563.88,112.11c-.66-1.62-1-2.45-1.56-2.49-.36-.02-.49.3-1.79,1.82-1.09,1.29-1.38,1.5-1.29,1.83.05.18.21.45,2.38,1.02,1.69.45,2.55.66,2.83.34.31-.35.02-1.08-.57-2.53ZM538.45,91.84c.2.15.6.28,3.3-1,2.1-.99,3.16-1.5,3.17-2.07.01-.62-.91-1.11-2.75-2.08-2.06-1.08-3.11-1.64-3.71-1.2-.38.28-.24.72-.26,3.38-.01,2.24-.11,2.7.25,2.97ZM541.67,106.95c-.38.28-.24.72-.26,3.38-.01,2.24-.11,2.7.25,2.97.2.15.6.28,3.3-1,2.1-.99,3.16-1.5,3.17-2.07.01-.62-.91-1.11-2.75-2.08-2.06-1.08-3.11-1.64-3.71-1.2ZM554.49,72.43c-.18-.57-.76-.58-3.9-1.67-2.65-.92-3.15-1.22-3.62-.9-.26.18-.57.6-.14,4.3.33,2.89.51,4.34,1.18,4.58.72.27,1.68-.62,3.57-2.41,2.11-2,3.19-3.03,2.91-3.91ZM508.57,105.84c-2.06-1.08-3.11-1.64-3.71-1.2-.38.28-.24.72-.26,3.38-.01,2.24-.11,2.7.25,2.97.2.15.6.28,3.3-1,2.1-.99,3.16-1.5,3.17-2.07.01-.62-.91-1.11-2.75-2.08ZM535.55,69.58c-.93-1.84-1.4-2.76-1.96-2.78-.6-.02-1.1.77-2.08,2.36-1.1,1.78-1.66,2.69-1.24,3.21.27.34.7.22,3.29.26,2.19.04,2.63.13,2.9-.19.15-.18.28-.52-.91-2.87ZM518.05,81.69c-.13-.1-.4-.19-2.19.64-1.4.64-2.1.97-2.11,1.35-.01.41.59.74,1.8,1.39,1.35.73,2.05,1.1,2.45.82.25-.18.17-.48.19-2.23.02-1.48.09-1.79-.15-1.97ZM502.53,84.24c-.08-.3-.39-.32-2.03-.95-1.39-.53-1.65-.7-1.9-.54-.14.09-.31.31-.15,2.27.12,1.53.19,2.3.54,2.44.38.15.9-.3,1.93-1.21,1.15-1.02,1.74-1.55,1.61-2.02ZM536.01,58.73c.38.15.9-.3,1.93-1.21,1.15-1.02,1.74-1.55,1.61-2.02-.08-.3-.39-.32-2.03-.95-1.39-.53-1.65-.7-1.9-.54-.14.09-.31.31-.15,2.27.12,1.53.19,2.3.54,2.44ZM529.42,85.88c.17-.16.36-.51-.32-3.22-.54-2.12-.81-3.18-1.33-3.3-.57-.13-1.19.63-2.41,2.15-1.37,1.7-2.07,2.57-1.78,3.2.19.4.62.36,3.07.85,2.07.42,2.47.6,2.78.31ZM523.48,68.22c-.1-.43-.54-.47-2.84-1.45-1.94-.82-2.3-1.08-2.67-.86-.2.12-.46.42-.33,3.22.1,2.18.16,3.28.65,3.5.53.24,1.29-.38,2.8-1.63,1.68-1.39,2.55-2.11,2.38-2.78ZM552.02,36.44c-.17.26-.31.77,1.43,4.06,1.36,2.57,2.06,3.85,2.77,3.84.77-.02,1.34-1.19,2.44-3.55,1.23-2.63,1.87-3.98,1.29-4.7-.37-.46-.92-.26-4.23-.13-2.8.11-3.38.01-3.69.48ZM550.36,13.04c2.49-1.03,3.77-1.56,3.82-2.41.03-.55-.46-.76-2.82-2.74-1.99-1.68-2.32-2.11-2.83-1.98-.28.07-.69.33-1.56,3.68-.68,2.61-1,3.92-.51,4.36.54.47,1.66.02,3.89-.9ZM539.09,27.3c.35.21.66-.05,2.76-.94,1.78-.75,2.18-.83,2.26-1.21.05-.21.01-.57-1.91-2.27-1.5-1.33-2.26-1.98-2.71-1.8-.49.2-.57,1.09-.71,2.88-.16,2-.24,3.02.31,3.34ZM541.73,32.49c-1.52,1.3-2.3,1.97-2.14,2.59.1.4.5.43,2.62,1.28,1.79.73,2.12.95,2.45.74.18-.12.41-.39.25-2.95-.12-2-.2-3-.64-3.19-.49-.21-1.18.37-2.54,1.53ZM516.39,20.35c.22-.06.24-.28.72-1.48.41-1.01.54-1.2.42-1.38-.07-.1-.22-.23-1.67-.14-1.13.07-1.69.11-1.8.36-.12.28.21.66.86,1.43.73.86,1.11,1.3,1.46,1.21ZM574.08,38.04c.39.06.78-.49,1.55-1.59.86-1.23,1.3-1.86,1.07-2.27-.15-.27-.44-.22-2.14-.44-1.43-.19-1.72-.29-1.92-.08-.11.12-.23.36.37,2.19.46,1.43.7,2.14,1.07,2.19ZM581.26,54.49c-1.42-.48-2.15-.72-2.49-.38-.21.22-.08.49.19,2.18.22,1.43.21,1.73.47,1.86.15.07.41.11,1.99-.98,1.23-.85,1.85-1.28,1.8-1.65-.05-.39-.69-.61-1.96-1.04ZM552.7,20.53c.04.22.21.54,2.67,1.36,1.92.64,2.88.96,3.23.61.38-.38.1-1.24-.47-2.96-.64-1.92-.97-2.9-1.6-2.99-.41-.05-.59.31-2.2,1.96-1.36,1.4-1.7,1.62-1.63,2.01ZM432.95,30.2c1.05-.58,1.58-.88,1.56-1.26-.01-.24-.24-.31-1.38-1.07-.96-.64-1.13-.81-1.35-.73-.12.05-.29.18-.5,1.7-.17,1.18-.25,1.78,0,1.95.26.18.73-.07,1.67-.59ZM449.13,25.31c-.24-.04-.36.16-1.36,1.09-.85.79-1.05.91-1.02,1.14.02.13.11.32,1.53.88,1.11.44,1.67.65,1.89.46.24-.21.1-.73-.19-1.76-.32-1.15-.48-1.74-.86-1.81ZM462.58,48.06c-1.49-.24-1.78-.36-2-.15-.12.12-.25.37.32,2.3.44,1.5.67,2.26,1.04,2.33.41.07.84-.48,1.67-1.61.94-1.26,1.42-1.9,1.19-2.34-.15-.28-.46-.24-2.22-.53ZM468.74,10.67c-.45-.25-1.18.24-2.62,1.22-1.61,1.1-2.44,1.67-2.35,2.28.06.39.44.47,2.41,1.52,1.66.89,1.96,1.15,2.3.98.19-.09.44-.34.55-2.84.09-1.95.12-2.93-.29-3.16ZM483.2,16.27c-2.05-.84-3.1-1.28-3.62-.81-.34.3-.17.71.05,3.23.19,2.13.13,2.57.5,2.79.21.12.6.21,3.04-1.24,1.91-1.13,2.86-1.7,2.82-2.24-.04-.59-.96-.97-2.79-1.73ZM475.77,31.65c-.08-.44-.52-.51-2.79-1.62-1.92-.94-2.27-1.21-2.65-1.01-.21.11-.49.4-.5,3.24-.02,2.22-.01,3.33.47,3.57.52.27,1.33-.32,2.92-1.5,1.78-1.32,2.69-2,2.56-2.69ZM339.19,30.54c1.75-.58,2.65-.88,2.73-1.46.05-.37-.28-.54-1.79-2.01-1.28-1.24-1.48-1.55-1.84-1.49-.2.03-.49.19-1.24,2.43-.59,1.75-.88,2.63-.56,2.95.34.35,1.13.09,2.7-.43ZM342.17,42.24c.38-.3.22-1.12-.12-2.73-.38-1.8-.58-2.73-1.15-2.87-.36-.09-.57.22-2.19,1.55-1.37,1.13-1.71,1.3-1.68,1.66.01.2.14.51,2.28,1.5,1.67.78,2.52,1.16,2.87.88ZM356.47,46.47c-.11-.72-1.28-1.11-3.61-1.86-2.61-.84-3.95-1.27-4.56-.64-.39.4-.14.89.38,3.98.44,2.61.41,3.16.89,3.4.27.13.76.2,3.63-1.83,2.24-1.58,3.36-2.39,3.26-3.05ZM357.15,31.02c.53-.17.67-1.1.94-2.94.3-2.07.46-3.12-.09-3.5-.35-.24-.69,0-2.94.79-1.9.66-2.32.71-2.44,1.1-.07.22-.05.59,1.83,2.49,1.47,1.49,2.21,2.22,2.7,2.07ZM403.1,42.46c.12-.57-.64-1.19-2.17-2.4-1.71-1.36-2.59-2.06-3.22-1.76-.4.19-.35.63-.83,3.07-.41,2.07-.58,2.47-.29,2.79.16.17.51.36,3.22-.34,2.12-.55,3.18-.83,3.29-1.35ZM384.02,32.84c-1.57-.17-2.38-.26-2.64.17-.17.27.03.52.68,2.2.55,1.42.6,1.74.9,1.81.17.04.45.02,1.83-1.45,1.08-1.15,1.62-1.74,1.49-2.1-.14-.39-.85-.48-2.25-.63ZM405.5,54.01c-.27-.17-.52.03-2.2.68-1.42.55-1.74.6-1.81.9-.04.17-.02.45,1.45,1.83,1.15,1.08,1.74,1.62,2.1,1.49.39-.14.48-.85.63-2.25.17-1.57.26-2.38-.17-2.64ZM408.73,65.64c-1.36-.69-1.61-.89-1.88-.75-.15.08-.35.28-.4,2.31-.03,1.58-.05,2.37.29,2.55.37.2.95-.21,2.1-1.04,1.28-.92,1.94-1.39,1.86-1.89-.05-.32-.37-.37-1.97-1.18ZM415.61,61.81c.6-.21.73-1.28.98-3.4.27-2.38.42-3.59-.23-4-.41-.26-.79.03-3.34,1-2.16.82-2.63.89-2.75,1.34-.07.25-.04.68,2.18,2.79,1.73,1.65,2.61,2.47,3.16,2.27ZM415.37,42.25c1.56.16,2.36.25,2.6-.19.15-.28-.06-.54-.81-2.27-.64-1.46-.71-1.79-1-1.87-.17-.04-.45-.02-1.72,1.52-.99,1.2-1.49,1.81-1.33,2.18.17.4.87.49,2.27.63ZM459.57,102.11c.15-.28-.06-.54-.81-2.27-.64-1.46-.71-1.79-1-1.87-.17-.04-.45-.02-1.72,1.52-.99,1.2-1.49,1.81-1.33,2.18.17.4.87.49,2.27.63,1.56.16,2.36.25,2.6-.19ZM419.7,72.99c.17-.16.36-.51-.32-3.22-.54-2.12-.81-3.18-1.33-3.3-.57-.12-1.19.63-2.41,2.15-1.37,1.7-2.07,2.57-1.78,3.2.19.4.62.36,3.07.85,2.07.42,2.47.6,2.78.31ZM458.05,90.64c.01-.62-.91-1.11-2.75-2.08-2.06-1.08-3.11-1.64-3.71-1.2-.38.28-.24.72-.26,3.38-.01,2.24-.11,2.7.25,2.97.2.15.6.28,3.3-1,2.1-.99,3.16-1.5,3.17-2.07ZM446.78,98.39c-1.39-.53-1.65-.7-1.9-.54-.14.09-.31.31-.15,2.27.12,1.53.19,2.3.54,2.44.38.15.9-.3,1.93-1.21,1.15-1.02,1.74-1.55,1.61-2.02-.08-.3-.39-.32-2.03-.95ZM557.77,217.14c.19-.24.37-.72-1.03-4.1-1.1-2.64-1.66-3.96-2.36-4.01-.75-.05-1.42,1.05-2.71,3.25-1.45,2.47-2.19,3.73-1.69,4.49.32.49.87.34,4.13.51,2.75.14,3.31.3,3.66-.14ZM559.89,200.54c-.33-.02-.62.46-1.19,1.42-.63,1.08-.96,1.63-.74,1.96.14.21.38.15,1.81.22,1.2.06,1.45.13,1.6-.06.09-.11.16-.32-.45-1.8-.48-1.15-.73-1.73-1.03-1.75ZM566.4,212.06c-1.79-.09-2.15-.19-2.38.09-.13.16-.24.47.67,2.67.71,1.72,1.08,2.57,1.53,2.61.49.03.92-.68,1.76-2.11.94-1.6,1.42-2.42,1.1-2.92-.21-.32-.57-.22-2.69-.33ZM574.6,224.9c-1.37.57-2.05.86-2.07,1.22-.03.39.54.73,1.68,1.4,1.28.75,1.93,1.13,2.32.87.25-.17.18-.45.27-2.14.07-1.43.15-1.71-.07-1.89-.13-.1-.38-.19-2.12.54ZM575.33,208.04c-1.39.33-2.1.51-2.19.95-.05.29.2.44,1.32,1.69.95,1.05,1.1,1.31,1.38,1.29.16-.01.39-.12,1.06-1.81.53-1.32.78-1.99.55-2.26-.26-.29-.88-.15-2.13.15ZM577.46,192.16c-1.15.48-1.73.73-1.75,1.03-.02.33.46.62,1.42,1.19,1.08.63,1.63.96,1.96.74.21-.14.15-.38.22-1.81.06-1.2.13-1.45-.06-1.6-.11-.09-.32-.16-1.8.45ZM551.63,201.41c-.19-.41-.63-.36-3.12-.87-2.1-.42-2.51-.61-2.83-.31-.18.16-.37.52.33,3.27.54,2.16.83,3.24,1.36,3.35.57.13,1.21-.64,2.46-2.19,1.39-1.73,2.11-2.62,1.81-3.26ZM538.47,208.39c-.16,0-.42.07-1.4,1.71-.76,1.28-1.14,1.92-.94,2.23.21.33.88.27,2.2.13,1.48-.16,2.24-.24,2.4-.69.1-.29-.13-.47-1.07-1.89-.79-1.2-.9-1.48-1.19-1.49ZM557.72,230.21c-1.77-.04-2.13-.13-2.34.16-.12.16-.23.47.74,2.61.75,1.67,1.14,2.51,1.58,2.53.48.02.89-.7,1.68-2.13.88-1.61,1.34-2.43,1-2.91-.22-.31-.57-.2-2.66-.25ZM551.35,176.71c-.45-.03-.85.63-1.63,1.95-.87,1.48-1.32,2.24-1.01,2.7.19.29.53.21,2.49.31,1.66.09,1.99.18,2.2-.08.12-.15.22-.44-.62-2.47-.66-1.59-1-2.38-1.42-2.41ZM538.79,174.49c-2.13-.24-2.55-.38-2.84-.06-.16.18-.32.54.61,3.23.73,2.1,1.1,3.15,1.64,3.22.58.08,1.15-.75,2.25-2.39,1.24-1.84,1.87-2.79,1.52-3.4-.23-.39-.66-.31-3.18-.59ZM548.09,164.63c.15-.23-.02-.44-.58-1.88-.47-1.21-.52-1.48-.77-1.54-.14-.04-.38-.02-1.56,1.24-.92.99-1.38,1.48-1.26,1.79.12.33.73.41,1.92.53,1.34.14,2.03.21,2.26-.15ZM529.78,164.67c-1.27-.29-1.51-.41-1.71-.24-.11.1-.23.31.14,1.99.29,1.32.44,1.98.76,2.06.35.09.74-.37,1.53-1.28.88-1.02,1.32-1.55,1.15-1.94-.11-.25-.38-.23-1.88-.58ZM558.32,143.93c-.71.1-1.11,1.26-1.88,3.57-.86,2.59-1.3,3.91-.68,4.52.4.39.88.14,3.95-.35,2.6-.41,3.14-.38,3.38-.86.13-.26.2-.75-1.78-3.62-1.55-2.24-2.34-3.36-3-3.27ZM532.67,143.93c-.14-.04-.38-.02-1.56,1.24-.92.99-1.38,1.48-1.26,1.79.12.33.73.41,1.92.53,1.34.14,2.03.21,2.26-.15.15-.23-.02-.44-.58-1.88-.47-1.21-.52-1.48-.77-1.54ZM503.24,149.45c1.15-1.25,1.74-1.89,1.54-2.39-.13-.32-.46-.31-2.33-.82-1.58-.43-1.88-.59-2.14-.38-.14.12-.31.37.08,2.51.3,1.67.46,2.51.86,2.62.43.13.95-.43,1.98-1.54ZM558.78,163.86c-1.85-.24-2.79-.36-3.08.04-.32.44.03,1.21.74,2.75.79,1.72,1.2,2.6,1.8,2.56.39-.03.52-.41,1.85-2.31,1.12-1.61,1.42-1.89,1.31-2.25-.06-.2-.25-.47-2.63-.79ZM547.01,143.27c.07-.15.09-.42-1.22-1.83-1.02-1.1-1.54-1.64-1.92-1.54-.42.11-.6.77-.95,2.08-.39,1.47-.59,2.22-.19,2.5.25.18.53.01,2.32-.48,1.52-.42,1.84-.44,1.96-.72ZM525.26,244.17c-.36-.11-.58.2-2.27,1.48-1.43,1.09-1.77,1.24-1.76,1.61,0,.2.12.52,2.24,1.6,1.65.85,2.49,1.27,2.85,1,.4-.29.26-1.11-.02-2.75-.32-1.83-.48-2.77-1.05-2.93ZM505.77,224.37c-.29-.09-.47.16-1.83,1.19-1.15.88-1.42,1-1.42,1.29,0,.16.1.42,1.8,1.29,1.33.68,2.01,1.02,2.3.8.32-.23.21-.9-.02-2.22-.26-1.48-.39-2.23-.85-2.37ZM495.38,206.81c-.39-.05-.77.5-1.5,1.61-.82,1.24-1.25,1.88-1.01,2.28.15.26.44.2,2.13.39,1.43.15,1.71.25,1.91.03.11-.12.21-.37-.42-2.16-.5-1.4-.75-2.11-1.11-2.15ZM474.93,214.79c-1.54-1-1.81-1.28-2.16-1.14-.19.08-.46.29-.77,2.72-.25,1.89-.36,2.84.03,3.1.42.28,1.17-.13,2.65-.97,1.66-.94,2.51-1.42,2.47-2.03-.02-.39-.39-.49-2.22-1.68ZM460.14,230.02c-1.26-.76-1.89-1.14-2.19-.95-.33.21-.27.86-.14,2.17.15,1.46.22,2.21.66,2.37.28.1.47-.12,1.87-1.04,1.19-.78,1.46-.88,1.48-1.17,0-.16-.07-.41-1.67-1.39ZM434.8,224.72c-1.6.98-2.42,1.48-2.37,2.07.04.38.4.47,2.23,1.58,1.55.94,1.82,1.2,2.16,1.06.19-.08.44-.3.68-2.69.18-1.87.27-2.81-.12-3.05-.42-.27-1.14.17-2.58,1.04ZM434.82,215c-.06-.2-.25-.47-2.6-.97-1.84-.39-2.76-.58-3.04-.22-.31.39.04,1.16.74,2.68.79,1.7,1.2,2.57,1.79,2.58.38,0,.51-.34,1.82-2.04,1.11-1.43,1.39-1.68,1.29-2.03ZM475.47,162.14c-1.07.59-1.61.89-1.59,1.28.01.25.25.32,1.4,1.08.98.65,1.15.83,1.37.74.12-.05.29-.18.51-1.73.17-1.21.25-1.81,0-1.98-.27-.18-.75.08-1.7.6ZM457.96,163.48c-.24.21-.1.74.19,1.79.32,1.17.49,1.77.87,1.85.24.05.36-.17,1.38-1.11.86-.8,1.07-.92,1.04-1.16-.02-.13-.11-.33-1.56-.9-1.13-.45-1.7-.66-1.92-.47ZM445.99,139.43c-.41-.08-.85.49-1.7,1.63-.95,1.28-1.44,1.93-1.21,2.38.15.29.46.24,2.26.54,1.52.25,1.81.37,2.04.15.12-.12.25-.38-.32-2.34-.45-1.53-.68-2.3-1.06-2.37ZM441.69,176.9c-1.69-.91-1.99-1.17-2.34-1-.19.09-.45.35-.56,2.89-.09,1.98-.13,2.98.3,3.22.46.26,1.2-.24,2.67-1.24,1.64-1.12,2.48-1.7,2.39-2.32-.06-.4-.45-.47-2.45-1.55ZM427.5,171.02c-.21-.13-.61-.21-3.09,1.26-1.94,1.15-2.91,1.73-2.87,2.28.04.6.97.99,2.83,1.76,2.08.86,3.15,1.3,3.69.82.34-.3.17-.72-.05-3.28-.19-2.17-.13-2.62-.51-2.84ZM437.5,156.42c-.53-.27-1.35.32-2.97,1.52-1.81,1.34-2.74,2.03-2.61,2.74.08.45.53.52,2.84,1.65,1.95.95,2.31,1.23,2.7,1.03.22-.12.49-.41.51-3.3.02-2.25.01-3.38-.48-3.63ZM419.76,206.47c-.3-.07-.8-.02-3.18,2.64-1.86,2.08-2.79,3.13-2.54,3.77.27.69,1.52.81,4.01,1.02,2.78.24,4.21.36,4.67-.4.29-.49-.07-.92-1.29-3.86-1.03-2.49-1.13-3.04-1.66-3.17ZM420.03,229.77c-1.79-1.14-2.7-1.7-3.14-1.43-.48.29-.42,1.24-.26,3.13.17,2.12.26,3.2.89,3.45.4.16.68-.16,2.73-1.45,1.74-1.09,2.14-1.23,2.17-1.64.02-.23-.08-.6-2.38-2.06ZM374.79,224.31c-.2-.13-.59-.24-3.11,1.07-1.97,1.03-2.96,1.55-2.95,2.09,0,.59.91,1.03,2.7,1.89,2.01.96,3.03,1.45,3.59,1.01.36-.28.21-.7.12-3.24-.07-2.14.01-2.58-.35-2.83ZM389.94,228.28c-.17,0-.45.08-1.49,1.86-.81,1.39-1.21,2.09-1,2.42.23.36.95.28,2.38.11,1.6-.19,2.41-.29,2.58-.77.11-.31-.14-.51-1.17-2.03-.87-1.28-.99-1.58-1.3-1.59ZM365.48,212.61c-1.39-.81-2.09-1.21-2.42-1-.36.23-.28.95-.11,2.38.19,1.6.29,2.41.77,2.58.31.11.51-.14,2.03-1.17,1.28-.87,1.58-.99,1.59-1.3,0-.17-.08-.45-1.86-1.49ZM358.89,201.26c-.41-.11-.89.43-1.84,1.51-1.06,1.21-1.61,1.82-1.41,2.3.13.3.45.28,2.23.72,1.5.37,1.8.52,2.03.31.13-.11.28-.36-.13-2.38-.33-1.57-.5-2.36-.87-2.46ZM358.36,214.95c0-.26-.12-.68-2.8-2.27-2.09-1.24-3.15-1.85-3.65-1.53-.54.35-.43,1.44-.19,3.6.27,2.42.41,3.66,1.14,3.92.47.17.77-.21,3.08-1.76,1.95-1.31,2.41-1.48,2.42-1.96ZM356.62,230.49c-1.59.19-2.4.29-2.53.79-.09.32.18.52,1.32,2.06.96,1.31,1.11,1.61,1.42,1.62.18,0,.45-.08,1.36-1.89.71-1.42,1.06-2.13.82-2.46-.26-.36-.97-.28-2.39-.11ZM356.7,162.62c-.43.13-.58.83-.88,2.22-.33,1.56-.5,2.36-.08,2.65.27.18.55,0,2.38-.58,1.55-.49,1.88-.52,1.99-.82.06-.16.07-.45-1.35-1.9-1.11-1.13-1.67-1.7-2.06-1.58ZM359.77,146.06c-2.19-1.38-3.3-2.06-3.84-1.73-.59.35-.5,1.51-.31,3.82.22,2.58.33,3.9,1.09,4.2.49.19.83-.2,3.32-1.78,2.11-1.33,2.6-1.51,2.63-2.01.02-.28-.1-.73-2.91-2.49ZM341.65,140.04c-1.79-1.31-2.11-1.64-2.5-1.55-.22.05-.52.24-.83,2.75-.24,1.96-.35,2.95.09,3.29.49.37,1.34.05,3.02-.61,1.88-.73,2.85-1.11,2.79-1.75-.04-.41-.46-.58-2.58-2.12ZM331.43,143.38c-.41-.11-.89.43-1.84,1.51-1.06,1.21-1.61,1.82-1.41,2.3.13.3.45.28,2.23.72,1.5.37,1.8.52,2.03.31.13-.11.28-.36-.13-2.38-.33-1.57-.5-2.36-.87-2.46ZM300.02,149.42c1.49.6,2.25.91,2.63.57.24-.22.12-.51-.05-2.34-.15-1.54-.11-1.87-.38-2.02-.15-.09-.43-.15-2.2.91-1.38.83-2.07,1.25-2.04,1.64.03.42.7.7,2.03,1.24ZM328.47,164.04c-1.48-.62-2.23-.93-2.53-.67-.32.28-.15.98.2,2.37.4,1.56.6,2.36,1.1,2.46.32.07.49-.21,1.86-1.43,1.16-1.03,1.44-1.19,1.41-1.5-.02-.17-.14-.44-2.04-1.23ZM285.02,172.7c.25-.03.64-.22,1.73-3.03.86-2.2,1.28-3.3.89-3.73-.42-.46-1.44-.19-3.47.38-2.27.64-3.43.96-3.57,1.7-.09.47.32.7,2.16,2.67,1.55,1.66,1.8,2.07,2.25,2.01ZM242.78,138.69c-2.27.64-3.43.96-3.57,1.7-.09.47.32.7,2.16,2.67,1.55,1.66,1.8,2.07,2.25,2.01.25-.03.64-.22,1.73-3.03.86-2.2,1.28-3.3.89-3.73-.42-.46-1.44-.19-3.47.38ZM270.43,188.52c.19-.24.37-.72-1.03-4.1-1.1-2.64-1.66-3.96-2.36-4.01-.75-.05-1.42,1.05-2.71,3.25-1.45,2.47-2.19,3.73-1.69,4.49.32.49.87.34,4.13.51,2.75.14,3.31.3,3.66-.14ZM272.55,171.92c-.33-.02-.62.46-1.19,1.42-.63,1.08-.96,1.63-.74,1.96.14.21.38.15,1.81.22,1.2.06,1.45.13,1.6-.06.09-.11.16-.32-.45-1.8-.48-1.15-.73-1.73-1.03-1.75ZM279.07,183.44c-1.79-.09-2.15-.19-2.38.09-.13.16-.24.47.67,2.67.71,1.72,1.08,2.57,1.53,2.61.49.03.92-.68,1.76-2.11.94-1.6,1.42-2.42,1.1-2.92-.21-.32-.57-.22-2.69-.33ZM286.87,198.9c1.28.75,1.93,1.13,2.32.87.25-.17.18-.45.27-2.14.07-1.43.15-1.71-.07-1.89-.13-.1-.38-.19-2.12.54-1.37.57-2.05.86-2.07,1.22-.03.39.54.73,1.68,1.4ZM287.99,179.42c-1.39.33-2.1.51-2.19.95-.05.29.2.44,1.32,1.69.95,1.05,1.1,1.31,1.38,1.29.16-.01.39-.12,1.06-1.81.53-1.32.78-1.99.55-2.26-.26-.29-.88-.15-2.13.15ZM264.3,172.79c-.19-.41-.63-.36-3.12-.87-2.1-.42-2.51-.61-2.83-.31-.18.16-.37.52.33,3.27.54,2.16.83,3.24,1.36,3.35.57.13,1.21-.64,2.46-2.19,1.39-1.73,2.11-2.62,1.81-3.26ZM251.13,179.77c-.16,0-.42.07-1.4,1.71-.76,1.28-1.14,1.92-.94,2.23.21.33.88.27,2.2.13,1.48-.16,2.24-.24,2.4-.69.1-.29-.13-.47-1.07-1.89-.79-1.2-.9-1.48-1.19-1.49ZM270.39,201.58c-1.77-.04-2.13-.13-2.34.16-.12.16-.23.47.74,2.61.75,1.67,1.14,2.51,1.58,2.53.48.02.89-.7,1.68-2.13.88-1.61,1.34-2.43,1-2.91-.22-.31-.57-.2-2.66-.25ZM302.29,240.3c-.14-.04-.38-.02-1.56,1.24-.92.99-1.38,1.49-1.26,1.79.12.33.73.41,1.92.53,1.34.14,2.03.21,2.26-.15.15-.23-.02-.44-.58-1.88-.47-1.21-.52-1.48-.77-1.54ZM285.34,243.76c-1.27-.29-1.51-.41-1.71-.24-.11.1-.23.31.14,1.99.29,1.32.44,1.98.76,2.06.35.09.74-.37,1.53-1.28.88-1.02,1.32-1.55,1.15-1.94-.11-.25-.38-.23-1.88-.58ZM313.88,223.01c-.71.1-1.11,1.26-1.88,3.57-.86,2.59-1.3,3.91-.68,4.52.4.39.88.14,3.95-.35,2.6-.41,3.14-.38,3.38-.86.13-.26.2-.75-1.78-3.62-1.55-2.24-2.34-3.36-3-3.27ZM288.22,223.02c-.14-.04-.38-.02-1.56,1.24-.92.99-1.38,1.49-1.26,1.79.12.33.73.41,1.92.53,1.34.14,2.03.21,2.26-.15.15-.23-.02-.44-.58-1.88-.47-1.21-.52-1.48-.77-1.54ZM314.34,242.94c-1.85-.24-2.79-.36-3.08.04-.32.44.03,1.21.74,2.75.79,1.72,1.2,2.6,1.8,2.56.39-.03.52-.41,1.85-2.31,1.12-1.61,1.42-1.89,1.31-2.25-.06-.2-.25-.47-2.63-.79ZM302.57,222.36c.07-.15.09-.42-1.22-1.83-1.02-1.1-1.54-1.64-1.92-1.54-.42.11-.6.77-.95,2.08-.39,1.47-.59,2.22-.19,2.5.25.18.53.01,2.32-.48,1.52-.42,1.84-.44,1.96-.72ZM235.9,165.36c.19-.31-.03-.58-.77-2.48-.62-1.6-.68-1.96-1.02-2.04-.19-.05-.51-.03-2.06,1.64-1.22,1.3-1.82,1.96-1.67,2.37.16.44.96.54,2.54.71,1.77.19,2.68.29,2.98-.19ZM210.59,136.39c-1.71.13-2.07.07-2.25.37-.1.16-.17.48.96,2.46.89,1.55,1.34,2.32,1.77,2.29.47-.03.79-.76,1.42-2.22.7-1.64,1.06-2.48.69-2.91-.24-.28-.57-.14-2.6,0ZM182.88,141.11c-1.7.54-2.57.82-2.65,1.38-.05.36.26.52,1.7,1.96,1.22,1.21,1.41,1.52,1.75,1.46.19-.03.47-.18,1.23-2.33.59-1.68.88-2.53.58-2.84-.33-.34-1.09-.1-2.61.38ZM43.65,140.74c-.33-.34-1.09-.1-2.61.38-1.7.54-2.57.82-2.65,1.38-.05.36.26.52,1.7,1.96,1.22,1.21,1.41,1.52,1.75,1.46.19-.03.47-.18,1.23-2.33.59-1.68.88-2.53.58-2.84ZM12.04,137.67c-.05-.19-.22-.46-2.42-1.04-1.72-.45-2.59-.67-2.88-.35-.31.35-.02,1.1.58,2.57.67,1.65,1.02,2.49,1.58,2.53.36.02.5-.3,1.82-1.85,1.11-1.31,1.4-1.53,1.32-1.86ZM33.2,159.47c-.21-.15-.61-.28-3.35,1.02-2.14,1.01-3.21,1.53-3.22,2.11-.01.63.92,1.13,2.79,2.12,2.1,1.1,3.17,1.67,3.78,1.22.39-.29.25-.74.26-3.44.01-2.28.12-2.75-.26-3.02ZM29.91,144.1c.39-.29.25-.74.26-3.44.01-2.28.12-2.75-.26-3.02-.21-.15-.61-.28-3.35,1.02-2.14,1.01-3.21,1.53-3.22,2.11-.01.63.92,1.13,2.79,2.12,2.1,1.1,3.17,1.67,3.78,1.22ZM20.84,180.9c2.7.93,3.21,1.24,3.68.91.26-.18.58-.61.15-4.38-.34-2.94-.52-4.41-1.2-4.66-.74-.27-1.71.63-3.63,2.45-2.15,2.04-3.25,3.08-2.96,3.98.18.58.77.59,3.96,1.69ZM67.36,139.99c-.21-.15-.61-.28-3.35,1.02-2.14,1.01-3.21,1.53-3.22,2.11-.01.63.92,1.13,2.79,2.12,2.1,1.1,3.17,1.67,3.78,1.22.39-.29.25-.74.26-3.44.01-2.28.12-2.75-.26-3.02ZM38.16,178.99c-2.23-.04-2.68-.13-2.95.19-.15.18-.28.53.92,2.92.94,1.87,1.43,2.81,1.99,2.82.61.02,1.12-.79,2.12-2.4,1.12-1.81,1.69-2.73,1.26-3.27-.27-.34-.71-.22-3.35-.27ZM56.47,166.35c-1.38-.74-2.08-1.12-2.49-.83-.26.19-.17.49-.2,2.27-.02,1.51-.1,1.82.15,2,.14.1.4.19,2.22-.65,1.42-.65,2.13-.99,2.15-1.37.01-.41-.6-.75-1.83-1.42ZM73.32,163.91c-.38-.16-.91.31-1.96,1.23-1.17,1.04-1.77,1.57-1.64,2.05.09.31.4.33,2.07.97,1.41.54,1.67.71,1.93.55.14-.09.32-.31.15-2.31-.13-1.56-.2-2.34-.55-2.49ZM35.67,193.15c-.38-.16-.91.31-1.96,1.23-1.17,1.04-1.77,1.57-1.64,2.05.09.31.4.33,2.07.96,1.41.54,1.67.71,1.93.55.14-.09.32-.31.15-2.31-.13-1.56-.2-2.34-.55-2.49ZM45.21,165.84c-2.1-.42-2.51-.61-2.83-.31-.18.16-.37.52.33,3.27.54,2.16.83,3.24,1.36,3.35.57.13,1.21-.64,2.46-2.19,1.39-1.73,2.11-2.62,1.81-3.26-.19-.41-.63-.36-3.12-.87ZM53.68,179c-.54-.24-1.31.39-2.84,1.66-1.71,1.42-2.59,2.14-2.42,2.83.11.44.55.48,2.88,1.47,1.97.84,2.34,1.1,2.71.87.21-.13.46-.43.33-3.27-.1-2.22-.17-3.34-.66-3.56ZM19.39,215.82c.18-.27.31-.78-1.46-4.13-1.39-2.61-2.09-3.92-2.81-3.9-.78.02-1.36,1.21-2.48,3.61-1.26,2.68-1.9,4.05-1.31,4.78.38.47.93.27,4.31.13,2.85-.11,3.44-.01,3.76-.49ZM21.08,239.61c-2.54,1.05-3.83,1.58-3.89,2.46-.04.56.47.77,2.86,2.79,2.02,1.71,2.36,2.14,2.88,2.01.29-.07.7-.34,1.58-3.74.69-2.66,1.02-3.99.52-4.43-.55-.48-1.69-.02-3.96.92ZM32.54,225.11c-.36-.21-.67.05-2.81.96-1.81.77-2.21.84-2.3,1.23-.05.22-.01.58,1.94,2.31,1.53,1.35,2.3,2.02,2.76,1.83.5-.2.58-1.11.72-2.93.16-2.03.24-3.07-.32-3.4ZM29.85,219.83c1.55-1.32,2.34-2,2.18-2.63-.1-.4-.51-.43-2.66-1.31-1.82-.74-2.16-.97-2.5-.76-.19.12-.42.4-.26,3,.13,2.03.2,3.05.66,3.25.5.21,1.2-.38,2.58-1.56ZM55.63,232.18c-.23.06-.24.29-.74,1.5-.42,1.03-.55,1.22-.43,1.41.07.11.23.24,1.69.15,1.15-.07,1.72-.11,1.83-.37.12-.28-.21-.68-.88-1.46-.75-.87-1.13-1.32-1.48-1.23ZM18.7,231.99c-.04-.22-.22-.54-2.71-1.38-1.95-.65-2.93-.97-3.29-.62-.39.38-.1,1.26.48,3.01.65,1.95.98,2.95,1.63,3.04.42.06.6-.31,2.23-1.99,1.38-1.42,1.73-1.65,1.66-2.05ZM140.49,222.16c-1.07.59-1.61.89-1.59,1.28.01.25.25.32,1.4,1.08.98.65,1.15.83,1.37.74.12-.05.29-.18.51-1.73.17-1.21.25-1.81,0-1.98-.26-.18-.75.08-1.7.6ZM124.9,223.97c-1.13-.45-1.7-.66-1.92-.47-.24.21-.1.74.19,1.79.32,1.17.49,1.77.87,1.85.24.05.36-.17,1.38-1.11.86-.8,1.07-.92,1.04-1.16-.02-.13-.11-.33-1.56-.9ZM111.01,199.45c-.41-.08-.85.49-1.7,1.63-.95,1.28-1.44,1.93-1.21,2.38.15.29.46.24,2.26.54,1.52.25,1.81.37,2.04.15.12-.12.25-.38-.32-2.34-.45-1.53-.68-2.3-1.06-2.37ZM106.71,236.91c-1.69-.91-1.99-1.17-2.34-1-.19.09-.45.35-.56,2.89-.09,1.98-.13,2.98.3,3.22.46.26,1.2-.24,2.67-1.24,1.64-1.12,2.48-1.7,2.39-2.32-.06-.4-.45-.47-2.45-1.55ZM92.52,231.04c-.21-.13-.61-.21-3.09,1.26-1.94,1.15-2.91,1.73-2.87,2.28.04.6.97.99,2.83,1.76,2.08.86,3.15,1.3,3.69.82.34-.3.17-.72-.05-3.28-.19-2.17-.13-2.62-.51-2.84ZM102.52,216.43c-.53-.27-1.35.32-2.97,1.52-1.81,1.34-2.74,2.03-2.61,2.74.08.45.53.52,2.84,1.65,1.95.95,2.31,1.23,2.7,1.03.22-.12.49-.41.51-3.3.02-2.25.01-3.38-.48-3.63ZM235.87,221.81c-1.78.59-2.69.89-2.77,1.49-.05.38.28.55,1.82,2.04,1.3,1.26,1.51,1.58,1.87,1.51.2-.04.5-.2,1.26-2.47.6-1.78.89-2.67.57-3-.35-.35-1.15-.1-2.74.43ZM234.12,215.62c.37.09.58-.22,2.23-1.58,1.4-1.15,1.73-1.32,1.71-1.69-.01-.2-.14-.52-2.32-1.53-1.7-.79-2.56-1.18-2.92-.9-.39.31-.22,1.13.13,2.78.39,1.84.59,2.78,1.17,2.92ZM225.3,200.66c-.27-.13-.77-.2-3.69,1.86-2.28,1.61-3.42,2.43-3.32,3.1.11.73,1.3,1.13,3.68,1.89,2.66.86,4.02,1.29,4.64.65.39-.41.14-.91-.39-4.05-.45-2.66-.42-3.22-.91-3.46ZM217.6,221.32c-.53.17-.68,1.12-.96,2.99-.31,2.1-.47,3.18.09,3.56.36.24.7,0,2.99-.8,1.94-.67,2.36-.72,2.48-1.12.07-.22.05-.6-1.86-2.54-1.49-1.51-2.25-2.26-2.74-2.1ZM174.2,208.32c-2.15.56-3.23.85-3.34,1.38-.12.58.65,1.21,2.21,2.44,1.74,1.38,2.63,2.09,3.27,1.79.41-.19.36-.64.85-3.13.41-2.1.59-2.52.29-2.83-.17-.18-.52-.37-3.27.35ZM191.35,215.22c-.17-.04-.46-.02-1.87,1.48-1.1,1.17-1.65,1.77-1.51,2.13.15.4.86.49,2.29.64,1.6.17,2.42.26,2.69-.17.17-.28-.03-.53-.69-2.24-.56-1.45-.61-1.77-.91-1.84ZM172.5,196.34c.04-.17.02-.46-1.48-1.87-1.17-1.1-1.77-1.65-2.13-1.51-.4.15-.49.86-.64,2.29-.17,1.6-.26,2.42.17,2.69.28.17.53-.03,2.24-.69,1.45-.56,1.77-.61,1.84-.91ZM167.14,181.94c-.38-.2-.97.22-2.13,1.05-1.31.94-1.97,1.42-1.89,1.92.05.32.37.38,2.01,1.2,1.38.7,1.63.91,1.91.76.15-.08.36-.29.4-2.35.04-1.61.05-2.41-.3-2.6ZM161.35,192.32c-1.76-1.68-2.66-2.51-3.21-2.31-.61.22-.74,1.3-.99,3.46-.28,2.42-.42,3.66.23,4.07.42.27.8-.03,3.39-1.02,2.19-.83,2.68-.91,2.8-1.37.07-.26.04-.69-2.22-2.84ZM158.38,209.91c-1.59-.17-2.4-.25-2.64.2-.15.29.06.54.83,2.31.65,1.49.72,1.82,1.02,1.9.17.04.45.02,1.75-1.54,1.01-1.22,1.51-1.84,1.35-2.22-.17-.41-.88-.49-2.3-.64ZM115.27,153.23c.17.04.45.02,1.75-1.54,1.01-1.22,1.51-1.84,1.35-2.22-.17-.41-.88-.49-2.3-.64-1.59-.17-2.4-.25-2.64.2-.15.29.06.54.83,2.31.65,1.49.72,1.82,1.02,1.9ZM158.12,183.07c1.39-1.73,2.11-2.62,1.81-3.26-.19-.41-.63-.36-3.12-.87-2.1-.42-2.51-.61-2.83-.31-.18.16-.37.52.33,3.27.54,2.16.83,3.24,1.36,3.35.57.13,1.21-.64,2.46-2.19ZM121.55,157.57c-.21-.15-.61-.28-3.35,1.02-2.14,1.01-3.21,1.53-3.22,2.11-.01.63.92,1.13,2.79,2.12,2.1,1.1,3.17,1.67,3.78,1.22.39-.29.25-.74.26-3.44.01-2.28.12-2.75-.26-3.02ZM127.97,148.55c-.38-.16-.91.31-1.96,1.23-1.17,1.04-1.77,1.57-1.64,2.05.09.31.4.33,2.07.96,1.41.54,1.67.71,1.93.55.14-.09.32-.31.15-2.31-.13-1.56-.2-2.34-.55-2.49ZM126.37,94.86c-2.1-.42-2.51-.61-2.83-.31-.18.16-.37.52.33,3.27.54,2.16.83,3.24,1.36,3.35.57.13,1.21-.64,2.46-2.19,1.39-1.73,2.11-2.62,1.81-3.26-.19-.41-.63-.36-3.12-.87ZM87.55,216.17c-.19-.41-.63-.36-3.12-.87-2.1-.42-2.51-.61-2.83-.31-.18.16-.37.52.33,3.27.54,2.16.83,3.24,1.36,3.35.57.13,1.21-.64,2.46-2.19,1.39-1.73,2.11-2.62,1.81-3.26ZM169.7,124.95c-.21-.33-.86-.26-2.16-.12-1.46.16-2.2.24-2.36.67-.1.28.13.46,1.05,1.86.78,1.18.89,1.45,1.17,1.46.16,0,.41-.07,1.37-1.68.75-1.26,1.12-1.89.93-2.19ZM317.24,105.05c-.38.03-.51.4-1.82,2.27-1.11,1.58-1.39,1.86-1.29,2.21.06.2.25.47,2.58.77,1.82.24,2.74.35,3.03-.04.31-.43-.03-1.19-.73-2.7-.78-1.69-1.18-2.55-1.77-2.51ZM420.55,159.72c.53.24,1.29-.38,2.8-1.63,1.68-1.39,2.55-2.11,2.38-2.78-.1-.43-.54-.47-2.84-1.45-1.94-.82-2.3-1.08-2.67-.86-.2.12-.46.42-.33,3.22.1,2.18.16,3.28.65,3.5ZM397.06,110.25c-.17-.04-.45-.02-1.72,1.52-.99,1.2-1.49,1.81-1.33,2.18.17.4.87.49,2.27.63,1.56.16,2.36.25,2.6-.19.15-.28-.06-.54-.81-2.27-.64-1.46-.71-1.79-1-1.87Z"/>
    </clipPath>
    <linearGradient id="linear-gradient" x1="0" y1="130.02" x2="581.33" y2="130.02" gradientUnits="userSpaceOnUse">
      <stop offset=".1" stop-color="#f173ac"/>
      <stop offset=".39" stop-color="#7351a1"/>
      <stop offset=".61" stop-color="#4574a4"/>
      <stop offset=".92" stop-color="#6fc282"/>
    </linearGradient>
  </defs>
  <g id="Layer_3" data-name="Layer 3">
    <rect class="cls-2" width="581.33" height="260.05"/>
  </g>
  <g id="Layer_2" data-name="Layer 2" class="cls-4">
    <g class="cls-5">
      <rect class="cls-3" width="581.33" height="260.05"/>
    </g>
  </g>
</svg>