<?xml version="1.0" encoding="UTF-8"?>
<svg xmlns="http://www.w3.org/2000/svg" viewBox="0 0 583.22 260.05">
  <defs>
    <style>
      .cls-1 {
        fill: #4c694f;
      }

      .cls-2 {
        fill: #384d39;
      }

      .cls-3 {
        opacity: .58;
      }

      .cls-4 {
        fill: #8cbf8f;
      }
    </style>
  </defs>
  <g id="Layer_1" data-name="Layer 1">
    <rect class="cls-1" width="581.33" height="260.05"/>
  </g>
  <g id="Layer_2" data-name="Layer 2" class="cls-3">
    <path class="cls-2" d="M26.04,43.11c-.68-.05-1.24-1.35-2.32-3.94-1.38-3.32-1.21-3.8-1.02-4.03.34-.43.89-.28,3.6-.14,3.2.17,3.75.03,4.06.51.49.75-.24,1.99-1.66,4.41-1.27,2.17-1.92,3.25-2.67,3.2Z"/>
    <path class="cls-2" d="M20.62,51.46c-.3-.02-.54-.59-1.01-1.72-.61-1.45-.53-1.66-.44-1.77.15-.19.39-.12,1.57-.06,1.4.07,1.64.01,1.78.22.22.33-.1.87-.73,1.93-.56.95-.84,1.42-1.17,1.4Z"/>
    <path class="cls-2" d="M14.39,34.86c.44.03.8.88,1.51,2.56.9,2.16.79,2.47.66,2.62-.22.28-.58.18-2.34.09-2.08-.11-2.44-.02-2.64-.33-.32-.48.15-1.29,1.08-2.87.83-1.41,1.25-2.11,1.73-2.08Z"/>
    <path class="cls-2" d="M8.2,26.31c-.03.35-.7.64-2.04,1.2-1.72.72-1.96.63-2.09.53-.22-.18-.14-.46-.07-1.86.09-1.66.01-1.94.26-2.1.39-.26,1.03.12,2.28.86,1.12.66,1.68,1,1.65,1.38Z"/>
    <path class="cls-2" d="M3.35,44.23c-.23-.27.02-.92.54-2.22.66-1.67.89-1.77,1.04-1.78.27-.02.42.23,1.36,1.26,1.11,1.23,1.35,1.38,1.3,1.66-.08.44-.78.61-2.15.94-1.22.29-1.84.43-2.09.15Z"/>
    <path class="cls-2" d="M5.07,58.68c-.02.3-.59.54-1.72,1.01-1.45.61-1.66.53-1.77.44-.19-.15-.12-.39-.06-1.57.07-1.4.01-1.64.22-1.78.33-.22.87.1,1.93.73.95.56,1.42.84,1.4,1.17Z"/>
    <path class="cls-4" d="M32.93,45.24c.52.12.8,1.18,1.33,3.3.69,2.71.5,3.06.32,3.22-.31.29-.72.11-2.78-.31-2.44-.49-2.88-.45-3.07-.85-.29-.63.41-1.5,1.78-3.2,1.23-1.52,1.85-2.28,2.41-2.15Z"/>
    <path class="cls-4" d="M43.98,39.87c.19.3-.18.94-.93,2.19-.96,1.61-1.21,1.68-1.37,1.68-.29-.01-.39-.29-1.17-1.46-.92-1.39-1.15-1.58-1.05-1.86.16-.44.9-.52,2.36-.67,1.3-.14,1.96-.2,2.16.12Z"/>
    <path class="cls-4" d="M22.77,17.09c.44.02.82.84,1.56,2.48.95,2.1.84,2.41.73,2.57-.21.28-.57.19-2.3.15-2.06-.05-2.4.05-2.61-.25-.33-.47.11-1.28.98-2.86.78-1.41,1.17-2.12,1.65-2.1Z"/>
    <path class="cls-2" d="M29.02,74.89c-.41-.03-.74-.81-1.39-2.37-.83-2-.73-2.28-.61-2.43.21-.26.54-.17,2.16-.08,1.93.1,2.25.02,2.44.3.3.45-.14,1.2-1,2.65-.77,1.3-1.16,1.95-1.6,1.92Z"/>
    <path class="cls-2" d="M41.95,70.8c.53.07.9,1.1,1.61,3.16.92,2.64.76,3,.6,3.17-.29.32-.7.17-2.79-.06-2.47-.28-2.9-.2-3.13-.58-.35-.6.27-1.53,1.49-3.34,1.09-1.62,1.64-2.43,2.22-2.35Z"/>
    <path class="cls-2" d="M36.33,87.14c.11.3-.34.79-1.24,1.76-1.16,1.24-1.4,1.26-1.53,1.22-.25-.06-.29-.33-.76-1.52-.55-1.41-.72-1.61-.57-1.84.22-.36.9-.29,2.22-.15,1.18.12,1.77.19,1.89.52Z"/>
    <path class="cls-2" d="M51.01,82.98c.31.08.46.73.75,2.02.37,1.66.25,1.86.14,1.96-.19.17-.44.06-1.68-.23-1.47-.34-1.74-.32-1.84-.57-.17-.39.27-.9,1.13-1.91.77-.9,1.16-1.35,1.5-1.26Z"/>
    <path class="cls-2" d="M22.16,107.12c-.65.09-1.42-1.01-2.95-3.21-1.95-2.82-1.88-3.3-1.75-3.56.23-.47.77-.44,3.33-.84,3.02-.48,3.5-.72,3.89-.34.61.6.18,1.9-.67,4.44-.75,2.27-1.15,3.41-1.85,3.51Z"/>
    <path class="cls-2" d="M50.16,104.13c.11.3-.34.79-1.24,1.76-1.16,1.24-1.4,1.26-1.53,1.22-.25-.06-.29-.33-.76-1.52-.55-1.41-.72-1.61-.57-1.84.22-.36.9-.29,2.22-.15,1.18.12,1.77.19,1.89.52Z"/>
    <path class="cls-2" d="M78.26,100.17c.39.11.55.94.85,2.58.38,2.1.22,2.35.08,2.47-.25.2-.55.05-2.1-.37-1.84-.5-2.17-.49-2.29-.81-.19-.49.39-1.12,1.52-2.35,1.01-1.1,1.53-1.64,1.95-1.52Z"/>
    <path class="cls-4" d="M24.73,87.48c-.29.39-1.2.28-3.03.04-2.33-.31-2.53-.58-2.58-.77-.1-.35.19-.63,1.29-2.21,1.31-1.87,1.44-2.25,1.82-2.27.59-.04.99.82,1.77,2.51.7,1.51,1.04,2.27.73,2.7Z"/>
    <path class="cls-4" d="M36.37,111.08c-.38.1-.89-.44-1.89-1.52-1.28-1.38-1.27-1.64-1.2-1.8.12-.27.44-.29,1.93-.71,1.76-.49,2.04-.65,2.28-.48.39.28.19,1.02-.19,2.46-.34,1.29-.52,1.93-.93,2.04Z"/>
    <path class="cls-2" d="M53.62,2.97c.36-.26,1.18.15,2.81.98,2.08,1.07,2.19,1.38,2.2,1.57,0,.36-.32.51-1.73,1.58-1.66,1.26-1.87,1.56-2.23,1.46-.56-.16-.72-1.08-1.03-2.88-.28-1.61-.41-2.42-.02-2.7Z"/>
    <path class="cls-2" d="M72.98,23.52c.29-.21.95.12,2.26.79,1.68.86,1.77,1.11,1.77,1.27,0,.29-.26.41-1.39,1.27-1.34,1.02-1.51,1.26-1.8,1.17-.45-.13-.58-.87-.83-2.33-.23-1.3-.33-1.95-.02-2.18Z"/>
    <path class="cls-4" d="M84.05,45.3c-.35-.04-.6-.74-1.09-2.12-.62-1.77-.52-2.01-.41-2.13.19-.21.47-.12,1.87.03,1.66.18,1.95.12,2.1.38.24.4-.18,1.03-.99,2.25-.72,1.09-1.09,1.63-1.48,1.58Z"/>
    <path class="cls-2" d="M107.01,32.84c.38.26.27,1.19.02,3.05-.31,2.38-.57,2.6-.76,2.67-.34.13-.61-.14-2.13-1.12-1.8-1.17-2.16-1.27-2.18-1.65-.04-.6.8-1.07,2.43-2,1.46-.83,2.2-1.24,2.61-.96Z"/>
    <path class="cls-2" d="M120.85,23.41c-.3.19-.92-.18-2.16-.93-1.58-.96-1.65-1.21-1.65-1.36.01-.28.28-.39,1.45-1.15,1.38-.9,1.56-1.13,1.84-1.02.43.16.51.9.65,2.33.13,1.28.19,1.93-.14,2.13Z"/>
    <path class="cls-2" d="M141.07,28.71c-.38-.24-.3-1.16-.12-3,.23-2.35.48-2.57.66-2.65.33-.14.6.12,2.12,1.04,1.8,1.09,2.16,1.18,2.19,1.55.05.58-.75,1.08-2.33,2.04-1.41.86-2.12,1.28-2.53,1.02Z"/>
    <path class="cls-2" d="M149.13,38.41c-.28.35-1.19.17-2.99-.22-2.31-.49-2.5-.76-2.56-.96-.1-.34.18-.58,1.27-1.99,1.29-1.67,1.41-2.01,1.79-2.01.59.01.99.87,1.76,2.54.7,1.49,1.04,2.25.73,2.63Z"/>
    <path class="cls-2" d="M101.94,89.8c-.24-.17-.16-.76,0-1.95.21-1.52.38-1.65.5-1.7.22-.08.39.09,1.35.73,1.14.76,1.37.82,1.38,1.07.02.38-.52.68-1.56,1.26-.94.52-1.41.77-1.67.59Z"/>
    <path class="cls-2" d="M120.83,87.89c-.22.19-.78-.02-1.89-.46-1.43-.56-1.52-.76-1.53-.88-.03-.23.18-.35,1.02-1.14,1-.93,1.12-1.14,1.36-1.09.37.07.54.66.86,1.81.29,1.03.42,1.55.19,1.76Z"/>
    <path class="cls-2" d="M132.6,111.54c-.38-.07-.6-.82-1.04-2.33-.56-1.92-.44-2.18-.32-2.3.22-.22.51-.1,2,.15,1.76.29,2.07.25,2.22.53.23.44-.25,1.09-1.19,2.34-.84,1.12-1.26,1.68-1.67,1.61Z"/>
    <path class="cls-2" d="M139.4,69.68c.42.23.38,1.21.29,3.16-.11,2.5-.36,2.75-.55,2.84-.34.17-.64-.09-2.3-.98-1.96-1.05-2.35-1.13-2.41-1.52-.09-.61.74-1.18,2.35-2.28,1.44-.99,2.17-1.47,2.62-1.22Z"/>
    <path class="cls-2" d="M156.64,77.01c.04.54-.92,1.11-2.82,2.24-2.44,1.44-2.83,1.36-3.04,1.24-.37-.22-.31-.66-.5-2.79-.22-2.52-.39-2.93-.05-3.23.53-.47,1.58-.03,3.62.81,1.83.76,2.75,1.14,2.79,1.73Z"/>
    <path class="cls-2" d="M140.95,94.84c-.48-.25-.48-1.36-.47-3.57.02-2.84.29-3.13.5-3.24.38-.2.73.07,2.65,1.01,2.27,1.11,2.71,1.17,2.79,1.62.13.69-.78,1.37-2.56,2.69-1.59,1.18-2.4,1.76-2.92,1.5Z"/>
    <path class="cls-2" d="M164.01,39.33c.24.62-.67,1.66-2.5,3.7-2.35,2.62-2.84,2.66-3.13,2.6-.52-.12-.62-.67-1.63-3.11-1.2-2.89-1.55-3.31-1.27-3.79.45-.75,1.85-.63,4.59-.39,2.45.21,3.67.33,3.94,1Z"/>
    <path class="cls-4" d="M161.21,24.13c-.44.26-1.33-.29-3.09-1.41-2.26-1.43-2.35-1.8-2.34-2.02.03-.41.42-.55,2.13-1.62,2.02-1.26,2.29-1.58,2.69-1.42.62.24.7,1.31.87,3.39.15,1.86.21,2.8-.26,3.08Z"/>
    <path class="cls-2" d="M208.56,24.97c0,.53-.96,1.05-2.9,2.06-2.48,1.29-2.86,1.19-3.06,1.06-.35-.24-.27-.67-.34-2.78-.08-2.49-.23-2.91.12-3.18.55-.43,1.56.05,3.53.99,1.76.84,2.64,1.28,2.65,1.85Z"/>
    <path class="cls-2" d="M190.15,19.99c.21.32-.18,1.01-.98,2.38-1.02,1.75-1.29,1.83-1.46,1.83-.31,0-.43-.3-1.28-1.57-1.01-1.49-1.26-1.69-1.15-1.99.17-.47.97-.57,2.54-.76,1.4-.17,2.11-.24,2.34.11Z"/>
    <path class="cls-2" d="M214.13,40.57c-.32.21-1.01-.18-2.38-.98-1.75-1.02-1.83-1.29-1.83-1.46,0-.31.3-.43,1.57-1.28,1.49-1.01,1.69-1.26,1.99-1.15.47.17.57.97.76,2.54.17,1.4.24,2.11-.11,2.34Z"/>
    <path class="cls-2" d="M218.24,50.75c-.37-.1-.54-.88-.86-2.42-.41-1.98-.26-2.22-.13-2.34.24-.2.52-.06,2,.31,1.75.43,2.07.41,2.19.71.19.46-.34,1.07-1.39,2.26-.93,1.06-1.41,1.59-1.81,1.48Z"/>
    <path class="cls-2" d="M225.09,41.03c-.49.32-1.53-.29-3.59-1.5-2.64-1.56-2.76-1.97-2.75-2.23.02-.47.46-.64,2.38-1.93,2.27-1.52,2.57-1.89,3.03-1.73.72.26.85,1.47,1.12,3.85.24,2.12.34,3.19-.19,3.54Z"/>
    <path class="cls-4" d="M218.12,21.91c-.23-.33.11-1.03.81-2.42.89-1.78,1.16-1.87,1.33-1.86.31,0,.45.31,1.4,1.59,1.12,1.52,1.38,1.72,1.3,2.03-.13.48-.93.58-2.49.77-1.39.17-2.1.25-2.35-.11Z"/>
    <path class="cls-4" d="M220.39,88.74c-.39.11-.94-.44-2.03-1.55-1.4-1.42-1.39-1.7-1.33-1.87.11-.29.44-.32,1.96-.81,1.8-.57,2.07-.75,2.34-.57.41.28.25,1.07-.08,2.61-.29,1.37-.44,2.06-.86,2.19Z"/>
    <path class="cls-2" d="M221.14,106.73c-.53.32-1.62-.35-3.77-1.7-2.76-1.73-2.87-2.18-2.86-2.45.03-.5.51-.67,2.59-1.98,2.46-1.55,2.78-1.93,3.27-1.75.75.29.86,1.59,1.08,4.13.19,2.27.27,3.41-.3,3.75Z"/>
    <path class="cls-4" d="M238.37,106.53c.44.33.33,1.3.09,3.23-.3,2.47-.6,2.66-.81,2.7-.39.09-.7-.24-2.46-1.52-2.08-1.52-2.5-1.68-2.53-2.09-.05-.64.89-1,2.75-1.72,1.66-.64,2.49-.96,2.97-.6Z"/>
    <path class="cls-2" d="M245.23,107.65c-.37-.1-.54-.88-.86-2.42-.41-1.98-.26-2.22-.13-2.34.24-.2.52-.06,2,.31,1.75.43,2.07.41,2.19.71.19.46-.34,1.07-1.39,2.26-.93,1.06-1.41,1.59-1.81,1.48Z"/>
    <path class="cls-2" d="M278.11,102.94c.03.38-.65.8-2,1.61-1.73,1.04-2.01.98-2.16.9-.27-.16-.23-.47-.37-1.99-.17-1.8-.29-2.09-.05-2.3.37-.34,1.12-.03,2.59.56,1.31.53,1.96.8,2,1.22Z"/>
    <path class="cls-2" d="M250.63,88c-.29.25-1.03-.05-2.48-.66-1.87-.78-1.98-1.04-2-1.21-.03-.31.25-.46,1.39-1.48,1.35-1.2,1.51-1.47,1.82-1.4.49.1.69.89,1.08,2.42.35,1.37.51,2.06.2,2.33Z"/>
    <path class="cls-2" d="M288.29,85.47c-.38-.42.03-1.51.88-3.67,1.08-2.76,1.45-2.95,1.7-2.98.45-.06.69.34,2.22,1.98,1.81,1.93,2.21,2.16,2.13,2.62-.13.73-1.28,1.05-3.51,1.67-1.99.56-3,.83-3.41.37Z"/>
    <path class="cls-2" d="M328.98,112.64c-.38-.42.03-1.51.88-3.67,1.08-2.76,1.45-2.95,1.7-2.98.45-.06.69.34,2.22,1.98,1.81,1.93,2.21,2.16,2.13,2.62-.13.73-1.28,1.05-3.51,1.67-1.99.56-3,.83-3.41.37Z"/>
    <path class="cls-2" d="M308.54,71.25c-.68-.05-1.24-1.35-2.32-3.94-1.38-3.32-1.21-3.8-1.02-4.03.34-.43.89-.28,3.6-.14,3.2.17,3.75.03,4.06.51.49.75-.24,1.99-1.66,4.41-1.27,2.17-1.92,3.25-2.67,3.2Z"/>
    <path class="cls-2" d="M303.12,79.6c-.3-.02-.54-.59-1.01-1.72-.61-1.45-.53-1.66-.44-1.77.15-.19.39-.12,1.57-.06,1.4.07,1.64.01,1.78.22.22.33-.1.87-.73,1.93-.56.95-.84,1.42-1.17,1.4Z"/>
    <path class="cls-2" d="M296.89,63c.44.03.8.88,1.51,2.56.9,2.16.79,2.47.66,2.62-.22.28-.58.18-2.34.09-2.08-.11-2.44-.02-2.64-.33-.32-.48.15-1.29,1.08-2.87.83-1.41,1.25-2.11,1.73-2.08Z"/>
    <path class="cls-2" d="M290.7,54.45c-.03.35-.7.64-2.04,1.2-1.72.72-1.96.63-2.09.53-.22-.18-.14-.46-.07-1.86.09-1.66.01-1.94.26-2.1.39-.26,1.03.12,2.28.86,1.12.66,1.68,1,1.65,1.38Z"/>
    <path class="cls-2" d="M285.85,72.37c-.23-.27.02-.92.54-2.22.66-1.67.89-1.77,1.04-1.78.27-.02.42.23,1.36,1.26,1.11,1.23,1.35,1.38,1.3,1.66-.08.44-.78.61-2.15.94-1.22.29-1.84.43-2.09.15Z"/>
    <path class="cls-4" d="M315.43,73.38c.52.12.8,1.18,1.33,3.3.69,2.71.5,3.06.32,3.22-.31.29-.72.11-2.78-.31-2.44-.49-2.88-.45-3.07-.85-.29-.63.41-1.5,1.78-3.2,1.23-1.52,1.85-2.28,2.41-2.15Z"/>
    <path class="cls-4" d="M326.48,68.01c.19.3-.18.94-.93,2.19-.96,1.61-1.21,1.68-1.37,1.68-.29-.01-.39-.29-1.17-1.46-.92-1.39-1.15-1.58-1.05-1.86.16-.44.9-.52,2.36-.67,1.3-.14,1.96-.2,2.16.12Z"/>
    <path class="cls-4" d="M305.27,45.23c.44.02.82.84,1.56,2.48.95,2.1.84,2.41.73,2.57-.21.28-.57.19-2.3.15-2.06-.05-2.4.05-2.61-.25-.33-.47.11-1.28.98-2.86.78-1.41,1.17-2.12,1.65-2.1Z"/>
    <path class="cls-2" d="M276.66,9.38c.11.3-.34.79-1.24,1.76-1.16,1.24-1.4,1.26-1.53,1.22-.25-.06-.29-.33-.76-1.52-.55-1.41-.72-1.61-.57-1.84.22-.36.9-.29,2.22-.15,1.18.12,1.77.19,1.89.52Z"/>
    <path class="cls-2" d="M291.34,5.22c.31.08.46.73.75,2.02.37,1.66.25,1.86.14,1.96-.19.17-.44.06-1.68-.23-1.47-.34-1.74-.32-1.84-.57-.17-.39.27-.9,1.13-1.91.77-.9,1.16-1.35,1.5-1.26Z"/>
    <path class="cls-2" d="M262.49,29.36c-.65.09-1.42-1.01-2.95-3.21-1.95-2.82-1.88-3.3-1.75-3.56.23-.47.77-.44,3.33-.84,3.02-.48,3.5-.72,3.89-.34.61.6.18,1.9-.67,4.44-.75,2.27-1.15,3.41-1.85,3.51Z"/>
    <path class="cls-2" d="M290.49,26.37c.11.3-.34.79-1.24,1.76-1.16,1.24-1.4,1.26-1.53,1.22-.25-.06-.29-.33-.76-1.52-.55-1.41-.72-1.61-.57-1.84.22-.36.9-.29,2.22-.15,1.18.12,1.77.19,1.89.52Z"/>
    <path class="cls-4" d="M265.06,9.73c-.29.39-1.2.28-3.03.04-2.33-.31-2.53-.58-2.58-.77-.1-.35.19-.63,1.29-2.21,1.31-1.87,1.44-2.25,1.82-2.27.59-.04.99.82,1.77,2.51.7,1.51,1.04,2.27.73,2.7Z"/>
    <path class="cls-4" d="M276.7,33.32c-.38.1-.89-.44-1.89-1.52-1.28-1.38-1.27-1.64-1.2-1.8.12-.27.44-.29,1.93-.71,1.76-.49,2.04-.65,2.28-.48.39.28.19,1.02-.19,2.46-.34,1.29-.52,1.93-.93,2.04Z"/>
    <path class="cls-2" d="M344.59,86.55c.15.4-.45,1.05-1.64,2.33-1.53,1.64-1.85,1.66-2.03,1.61-.33-.09-.39-.43-1-2.01-.73-1.86-.95-2.13-.76-2.44.3-.47,1.19-.38,2.93-.19,1.56.17,2.34.26,2.5.69Z"/>
    <path class="cls-2" d="M363.57,109.49c.43-.02.87.74,1.74,2.26,1.11,1.95,1.04,2.25.94,2.42-.18.29-.53.24-2.21.36-1.99.15-2.32.28-2.55,0-.36-.42,0-1.25.68-2.86.62-1.44.94-2.16,1.4-2.18Z"/>
    <path class="cls-2" d="M388.72,110.26c-.3-.31-.01-1.14.57-2.79.74-2.12,1.02-2.26,1.21-2.29.34-.06.53.24,1.72,1.43,1.42,1.41,1.73,1.57,1.67,1.93-.08.55-.94.82-2.61,1.35-1.49.47-2.24.71-2.57.37Z"/>
    <path class="cls-2" d="M528.17,110.26c-.3-.31-.01-1.14.57-2.79.74-2.12,1.02-2.26,1.21-2.29.34-.06.53.24,1.72,1.43,1.42,1.41,1.73,1.57,1.67,1.93-.08.55-.94.82-2.61,1.35-1.49.47-2.24.71-2.57.37Z"/>
    <path class="cls-2" d="M564.46,114.63c-.28.32-1.14.1-2.83-.34-2.17-.57-2.34-.84-2.38-1.02-.08-.33.2-.55,1.29-1.83,1.3-1.52,1.43-1.85,1.79-1.82.56.04.9.87,1.56,2.49.59,1.45.88,2.18.57,2.53Z"/>
    <path class="cls-2" d="M544.91,88.77c-.01.57-1.07,1.08-3.17,2.07-2.69,1.27-3.09,1.15-3.3,1-.37-.27-.26-.72-.25-2.97.01-2.65-.12-3.1.26-3.38.6-.44,1.65.12,3.71,1.2,1.84.97,2.76,1.46,2.75,2.08Z"/>
    <path class="cls-2" d="M548.13,110.23c-.01.57-1.07,1.08-3.17,2.07-2.69,1.27-3.09,1.15-3.3,1-.37-.27-.26-.72-.25-2.97.01-2.65-.12-3.1.26-3.38.6-.44,1.65.12,3.71,1.2,1.84.97,2.76,1.46,2.75,2.08Z"/>
    <path class="cls-2" d="M548.01,78.76c-.67-.24-.84-1.69-1.18-4.58-.42-3.7-.11-4.12.14-4.3.46-.33.96-.02,3.62.9,3.14,1.08,3.72,1.1,3.9,1.67.28.88-.8,1.91-2.91,3.91-1.89,1.79-2.84,2.68-3.57,2.41Z"/>
    <path class="cls-2" d="M511.32,107.92c-.01.57-1.07,1.08-3.17,2.07-2.69,1.27-3.09,1.15-3.3,1-.37-.27-.26-.72-.25-2.97.01-2.65-.12-3.1.26-3.38.6-.44,1.65.12,3.71,1.2,1.84.97,2.76,1.46,2.75,2.08Z"/>
    <path class="cls-2" d="M533.6,66.81c.55.02,1.03.94,1.96,2.78,1.19,2.35,1.06,2.7.91,2.87-.27.32-.71.22-2.9.19-2.59-.04-3.02.07-3.29-.26-.41-.52.15-1.43,1.24-3.21.98-1.59,1.48-2.38,2.08-2.36Z"/>
    <path class="cls-2" d="M513.76,83.68c.01-.37.71-.7,2.11-1.35,1.79-.82,2.05-.74,2.19-.64.24.18.17.48.15,1.97-.03,1.76.06,2.05-.19,2.23-.4.29-1.09-.09-2.45-.82-1.21-.65-1.82-.99-1.8-1.39Z"/>
    <path class="cls-2" d="M499,87.47c-.35-.14-.42-.91-.54-2.44-.16-1.96.01-2.18.15-2.27.25-.16.51,0,1.9.54,1.64.63,1.95.65,2.03.95.13.47-.46.99-1.61,2.02-1.03.91-1.55,1.37-1.93,1.21Z"/>
    <path class="cls-2" d="M536.01,58.73c-.35-.14-.42-.91-.54-2.44-.16-1.96.01-2.18.15-2.27.25-.16.51,0,1.9.54,1.64.63,1.95.65,2.03.95.13.47-.46.99-1.61,2.02-1.03.91-1.55,1.37-1.93,1.21Z"/>
    <path class="cls-4" d="M527.76,79.37c.52.12.8,1.18,1.33,3.3.69,2.71.5,3.06.32,3.22-.31.29-.72.11-2.78-.31-2.44-.49-2.88-.45-3.07-.85-.29-.63.41-1.5,1.78-3.2,1.23-1.52,1.85-2.28,2.41-2.15Z"/>
    <path class="cls-4" d="M518.3,72.63c-.49-.22-.55-1.31-.65-3.5-.13-2.8.12-3.1.33-3.22.36-.22.72.03,2.67.86,2.3.97,2.73,1.01,2.84,1.45.16.68-.7,1.39-2.38,2.78-1.5,1.25-2.27,1.86-2.8,1.63Z"/>
    <path class="cls-2" d="M556.22,44.33c-.71.02-1.4-1.27-2.77-3.84-1.74-3.29-1.61-3.8-1.43-4.06.31-.47.89-.37,3.69-.48,3.32-.13,3.86-.33,4.23.13.58.72-.05,2.07-1.29,4.7-1.1,2.35-1.67,3.53-2.44,3.55Z"/>
    <path class="cls-2" d="M546.47,13.95c-.49-.43-.17-1.75.51-4.36.86-3.34,1.27-3.6,1.56-3.68.51-.13.84.3,2.83,1.98,2.35,1.98,2.85,2.19,2.82,2.74-.05.86-1.33,1.38-3.82,2.41-2.23.92-3.35,1.37-3.89.9Z"/>
    <path class="cls-2" d="M539.49,21.08c.45-.18,1.21.48,2.71,1.8,1.92,1.7,1.96,2.06,1.91,2.27-.09.38-.48.46-2.26,1.21-2.1.89-2.41,1.15-2.76.94-.55-.32-.47-1.35-.31-3.34.14-1.78.22-2.68.71-2.88Z"/>
    <path class="cls-2" d="M544.27,30.96c.45.19.52,1.19.64,3.19.16,2.56-.07,2.84-.25,2.95-.33.21-.66-.02-2.45-.75-2.12-.86-2.52-.89-2.62-1.28-.16-.62.62-1.28,2.14-2.59,1.36-1.16,2.05-1.74,2.54-1.53Z"/>
    <path class="cls-2" d="M514.07,17.71c.11-.25.67-.29,1.8-.36,1.44-.09,1.6.04,1.67.14.12.19-.01.37-.42,1.38-.48,1.19-.5,1.42-.72,1.48-.35.09-.72-.35-1.46-1.21-.66-.77-.98-1.16-.86-1.43Z"/>
    <path class="cls-2" d="M574.08,38.04c-.36-.05-.6-.77-1.07-2.19-.59-1.82-.48-2.07-.37-2.19.2-.21.48-.11,1.92.08,1.7.23,1.99.17,2.14.44.23.42-.21,1.05-1.07,2.27-.77,1.1-1.16,1.65-1.55,1.59Z"/>
    <path class="cls-2" d="M583.22,55.53c.05.36-.57.79-1.8,1.65-1.58,1.09-1.85,1.05-1.99.98-.26-.13-.24-.43-.47-1.86-.27-1.69-.4-1.96-.19-2.18.33-.34,1.06-.1,2.49.38,1.27.42,1.91.64,1.96,1.04Z"/>
    <path class="cls-4" d="M558.6,22.5c-.35.35-1.31.03-3.23-.61-2.45-.82-2.63-1.14-2.67-1.36-.07-.39.27-.61,1.63-2.01,1.61-1.65,1.79-2.02,2.2-1.96.64.09.96,1.07,1.6,2.99.57,1.71.85,2.58.47,2.96Z"/>
    <path class="cls-2" d="M431.28,30.79c-.24-.17-.16-.76,0-1.95.21-1.52.38-1.65.5-1.7.22-.08.39.09,1.35.73,1.14.76,1.37.82,1.38,1.07.02.38-.52.68-1.56,1.26-.94.52-1.41.77-1.67.59Z"/>
    <path class="cls-2" d="M450.18,28.88c-.22.19-.78-.02-1.89-.46-1.43-.56-1.52-.76-1.53-.88-.03-.23.18-.35,1.02-1.14,1-.93,1.12-1.14,1.36-1.09.37.07.54.66.86,1.81.29,1.03.42,1.55.19,1.76Z"/>
    <path class="cls-2" d="M461.94,52.53c-.38-.07-.6-.82-1.04-2.33-.56-1.92-.44-2.18-.32-2.3.22-.22.51-.1,2,.15,1.76.29,2.07.25,2.22.53.23.44-.25,1.09-1.19,2.34-.84,1.12-1.26,1.68-1.67,1.61Z"/>
    <path class="cls-2" d="M468.74,10.67c.42.23.38,1.21.29,3.16-.11,2.5-.36,2.75-.55,2.84-.34.17-.64-.09-2.3-.98-1.96-1.05-2.35-1.13-2.41-1.52-.09-.61.74-1.18,2.35-2.28,1.44-.99,2.17-1.47,2.62-1.22Z"/>
    <path class="cls-2" d="M485.98,18c.04.54-.92,1.11-2.82,2.24-2.44,1.44-2.83,1.36-3.04,1.24-.37-.22-.31-.66-.5-2.79-.22-2.52-.39-2.93-.05-3.23.53-.47,1.58-.03,3.62.81,1.83.76,2.75,1.14,2.79,1.73Z"/>
    <path class="cls-2" d="M470.29,35.83c-.48-.25-.48-1.36-.47-3.57.02-2.84.29-3.13.5-3.24.38-.2.73.07,2.65,1.01,2.27,1.11,2.71,1.17,2.79,1.62.13.69-.78,1.37-2.56,2.69-1.59,1.18-2.4,1.76-2.92,1.5Z"/>
    <path class="cls-2" d="M336.49,30.97c-.32-.32-.03-1.2.56-2.95.75-2.24,1.04-2.4,1.24-2.43.35-.06.56.25,1.84,1.49,1.51,1.47,1.84,1.63,1.79,2.01-.08.58-.97.88-2.73,1.46-1.56.52-2.35.77-2.7.43Z"/>
    <path class="cls-2" d="M342.17,42.24c-.35.28-1.2-.1-2.87-.88-2.14-1-2.27-1.3-2.28-1.5-.02-.36.31-.53,1.68-1.66,1.63-1.34,1.83-1.65,2.19-1.55.57.14.77,1.07,1.15,2.87.34,1.61.51,2.43.12,2.73Z"/>
    <path class="cls-2" d="M356.47,46.47c.1.66-1.02,1.47-3.26,3.05-2.87,2.03-3.36,1.96-3.63,1.83-.48-.24-.45-.79-.89-3.4-.52-3.09-.77-3.58-.38-3.98.61-.63,1.94-.2,4.56.64,2.34.75,3.51,1.14,3.61,1.86Z"/>
    <path class="cls-4" d="M357.15,31.02c-.48.16-1.23-.58-2.7-2.07-1.88-1.9-1.89-2.28-1.83-2.49.12-.39.54-.44,2.44-1.1,2.25-.78,2.59-1.03,2.94-.79.55.38.39,1.43.09,3.5-.27,1.85-.42,2.77-.94,2.94Z"/>
    <path class="cls-2" d="M403.1,42.46c-.11.52-1.17.81-3.29,1.35-2.71.7-3.06.52-3.22.34-.29-.31-.12-.72.29-2.79.48-2.45.43-2.88.83-3.07.63-.3,1.5.4,3.22,1.76,1.53,1.22,2.29,1.84,2.17,2.4Z"/>
    <path class="cls-2" d="M386.28,33.47c.13.36-.41.95-1.49,2.1-1.38,1.48-1.67,1.5-1.83,1.45-.3-.08-.35-.39-.9-1.81-.65-1.68-.85-1.93-.68-2.2.27-.43,1.07-.34,2.64-.17,1.4.15,2.11.24,2.25.63Z"/>
    <path class="cls-2" d="M405.03,58.91c-.36.13-.95-.41-2.1-1.49-1.48-1.38-1.5-1.67-1.45-1.83.08-.3.39-.35,1.81-.9,1.68-.65,1.93-.85,2.2-.68.43.27.34,1.07.17,2.64-.15,1.4-.24,2.11-.63,2.25Z"/>
    <path class="cls-2" d="M406.75,69.75c-.34-.18-.33-.97-.29-2.55.04-2.02.24-2.23.4-2.31.27-.14.52.06,1.88.75,1.61.82,1.92.87,1.97,1.18.08.5-.57.97-1.86,1.89-1.15.82-1.73,1.23-2.1,1.04Z"/>
    <path class="cls-2" d="M415.61,61.81c-.55.2-1.43-.62-3.16-2.27-2.22-2.11-2.25-2.54-2.18-2.79.12-.45.6-.52,2.75-1.34,2.55-.97,2.93-1.27,3.34-1,.64.41.5,1.63.23,4-.25,2.12-.38,3.19-.98,3.4Z"/>
    <path class="cls-4" d="M413.1,41.62c-.15-.37.34-.98,1.33-2.18,1.27-1.54,1.55-1.56,1.72-1.52.3.08.37.4,1,1.87.75,1.73.96,1.98.81,2.27-.24.44-1.04.36-2.6.19-1.4-.15-2.1-.23-2.27-.63Z"/>
    <path class="cls-4" d="M454.71,101.67c-.15-.37.34-.98,1.33-2.18,1.27-1.54,1.55-1.56,1.72-1.52.3.08.37.4,1,1.87.75,1.73.96,1.98.81,2.27-.24.44-1.04.36-2.6.19-1.4-.15-2.1-.23-2.27-.63Z"/>
    <path class="cls-4" d="M418.04,66.48c.52.12.8,1.18,1.33,3.3.69,2.71.5,3.06.32,3.22-.31.29-.72.11-2.78-.31-2.44-.49-2.88-.45-3.07-.85-.29-.63.41-1.5,1.78-3.2,1.23-1.52,1.85-2.28,2.41-2.15Z"/>
    <path class="cls-2" d="M458.05,90.64c-.01.57-1.07,1.08-3.17,2.07-2.69,1.27-3.09,1.15-3.3,1-.37-.27-.26-.72-.25-2.97.01-2.65-.12-3.1.26-3.38.6-.44,1.65.12,3.71,1.2,1.84.97,2.76,1.46,2.75,2.08Z"/>
    <path class="cls-2" d="M445.27,102.57c-.35-.14-.42-.91-.54-2.44-.16-1.96.01-2.18.15-2.27.25-.16.51,0,1.9.54,1.64.63,1.95.65,2.03.95.13.47-.46.99-1.61,2.02-1.03.91-1.55,1.37-1.93,1.21Z"/>
    <path class="cls-2" d="M554.37,209.03c.69.05,1.26,1.37,2.36,4.01,1.41,3.38,1.23,3.86,1.03,4.1-.35.43-.9.28-3.66.14-3.26-.17-3.81-.03-4.13-.51-.5-.76.24-2.02,1.69-4.49,1.29-2.2,1.96-3.3,2.71-3.25Z"/>
    <path class="cls-2" d="M559.89,200.54c.3.02.55.6,1.03,1.75.62,1.48.54,1.69.45,1.8-.15.19-.4.12-1.6.06-1.43-.07-1.67-.01-1.81-.22-.22-.33.1-.88.74-1.96.57-.96.86-1.45,1.19-1.42Z"/>
    <path class="cls-2" d="M566.23,217.42c-.45-.03-.82-.89-1.53-2.61-.91-2.2-.8-2.51-.67-2.67.23-.28.59-.18,2.38-.09,2.12.11,2.48.02,2.69.33.33.49-.16,1.31-1.1,2.92-.84,1.43-1.27,2.15-1.76,2.11Z"/>
    <path class="cls-2" d="M572.52,226.12c.03-.36.71-.65,2.07-1.22,1.75-.73,2-.64,2.12-.54.23.18.15.47.07,1.89-.09,1.69-.01,1.97-.27,2.14-.39.26-1.05-.12-2.32-.87-1.14-.67-1.71-1.01-1.68-1.4Z"/>
    <path class="cls-2" d="M577.45,207.89c.24.27-.02.94-.55,2.26-.67,1.69-.91,1.8-1.06,1.81-.28.02-.43-.23-1.38-1.29-1.12-1.25-1.38-1.4-1.32-1.69.08-.45.8-.62,2.19-.95,1.24-.3,1.87-.44,2.13-.15Z"/>
    <path class="cls-2" d="M575.7,193.2c.02-.3.6-.55,1.75-1.03,1.48-.62,1.69-.54,1.8-.45.19.15.12.4.06,1.6-.07,1.43-.01,1.67-.22,1.81-.33.22-.88-.1-1.96-.74-.96-.57-1.45-.86-1.42-1.19Z"/>
    <path class="cls-4" d="M547.37,206.86c-.53-.12-.81-1.2-1.36-3.35-.7-2.76-.51-3.11-.33-3.27.32-.29.73-.11,2.83.31,2.49.5,2.93.46,3.12.87.3.64-.41,1.53-1.81,3.26-1.25,1.55-1.88,2.32-2.46,2.19Z"/>
    <path class="cls-4" d="M536.13,212.33c-.19-.31.18-.95.94-2.23.98-1.64,1.23-1.71,1.4-1.71.29.01.4.29,1.19,1.49.94,1.42,1.17,1.6,1.07,1.89-.16.45-.92.53-2.4.69-1.32.14-1.99.21-2.2-.13Z"/>
    <path class="cls-4" d="M557.7,235.5c-.45-.02-.83-.86-1.58-2.53-.96-2.14-.86-2.45-.74-2.61.22-.29.58-.2,2.34-.16,2.09.05,2.44-.05,2.66.25.34.48-.12,1.3-1,2.91-.79,1.44-1.19,2.15-1.68,2.13Z"/>
    <path class="cls-2" d="M551.35,176.71c.42.03.76.82,1.42,2.41.85,2.03.74,2.32.62,2.47-.21.26-.54.17-2.2.08-1.96-.1-2.29-.02-2.49-.31-.3-.46.14-1.22,1.01-2.7.78-1.33,1.18-1.99,1.63-1.95Z"/>
    <path class="cls-2" d="M538.19,180.87c-.54-.07-.91-1.12-1.64-3.22-.93-2.68-.77-3.05-.61-3.23.29-.32.71-.18,2.84.06,2.52.28,2.95.2,3.18.59.35.61-.28,1.56-1.52,3.4-1.11,1.65-1.67,2.47-2.25,2.39Z"/>
    <path class="cls-2" d="M543.91,164.25c-.11-.31.34-.81,1.26-1.79,1.18-1.26,1.42-1.28,1.56-1.24.25.07.3.33.77,1.54.56,1.43.73,1.64.58,1.88-.23.36-.91.29-2.26.15-1.2-.13-1.8-.2-1.92-.53Z"/>
    <path class="cls-2" d="M528.98,168.48c-.32-.08-.47-.74-.76-2.06-.37-1.68-.25-1.89-.14-1.99.2-.17.44-.06,1.71.24,1.5.35,1.77.33,1.88.58.17.39-.28.92-1.15,1.94-.78.92-1.18,1.37-1.53,1.28Z"/>
    <path class="cls-2" d="M558.32,143.93c.66-.09,1.45,1.03,3,3.27,1.99,2.87,1.92,3.35,1.78,3.62-.24.48-.79.44-3.38.86-3.07.49-3.56.73-3.95.35-.62-.61-.18-1.93.68-4.52.77-2.31,1.16-3.47,1.88-3.57Z"/>
    <path class="cls-2" d="M529.84,146.97c-.11-.31.34-.81,1.26-1.79,1.18-1.26,1.42-1.28,1.56-1.24.25.07.3.33.77,1.54.56,1.43.73,1.64.58,1.88-.23.36-.91.29-2.26.15-1.2-.13-1.8-.2-1.92-.53Z"/>
    <path class="cls-2" d="M501.26,150.99c-.4-.12-.56-.95-.86-2.62-.39-2.14-.23-2.39-.08-2.51.26-.21.56-.05,2.14.38,1.87.51,2.21.5,2.33.82.2.5-.39,1.14-1.54,2.39-1.03,1.11-1.55,1.67-1.98,1.54Z"/>
    <path class="cls-4" d="M555.71,163.9c.29-.4,1.22-.29,3.08-.04,2.37.31,2.57.59,2.63.79.1.36-.19.64-1.31,2.25-1.33,1.9-1.46,2.29-1.85,2.31-.6.04-1.01-.84-1.8-2.56-.71-1.54-1.06-2.31-.74-2.75Z"/>
    <path class="cls-4" d="M543.87,139.9c.38-.1.9.45,1.92,1.54,1.31,1.4,1.29,1.67,1.22,1.83-.12.28-.45.3-1.96.72-1.79.5-2.07.66-2.32.48-.39-.28-.2-1.03.19-2.5.35-1.31.53-1.97.95-2.08Z"/>
    <path class="cls-2" d="M526.33,249.86c-.37.27-1.2-.15-2.85-1-2.12-1.08-2.23-1.4-2.24-1.6,0-.36.33-.52,1.76-1.61,1.69-1.28,1.9-1.59,2.27-1.48.57.17.73,1.1,1.05,2.93.28,1.64.42,2.46.02,2.75Z"/>
    <path class="cls-2" d="M506.63,228.96c-.29.22-.97-.12-2.3-.8-1.71-.87-1.8-1.13-1.8-1.29,0-.29.27-.42,1.42-1.29,1.36-1.04,1.53-1.28,1.83-1.19.46.13.59.89.85,2.37.23,1.32.34,1.98.02,2.22Z"/>
    <path class="cls-4" d="M495.38,206.81c.36.05.61.75,1.11,2.15.63,1.8.53,2.04.42,2.16-.19.22-.48.12-1.91-.03-1.69-.18-1.98-.12-2.13-.39-.24-.41.18-1.04,1.01-2.28.74-1.11,1.11-1.66,1.5-1.61Z"/>
    <path class="cls-2" d="M472.02,219.47c-.39-.26-.27-1.21-.03-3.1.31-2.42.58-2.64.77-2.72.35-.13.62.14,2.16,1.14,1.83,1.19,2.19,1.29,2.22,1.68.04.61-.81,1.09-2.47,2.03-1.48.84-2.23,1.26-2.65.97Z"/>
    <path class="cls-2" d="M457.95,229.07c.3-.19.94.19,2.19.95,1.61.97,1.68,1.23,1.67,1.39-.01.29-.29.39-1.48,1.17-1.4.92-1.59,1.14-1.87,1.04-.44-.16-.51-.91-.66-2.37-.13-1.31-.19-1.96.14-2.17Z"/>
    <path class="cls-2" d="M437.38,223.68c.39.24.3,1.18.12,3.05-.24,2.39-.49,2.61-.68,2.69-.34.14-.61-.12-2.16-1.06-1.83-1.11-2.19-1.2-2.23-1.58-.05-.59.77-1.09,2.37-2.07,1.43-.87,2.16-1.3,2.58-1.04Z"/>
    <path class="cls-2" d="M429.17,213.81c.29-.36,1.21-.17,3.04.22,2.35.5,2.54.78,2.6.97.1.35-.18.59-1.29,2.03-1.31,1.7-1.44,2.05-1.82,2.04-.6-.01-1-.88-1.79-2.58-.71-1.52-1.05-2.29-.74-2.68Z"/>
    <path class="cls-2" d="M477.17,161.54c.24.17.16.77,0,1.98-.22,1.54-.39,1.68-.51,1.73-.22.08-.39-.09-1.37-.74-1.16-.77-1.39-.84-1.4-1.08-.02-.39.53-.69,1.59-1.28.95-.53,1.43-.79,1.7-.6Z"/>
    <path class="cls-2" d="M457.96,163.48c.22-.2.79.02,1.92.47,1.45.57,1.54.77,1.56.9.03.24-.18.36-1.04,1.16-1.02.95-1.14,1.16-1.38,1.11-.38-.07-.55-.67-.87-1.85-.29-1.05-.43-1.58-.19-1.79Z"/>
    <path class="cls-2" d="M445.99,139.43c.38.07.61.84,1.06,2.37.57,1.96.44,2.21.32,2.34-.22.22-.52.1-2.04-.15-1.79-.29-2.11-.25-2.26-.54-.23-.45.26-1.1,1.21-2.38.85-1.14,1.29-1.71,1.7-1.63Z"/>
    <path class="cls-2" d="M439.08,182.01c-.42-.24-.39-1.23-.3-3.22.11-2.54.37-2.79.56-2.89.35-.17.65.09,2.34,1,2,1.07,2.39,1.14,2.45,1.55.09.63-.75,1.2-2.39,2.32-1.47,1-2.21,1.5-2.67,1.24Z"/>
    <path class="cls-2" d="M421.54,174.56c-.04-.55.93-1.13,2.87-2.28,2.48-1.47,2.88-1.38,3.09-1.26.38.22.32.68.51,2.84.22,2.56.4,2.98.05,3.28-.54.48-1.6.04-3.69-.82-1.86-.77-2.79-1.16-2.83-1.76Z"/>
    <path class="cls-2" d="M437.5,156.42c.49.25.49,1.38.48,3.63-.02,2.88-.3,3.18-.51,3.3-.39.21-.74-.07-2.7-1.03-2.31-1.13-2.76-1.19-2.84-1.65-.13-.7.8-1.39,2.61-2.74,1.62-1.2,2.44-1.79,2.97-1.52Z"/>
    <path class="cls-2" d="M414.04,212.87c-.25-.63.68-1.69,2.54-3.77,2.39-2.66,2.89-2.71,3.18-2.64.53.12.63.68,1.66,3.17,1.22,2.94,1.58,3.37,1.29,3.86-.46.76-1.88.64-4.67.4-2.49-.21-3.74-.33-4.01-1.02Z"/>
    <path class="cls-4" d="M416.89,228.34c.44-.27,1.35.3,3.14,1.43,2.3,1.46,2.39,1.83,2.38,2.06-.03.41-.43.56-2.17,1.64-2.06,1.28-2.33,1.61-2.73,1.45-.63-.25-.72-1.33-.89-3.45-.15-1.89-.22-2.84.26-3.13Z"/>
    <path class="cls-2" d="M368.73,227.48c0-.54.98-1.07,2.95-2.09,2.53-1.31,2.91-1.21,3.11-1.07.36.24.28.68.35,2.83.08,2.54.23,2.95-.12,3.24-.55.44-1.58-.05-3.59-1.01-1.79-.86-2.69-1.3-2.7-1.89Z"/>
    <path class="cls-2" d="M387.45,232.55c-.21-.33.19-1.03,1-2.42,1.04-1.78,1.31-1.86,1.49-1.86.31,0,.43.31,1.3,1.59,1.03,1.52,1.28,1.72,1.17,2.03-.17.48-.99.58-2.58.77-1.43.17-2.14.25-2.38-.11Z"/>
    <path class="cls-2" d="M363.06,211.61c.33-.21,1.03.19,2.42,1,1.78,1.04,1.86,1.31,1.86,1.49,0,.31-.31.43-1.59,1.3-1.52,1.03-1.72,1.28-2.03,1.17-.48-.17-.58-.99-.77-2.58-.17-1.43-.25-2.14.11-2.38Z"/>
    <path class="cls-2" d="M358.89,201.26c.38.1.55.89.87,2.46.42,2.02.27,2.26.13,2.38-.24.2-.53.06-2.03-.31-1.78-.44-2.1-.42-2.23-.72-.2-.47.35-1.09,1.41-2.3.95-1.08,1.43-1.62,1.84-1.51Z"/>
    <path class="cls-2" d="M351.92,211.15c.5-.32,1.56.29,3.65,1.53,2.68,1.59,2.81,2.01,2.8,2.27-.02.47-.47.65-2.42,1.96-2.31,1.54-2.61,1.92-3.08,1.76-.73-.26-.87-1.5-1.14-3.92-.24-2.16-.35-3.25.19-3.6Z"/>
    <path class="cls-4" d="M359.01,230.6c.24.33-.11,1.05-.82,2.46-.91,1.81-1.18,1.9-1.36,1.89-.31,0-.46-.31-1.42-1.62-1.14-1.54-1.41-1.75-1.32-2.06.13-.49.95-.59,2.53-.79,1.42-.17,2.13-.25,2.39.11Z"/>
    <path class="cls-4" d="M356.7,162.62c.39-.12.96.45,2.06,1.58,1.42,1.45,1.41,1.73,1.35,1.9-.11.29-.45.33-1.99.82-1.83.58-2.11.76-2.38.58-.42-.29-.25-1.09.08-2.65.3-1.4.45-2.1.88-2.22Z"/>
    <path class="cls-2" d="M355.94,144.33c.54-.33,1.65.36,3.84,1.73,2.8,1.76,2.92,2.21,2.91,2.49-.03.5-.52.68-2.63,2.01-2.5,1.57-2.83,1.97-3.32,1.78-.77-.3-.88-1.62-1.09-4.2-.19-2.3-.28-3.46.31-3.82Z"/>
    <path class="cls-4" d="M338.41,144.53c-.45-.34-.34-1.32-.09-3.29.31-2.51.61-2.7.83-2.75.4-.09.71.24,2.5,1.55,2.12,1.54,2.54,1.71,2.58,2.12.06.65-.91,1.02-2.79,1.75-1.68.65-2.53.97-3.02.61Z"/>
    <path class="cls-2" d="M331.43,143.38c.38.1.55.89.87,2.46.42,2.02.27,2.26.13,2.38-.24.2-.53.06-2.03-.31-1.78-.44-2.1-.42-2.23-.72-.2-.47.35-1.09,1.41-2.3.95-1.08,1.43-1.62,1.84-1.51Z"/>
    <path class="cls-2" d="M297.99,148.18c-.03-.39.66-.81,2.04-1.64,1.76-1.06,2.05-1,2.2-.91.27.16.23.48.38,2.02.17,1.83.3,2.12.05,2.34-.38.34-1.14.03-2.63-.57-1.33-.54-2-.82-2.03-1.24Z"/>
    <path class="cls-2" d="M325.94,163.37c.3-.25,1.04.05,2.53.67,1.9.8,2.02,1.06,2.04,1.23.03.31-.25.47-1.41,1.5-1.37,1.22-1.54,1.49-1.86,1.43-.5-.1-.7-.9-1.1-2.46-.35-1.39-.52-2.09-.2-2.37Z"/>
    <path class="cls-2" d="M287.64,165.94c.38.43-.04,1.53-.89,3.73-1.1,2.81-1.48,3-1.73,3.03-.46.06-.7-.35-2.25-2.01-1.84-1.96-2.25-2.2-2.16-2.67.14-.74,1.3-1.06,3.57-1.7,2.03-.57,3.05-.84,3.47-.38Z"/>
    <path class="cls-2" d="M246.25,138.31c.38.43-.04,1.53-.89,3.73-1.1,2.81-1.48,3-1.73,3.03-.46.06-.7-.35-2.25-2.01-1.84-1.96-2.25-2.2-2.16-2.67.14-.74,1.3-1.06,3.57-1.7,2.03-.57,3.05-.84,3.47-.38Z"/>
    <path class="cls-2" d="M267.04,180.41c.69.05,1.26,1.37,2.36,4.01,1.41,3.38,1.23,3.86,1.03,4.1-.35.43-.9.28-3.66.14-3.26-.17-3.81-.03-4.13-.51-.5-.76.24-2.02,1.69-4.49,1.29-2.2,1.96-3.3,2.71-3.25Z"/>
    <path class="cls-2" d="M272.55,171.92c.3.02.55.6,1.03,1.75.62,1.48.54,1.69.45,1.8-.15.19-.4.12-1.6.06-1.43-.07-1.67-.01-1.81-.22-.22-.33.1-.88.74-1.96.57-.96.86-1.45,1.19-1.42Z"/>
    <path class="cls-2" d="M278.89,188.8c-.45-.03-.82-.89-1.53-2.61-.91-2.2-.8-2.51-.67-2.67.23-.28.59-.18,2.38-.09,2.12.11,2.48.02,2.69.33.33.49-.16,1.31-1.1,2.92-.84,1.43-1.27,2.15-1.76,2.11Z"/>
    <path class="cls-2" d="M285.18,197.49c.03-.36.71-.65,2.07-1.22,1.75-.73,2-.64,2.12-.54.23.18.15.47.07,1.89-.09,1.69-.01,1.97-.27,2.14-.39.26-1.05-.12-2.32-.87-1.14-.67-1.71-1.01-1.68-1.4Z"/>
    <path class="cls-2" d="M290.12,179.27c.24.27-.02.94-.55,2.26-.67,1.69-.91,1.8-1.06,1.81-.28.02-.43-.23-1.38-1.29-1.12-1.25-1.38-1.4-1.32-1.69.08-.45.8-.62,2.19-.95,1.24-.3,1.87-.44,2.13-.15Z"/>
    <path class="cls-4" d="M260.03,178.24c-.53-.12-.81-1.2-1.36-3.35-.7-2.76-.51-3.11-.33-3.27.32-.29.73-.11,2.83.31,2.49.5,2.93.46,3.12.87.3.64-.41,1.53-1.81,3.26-1.25,1.55-1.88,2.32-2.46,2.19Z"/>
    <path class="cls-4" d="M248.79,183.71c-.19-.31.18-.95.94-2.23.98-1.64,1.23-1.71,1.4-1.71.29.01.4.29,1.19,1.49.94,1.42,1.17,1.6,1.07,1.89-.16.45-.92.53-2.4.69-1.32.14-1.99.21-2.2-.13Z"/>
    <path class="cls-4" d="M270.36,206.88c-.45-.02-.83-.86-1.58-2.53-.96-2.14-.86-2.45-.74-2.61.22-.29.58-.2,2.34-.16,2.09.05,2.44-.05,2.66.25.34.48-.12,1.3-1,2.91-.79,1.44-1.19,2.15-1.68,2.13Z"/>
    <path class="cls-2" d="M299.46,243.34c-.11-.31.34-.81,1.26-1.79,1.18-1.26,1.42-1.28,1.56-1.24.25.07.3.33.77,1.54.56,1.43.73,1.64.58,1.88-.23.36-.91.29-2.26.15-1.2-.13-1.8-.2-1.92-.53Z"/>
    <path class="cls-2" d="M284.53,247.57c-.32-.08-.47-.74-.76-2.06-.37-1.68-.25-1.89-.14-1.99.2-.17.44-.06,1.71.24,1.5.35,1.77.33,1.88.58.17.39-.28.92-1.15,1.94-.78.92-1.18,1.37-1.53,1.28Z"/>
    <path class="cls-2" d="M313.88,223.01c.66-.09,1.45,1.03,3,3.27,1.99,2.87,1.92,3.35,1.78,3.62-.24.48-.79.44-3.38.86-3.07.49-3.56.73-3.95.35-.62-.61-.18-1.93.68-4.52.77-2.31,1.16-3.47,1.88-3.57Z"/>
    <path class="cls-2" d="M285.4,226.05c-.11-.31.34-.81,1.26-1.79,1.18-1.26,1.42-1.28,1.56-1.24.25.07.3.33.77,1.54.56,1.43.73,1.64.58,1.88-.23.36-.91.29-2.26.15-1.2-.13-1.8-.2-1.92-.53Z"/>
    <path class="cls-4" d="M311.26,242.99c.29-.4,1.22-.29,3.08-.04,2.37.31,2.57.59,2.63.79.1.36-.19.64-1.31,2.25-1.33,1.9-1.46,2.29-1.85,2.31-.6.04-1.01-.84-1.8-2.56-.71-1.54-1.06-2.31-.74-2.75Z"/>
    <path class="cls-4" d="M299.42,218.99c.38-.1.9.45,1.92,1.54,1.31,1.4,1.29,1.67,1.22,1.83-.12.28-.45.3-1.96.72-1.79.5-2.07.66-2.32.48-.39-.28-.2-1.03.19-2.5.35-1.31.53-1.97.95-2.08Z"/>
    <path class="cls-2" d="M230.38,164.85c-.15-.41.45-1.07,1.67-2.37,1.56-1.67,1.88-1.69,2.06-1.64.34.09.39.44,1.02,2.04.74,1.89.96,2.17.77,2.48-.3.48-1.21.38-2.98.19-1.58-.17-2.38-.26-2.54-.71Z"/>
    <path class="cls-2" d="M211.07,141.51c-.43.02-.89-.75-1.77-2.29-1.13-1.98-1.06-2.29-.96-2.46.18-.3.54-.25,2.25-.37,2.03-.15,2.36-.28,2.6,0,.37.43,0,1.27-.69,2.91-.63,1.46-.95,2.2-1.42,2.22Z"/>
    <path class="cls-2" d="M185.49,140.74c.3.31.01,1.16-.58,2.84-.75,2.15-1.04,2.3-1.23,2.33-.34.06-.54-.25-1.75-1.46-1.44-1.44-1.76-1.6-1.7-1.96.08-.56.95-.84,2.65-1.38,1.52-.48,2.28-.72,2.61-.38Z"/>
    <path class="cls-2" d="M43.65,140.74c.3.31.01,1.16-.58,2.84-.75,2.15-1.04,2.3-1.23,2.33-.34.06-.54-.25-1.75-1.46-1.44-1.44-1.76-1.6-1.7-1.96.08-.56.95-.84,2.65-1.38,1.52-.48,2.28-.72,2.61-.38Z"/>
    <path class="cls-2" d="M6.74,136.28c.29-.33,1.15-.11,2.88.35,2.21.58,2.38.85,2.42,1.04.08.34-.2.56-1.32,1.86-1.32,1.55-1.46,1.88-1.82,1.85-.57-.04-.91-.88-1.58-2.53-.6-1.47-.9-2.22-.58-2.57Z"/>
    <path class="cls-2" d="M26.62,162.59c.01-.58,1.08-1.09,3.22-2.11,2.74-1.3,3.15-1.17,3.35-1.02.37.27.27.74.26,3.02-.01,2.7.13,3.15-.26,3.44-.61.44-1.68-.12-3.78-1.22-1.87-.98-2.81-1.49-2.79-2.12Z"/>
    <path class="cls-2" d="M23.34,140.76c.01-.58,1.08-1.09,3.22-2.11,2.74-1.3,3.15-1.17,3.35-1.02.37.27.27.74.26,3.02-.01,2.7.13,3.15-.26,3.44-.61.44-1.68-.12-3.78-1.22-1.87-.98-2.81-1.49-2.79-2.12Z"/>
    <path class="cls-2" d="M23.47,172.77c.68.25.86,1.72,1.2,4.66.43,3.76.12,4.19-.15,4.38-.47.33-.98.02-3.68-.91-3.19-1.1-3.78-1.12-3.96-1.69-.28-.9.82-1.94,2.96-3.98,1.92-1.82,2.89-2.72,3.63-2.45Z"/>
    <path class="cls-2" d="M60.79,143.11c.01-.58,1.08-1.09,3.22-2.11,2.74-1.3,3.15-1.17,3.35-1.02.37.27.27.74.26,3.02-.01,2.7.13,3.15-.26,3.44-.61.44-1.68-.12-3.78-1.22-1.87-.98-2.81-1.49-2.79-2.12Z"/>
    <path class="cls-2" d="M38.13,184.93c-.56-.02-1.05-.95-1.99-2.82-1.21-2.39-1.08-2.75-.92-2.92.27-.32.72-.23,2.95-.19,2.63.04,3.08-.07,3.35.27.42.53-.15,1.46-1.26,3.27-1,1.61-1.51,2.42-2.12,2.4Z"/>
    <path class="cls-2" d="M58.31,167.77c-.01.38-.72.72-2.15,1.37-1.82.84-2.09.75-2.22.65-.25-.18-.17-.49-.15-2,.03-1.79-.06-2.09.2-2.27.4-.29,1.11.09,2.49.83,1.23.66,1.85,1,1.83,1.42Z"/>
    <path class="cls-2" d="M73.32,163.91c.35.14.42.93.55,2.49.16,2-.01,2.22-.15,2.31-.26.17-.52,0-1.93-.55-1.67-.64-1.98-.66-2.07-.96-.13-.48.47-1.01,1.64-2.05,1.05-.93,1.58-1.39,1.96-1.23Z"/>
    <path class="cls-2" d="M35.67,193.15c.35.14.42.93.55,2.49.16,2-.01,2.22-.15,2.31-.26.17-.52,0-1.93-.55-1.67-.64-1.98-.66-2.07-.96-.13-.48.47-1.01,1.64-2.05,1.05-.93,1.58-1.39,1.96-1.23Z"/>
    <path class="cls-4" d="M44.06,172.15c-.53-.12-.81-1.2-1.36-3.35-.7-2.76-.51-3.11-.33-3.27.32-.29.73-.11,2.83.31,2.49.5,2.93.46,3.12.87.3.64-.41,1.53-1.81,3.26-1.25,1.55-1.88,2.32-2.46,2.19Z"/>
    <path class="cls-4" d="M53.68,179c.49.22.56,1.34.66,3.56.13,2.84-.13,3.15-.33,3.27-.37.23-.74-.03-2.71-.87-2.34-.99-2.78-1.03-2.88-1.47-.17-.69.71-1.41,2.42-2.83,1.53-1.27,2.31-1.9,2.84-1.66Z"/>
    <path class="cls-2" d="M15.12,207.79c.72-.02,1.43,1.29,2.81,3.9,1.77,3.35,1.64,3.86,1.46,4.13-.32.48-.91.38-3.76.49-3.37.14-3.93.34-4.31-.13-.59-.73.05-2.11,1.31-4.78,1.12-2.39,1.7-3.59,2.48-3.61Z"/>
    <path class="cls-2" d="M25.03,238.69c.5.44.17,1.78-.52,4.43-.88,3.4-1.3,3.67-1.58,3.74-.52.13-.86-.31-2.88-2.01-2.39-2.02-2.9-2.23-2.86-2.79.05-.87,1.35-1.41,3.89-2.46,2.27-.94,3.41-1.39,3.96-.92Z"/>
    <path class="cls-2" d="M32.14,231.44c-.46.19-1.23-.49-2.76-1.83-1.96-1.73-1.99-2.09-1.94-2.31.09-.39.49-.46,2.3-1.23,2.14-.91,2.45-1.17,2.81-.96.56.33.48,1.37.32,3.4-.14,1.82-.22,2.73-.72,2.93Z"/>
    <path class="cls-2" d="M27.27,221.39c-.46-.19-.53-1.22-.66-3.25-.16-2.6.07-2.89.26-3,.34-.21.68.02,2.5.76,2.15.87,2.56.9,2.66,1.31.16.63-.63,1.31-2.18,2.63-1.38,1.18-2.09,1.77-2.58,1.56Z"/>
    <path class="cls-2" d="M57.99,234.86c-.11.26-.69.3-1.83.37-1.47.09-1.63-.04-1.69-.15-.12-.19.01-.38.43-1.41.49-1.22.51-1.44.74-1.5.35-.09.74.36,1.48,1.23.67.78,1,1.18.88,1.46Z"/>
    <path class="cls-4" d="M12.7,229.99c.36-.35,1.34-.03,3.29.62,2.49.84,2.67,1.16,2.71,1.38.07.4-.28.62-1.66,2.05-1.63,1.68-1.82,2.05-2.23,1.99-.65-.09-.98-1.09-1.63-3.04-.58-1.74-.86-2.62-.48-3.01Z"/>
    <path class="cls-2" d="M142.19,221.56c.24.17.16.77,0,1.98-.22,1.54-.39,1.68-.51,1.73-.22.08-.39-.09-1.37-.74-1.16-.77-1.39-.84-1.4-1.08-.02-.39.53-.69,1.59-1.28.95-.53,1.43-.79,1.7-.6Z"/>
    <path class="cls-2" d="M122.98,223.5c.22-.2.79.02,1.92.47,1.45.57,1.54.77,1.56.9.03.24-.18.36-1.04,1.16-1.02.95-1.14,1.16-1.38,1.11-.38-.07-.55-.67-.87-1.85-.29-1.05-.43-1.58-.19-1.79Z"/>
    <path class="cls-2" d="M111.01,199.45c.38.07.61.84,1.06,2.37.57,1.96.44,2.21.32,2.34-.22.22-.52.1-2.04-.15-1.79-.29-2.11-.25-2.26-.54-.23-.45.26-1.1,1.21-2.38.85-1.14,1.29-1.71,1.7-1.63Z"/>
    <path class="cls-2" d="M104.1,242.02c-.42-.24-.39-1.23-.3-3.22.11-2.54.37-2.79.56-2.89.35-.17.65.09,2.34,1,2,1.07,2.39,1.14,2.45,1.55.09.63-.75,1.2-2.39,2.32-1.47,1-2.21,1.5-2.67,1.24Z"/>
    <path class="cls-2" d="M86.56,234.57c-.04-.55.93-1.13,2.87-2.28,2.48-1.47,2.88-1.38,3.09-1.26.38.22.32.68.51,2.84.22,2.56.4,2.98.05,3.28-.54.48-1.6.04-3.69-.82-1.86-.77-2.79-1.16-2.83-1.76Z"/>
    <path class="cls-2" d="M102.52,216.43c.49.25.49,1.38.48,3.63-.02,2.88-.3,3.18-.51,3.3-.39.21-.74-.07-2.7-1.03-2.31-1.13-2.76-1.19-2.84-1.65-.13-.7.8-1.39,2.61-2.74,1.62-1.2,2.44-1.79,2.97-1.52Z"/>
    <path class="cls-2" d="M238.61,221.38c.32.32.03,1.22-.57,3-.77,2.28-1.06,2.44-1.26,2.47-.36.06-.57-.25-1.87-1.51-1.53-1.49-1.87-1.66-1.82-2.04.08-.59.99-.89,2.77-1.49,1.59-.53,2.39-.79,2.74-.43Z"/>
    <path class="cls-2" d="M232.83,209.92c.36-.28,1.22.11,2.92.9,2.18,1.01,2.3,1.33,2.32,1.53.02.37-.31.54-1.71,1.69-1.65,1.36-1.86,1.67-2.23,1.58-.58-.15-.78-1.09-1.17-2.92-.35-1.64-.51-2.47-.13-2.78Z"/>
    <path class="cls-2" d="M218.29,205.62c-.1-.67,1.04-1.49,3.32-3.1,2.92-2.06,3.42-1.99,3.69-1.86.49.24.46.8.91,3.46.53,3.14.78,3.64.39,4.05-.62.64-1.98.2-4.64-.65-2.38-.77-3.57-1.16-3.68-1.89Z"/>
    <path class="cls-4" d="M217.6,221.32c.49-.16,1.25.59,2.74,2.1,1.91,1.93,1.92,2.32,1.86,2.54-.12.4-.54.45-2.48,1.12-2.29.79-2.63,1.04-2.99.8-.56-.38-.4-1.46-.09-3.56.28-1.88.43-2.82.96-2.99Z"/>
    <path class="cls-2" d="M170.86,209.69c.11-.53,1.19-.82,3.34-1.38,2.76-.71,3.11-.52,3.27-.35.3.32.12.73-.29,2.83-.49,2.49-.44,2.93-.85,3.13-.64.3-1.53-.4-3.27-1.79-1.56-1.24-2.33-1.87-2.21-2.44Z"/>
    <path class="cls-2" d="M187.97,218.83c-.13-.37.41-.96,1.51-2.13,1.41-1.5,1.7-1.52,1.87-1.48.3.08.35.4.91,1.84.66,1.71.86,1.96.69,2.24-.27.43-1.09.34-2.69.17-1.43-.16-2.15-.24-2.29-.64Z"/>
    <path class="cls-2" d="M168.89,192.96c.37-.13.96.41,2.13,1.51,1.5,1.41,1.52,1.7,1.48,1.87-.08.3-.4.35-1.84.91-1.71.66-1.96.86-2.24.69-.43-.27-.34-1.09-.17-2.69.16-1.43.24-2.15.64-2.29Z"/>
    <path class="cls-2" d="M167.14,181.94c.35.18.34.99.3,2.6-.05,2.06-.25,2.27-.4,2.35-.28.14-.53-.06-1.91-.76-1.64-.83-1.95-.88-2.01-1.2-.09-.5.58-.98,1.89-1.92,1.17-.84,1.76-1.25,2.13-1.05Z"/>
    <path class="cls-2" d="M158.13,190.01c.56-.2,1.45.63,3.21,2.31,2.26,2.15,2.29,2.58,2.22,2.84-.12.46-.61.53-2.8,1.37-2.6.99-2.98,1.29-3.39,1.02-.65-.42-.51-1.66-.23-4.07.25-2.16.39-3.25.99-3.46Z"/>
    <path class="cls-4" d="M160.68,210.55c.16.38-.34,1-1.35,2.22-1.29,1.56-1.58,1.59-1.75,1.54-.3-.08-.37-.41-1.02-1.9-.77-1.76-.98-2.02-.83-2.31.24-.45,1.06-.36,2.64-.2,1.42.15,2.13.23,2.3.64Z"/>
    <path class="cls-4" d="M118.37,149.47c.16.38-.34,1-1.35,2.22-1.29,1.56-1.58,1.59-1.75,1.54-.3-.08-.37-.41-1.02-1.9-.77-1.76-.98-2.02-.83-2.31.24-.45,1.06-.36,2.64-.2,1.42.15,2.13.23,2.3.64Z"/>
    <path class="cls-4" d="M155.67,185.27c-.53-.12-.81-1.2-1.36-3.35-.7-2.76-.51-3.11-.33-3.27.32-.29.73-.11,2.83.31,2.49.5,2.93.46,3.12.87.3.64-.41,1.53-1.81,3.26-1.25,1.55-1.88,2.32-2.46,2.19Z"/>
    <path class="cls-2" d="M114.97,160.69c.01-.58,1.08-1.09,3.22-2.11,2.74-1.3,3.15-1.17,3.35-1.02.37.27.27.74.26,3.02-.01,2.7.13,3.15-.26,3.44-.61.44-1.68-.12-3.78-1.22-1.87-.98-2.81-1.49-2.79-2.12Z"/>
    <path class="cls-2" d="M127.97,148.55c.35.14.42.93.55,2.49.16,2-.01,2.22-.15,2.31-.26.17-.52,0-1.93-.55-1.67-.64-1.98-.66-2.07-.96-.13-.48.47-1.01,1.64-2.05,1.05-.93,1.58-1.39,1.96-1.23Z"/>
    <path class="cls-4" d="M125.22,101.17c-.53-.12-.81-1.2-1.36-3.35-.7-2.76-.51-3.11-.33-3.27.32-.29.73-.11,2.83.31,2.49.5,2.93.46,3.12.87.3.64-.41,1.53-1.81,3.26-1.25,1.55-1.88,2.32-2.46,2.19Z"/>
    <path class="cls-4" d="M83.28,221.62c-.53-.12-.81-1.2-1.36-3.35-.7-2.76-.51-3.11-.33-3.27.32-.29.73-.11,2.83.31,2.49.5,2.93.46,3.12.87.3.64-.41,1.53-1.81,3.26-1.25,1.55-1.88,2.32-2.46,2.19Z"/>
    <path class="cls-4" d="M169.7,124.95c.19.3-.18.94-.93,2.19-.96,1.61-1.21,1.68-1.37,1.68-.29-.01-.39-.29-1.17-1.46-.92-1.39-1.15-1.58-1.05-1.86.16-.44.9-.52,2.36-.67,1.3-.14,1.96-.2,2.16.12Z"/>
    <path class="cls-4" d="M319.74,110.27c-.29.39-1.2.28-3.03.04-2.33-.31-2.53-.58-2.58-.77-.1-.35.19-.63,1.29-2.21,1.31-1.87,1.44-2.25,1.82-2.27.59-.04.99.82,1.77,2.51.7,1.51,1.04,2.27.73,2.7Z"/>
    <path class="cls-4" d="M420.55,159.72c-.49-.22-.55-1.31-.65-3.5-.13-2.8.12-3.1.33-3.22.36-.22.72.03,2.67.86,2.3.97,2.73,1.01,2.84,1.45.16.68-.7,1.39-2.38,2.78-1.5,1.25-2.27,1.86-2.8,1.63Z"/>
    <path class="cls-4" d="M394.01,113.95c-.15-.37.34-.98,1.33-2.18,1.27-1.54,1.55-1.56,1.72-1.52.3.08.37.4,1,1.87.75,1.73.96,1.98.81,2.27-.24.44-1.04.36-2.6.19-1.4-.15-2.1-.23-2.27-.63Z"/>
  </g>
</svg>