<?xml version="1.0" encoding="UTF-8"?>
<svg id="Layer_4" data-name="Layer 4" xmlns="http://www.w3.org/2000/svg" viewBox="0 0 581.33 260.05">
  <defs>
    <style>
      .cls-1 {
        fill: #f9f3df;
      }

      .cls-2 {
        fill: #4c694f;
      }

      .cls-3 {
        fill: #384d39;
      }

      .cls-4 {
        fill: #8cbf8f;
      }
    </style>
  </defs>
  <path class="cls-1" d="M579.43,58.15c-.26-.13-.24-.43-.47-1.86-.27-1.69-.4-1.96-.19-2.18.33-.34,1.06-.1,2.49.38.03,0,.05.02.07.02V0H141.24c38.68,27.91,63.85,73.37,63.85,124.71,0,58.5-32.68,109.37-80.79,135.34h457.03V57.23c-1.5,1.02-1.76.99-1.91.92ZM192.95,219.31c-.27.43-1.09.34-2.69.17-1.43-.16-2.15-.24-2.29-.64-.13-.37.41-.96,1.51-2.13,1.41-1.5,1.7-1.52,1.87-1.48.3.08.35.4.91,1.84.66,1.71.86,1.96.69,2.24ZM572.64,33.66c.2-.21.48-.11,1.92.08,1.7.23,1.99.17,2.14.44.23.42-.21,1.05-1.07,2.27-.77,1.1-1.16,1.65-1.55,1.59-.36-.05-.6-.77-1.07-2.19-.59-1.83-.48-2.07-.37-2.19ZM559.94,36.08c.58.72-.05,2.07-1.29,4.7-1.1,2.35-1.67,3.53-2.44,3.55-.71.02-1.4-1.27-2.77-3.84-1.74-3.29-1.61-3.8-1.43-4.06.31-.47.89-.37,3.69-.48,3.32-.13,3.86-.33,4.23.13ZM551.57,76.34c-1.89,1.79-2.84,2.68-3.57,2.41-.67-.24-.84-1.69-1.18-4.58-.42-3.7-.11-4.12.14-4.3.46-.33.96-.02,3.62.9,3.14,1.08,3.72,1.1,3.9,1.67.28.88-.8,1.91-2.91,3.91ZM553.39,181.59c-.21.26-.54.17-2.2.08-1.96-.1-2.29-.02-2.49-.31-.3-.46.14-1.22,1.01-2.7.78-1.33,1.18-1.99,1.63-1.95.42.03.76.82,1.42,2.41.85,2.03.74,2.32.62,2.47ZM556.53,16.56c.64.09.96,1.07,1.6,2.99.57,1.71.85,2.58.47,2.96-.35.35-1.31.03-3.23-.61-2.45-.82-2.63-1.14-2.67-1.36-.07-.39.27-.61,1.63-2.01,1.61-1.65,1.79-2.02,2.2-1.96ZM546.98,9.59c.86-3.34,1.27-3.6,1.56-3.68.51-.13.84.3,2.83,1.98,2.35,1.98,2.85,2.19,2.82,2.74-.05.86-1.33,1.38-3.82,2.41-2.23.92-3.35,1.37-3.89.9-.49-.43-.17-1.75.51-4.36ZM548.13,110.23c-.01.57-1.07,1.08-3.17,2.07-2.69,1.27-3.09,1.15-3.3,1-.37-.27-.26-.73-.25-2.97.01-2.65-.12-3.1.26-3.38.6-.44,1.65.12,3.71,1.2,1.84.97,2.76,1.46,2.75,2.08ZM538.45,85.49c.6-.44,1.65.12,3.71,1.2,1.84.97,2.76,1.46,2.75,2.08-.01.57-1.07,1.08-3.17,2.07-2.69,1.27-3.09,1.15-3.3,1-.37-.27-.26-.72-.25-2.97.01-2.65-.12-3.1.26-3.38ZM544.92,34.16c.16,2.56-.07,2.84-.25,2.95-.33.21-.66-.02-2.45-.74-2.12-.86-2.52-.89-2.62-1.28-.16-.62.62-1.28,2.14-2.59,1.36-1.16,2.05-1.74,2.54-1.53.45.19.52,1.19.64,3.19ZM538.78,23.96c.14-1.78.22-2.68.71-2.88.45-.18,1.21.48,2.71,1.8,1.92,1.7,1.96,2.06,1.91,2.27-.09.38-.48.46-2.26,1.21-2.1.89-2.41,1.15-2.76.94-.55-.32-.47-1.35-.31-3.34ZM535.62,54.01c.25-.16.51,0,1.9.54,1.64.63,1.95.65,2.03.95.13.47-.46.99-1.61,2.02-1.03.91-1.55,1.37-1.93,1.21-.35-.14-.42-.91-.54-2.44-.16-1.96.01-2.18.15-2.27ZM529.94,105.17c.34-.06.53.24,1.72,1.43,1.42,1.41,1.73,1.57,1.67,1.93-.08.55-.94.82-2.61,1.35-1.49.47-2.24.71-2.57.37-.3-.31-.01-1.14.57-2.79.74-2.12,1.02-2.26,1.21-2.29ZM514.07,17.71c.11-.25.67-.29,1.8-.36,1.44-.09,1.6.04,1.67.14.12.19-.01.37-.42,1.38-.48,1.19-.5,1.42-.72,1.48-.35.09-.72-.35-1.46-1.21-.66-.77-.98-1.16-.86-1.43ZM431.29,28.85c.21-1.52.38-1.65.5-1.7.22-.08.39.09,1.35.73,1.14.76,1.37.82,1.38,1.07.02.38-.52.68-1.56,1.26-.94.52-1.41.77-1.67.59-.24-.17-.16-.76,0-1.95ZM420.23,153.01c.36-.22.72.03,2.67.86,2.3.97,2.73,1.01,2.84,1.45.16.68-.7,1.39-2.38,2.78-1.5,1.25-2.27,1.86-2.8,1.63-.49-.22-.55-1.31-.65-3.5-.13-2.8.12-3.1.33-3.22ZM414.44,39.44c1.27-1.54,1.55-1.56,1.72-1.52.3.08.37.4,1,1.87.75,1.73.96,1.98.81,2.27-.24.44-1.04.36-2.6.19-1.4-.15-2.1-.23-2.27-.63-.15-.37.34-.98,1.33-2.18ZM362.17,111.68c.62-1.44.94-2.16,1.4-2.18.43-.02.87.74,1.74,2.26,1.11,1.95,1.04,2.25.94,2.42-.18.29-.53.24-2.21.36-1.99.15-2.32.28-2.55,0-.36-.42,0-1.25.68-2.86ZM352.63,26.46c.12-.39.54-.44,2.44-1.1,2.25-.78,2.59-1.03,2.94-.79.55.38.39,1.43.09,3.5-.27,1.85-.42,2.77-.94,2.94-.48.16-1.23-.58-2.7-2.07-1.88-1.9-1.89-2.28-1.83-2.49ZM315.43,73.38c.52.12.8,1.18,1.33,3.3.69,2.71.5,3.06.32,3.22-.31.29-.72.11-2.78-.31-2.44-.49-2.88-.45-3.07-.85-.29-.63.41-1.5,1.78-3.2,1.23-1.52,1.85-2.28,2.41-2.15ZM303.62,47.32c.78-1.41,1.17-2.12,1.65-2.1.44.02.82.84,1.56,2.48.95,2.1.84,2.41.73,2.57-.21.28-.57.19-2.3.15-2.06-.05-2.4.05-2.61-.25-.33-.47.11-1.28.98-2.86ZM289.84,6.49c.77-.9,1.16-1.35,1.5-1.26.31.08.46.73.75,2.02.37,1.66.25,1.86.14,1.96-.19.17-.44.06-1.68-.23-1.47-.34-1.74-.32-1.84-.57-.17-.39.27-.9,1.13-1.91ZM290.7,54.45c-.03.35-.7.64-2.04,1.2-1.72.72-1.96.63-2.09.53-.22-.18-.14-.46-.07-1.86.09-1.66.01-1.94.26-2.1.39-.26,1.03.12,2.28.86,1.12.66,1.68,1,1.65,1.38ZM286.38,26c.22-.36.9-.29,2.22-.15,1.18.12,1.77.19,1.89.52.11.3-.34.79-1.24,1.76-1.16,1.24-1.4,1.26-1.53,1.22-.25-.06-.29-.33-.76-1.52-.55-1.41-.72-1.61-.57-1.84ZM286.39,70.15c.66-1.67.89-1.77,1.04-1.78.27-.02.42.23,1.36,1.26,1.11,1.23,1.35,1.38,1.3,1.66-.08.44-.78.61-2.15.94-1.22.29-1.84.43-2.09.15-.23-.27.02-.92.54-2.22ZM277.82,28.82c.39.28.19,1.02-.19,2.46-.34,1.29-.52,1.93-.93,2.04-.38.1-.89-.44-1.89-1.52-1.28-1.38-1.27-1.64-1.2-1.8.12-.27.44-.29,1.93-.71,1.76-.49,2.04-.65,2.28-.48ZM272.55,9.01c.22-.36.9-.29,2.22-.15,1.18.12,1.77.19,1.89.52.11.3-.34.79-1.24,1.76-1.16,1.24-1.4,1.26-1.53,1.22-.25-.06-.29-.33-.76-1.52-.55-1.41-.72-1.61-.57-1.84ZM260.74,6.78c1.31-1.87,1.44-2.25,1.82-2.27.59-.04.99.82,1.77,2.51.7,1.51,1.04,2.27.73,2.7-.29.39-1.2.28-3.03.04-2.33-.31-2.53-.58-2.58-.77-.1-.35.19-.63,1.29-2.21ZM247.53,84.65c1.35-1.2,1.51-1.47,1.82-1.4.49.1.69.89,1.08,2.42.35,1.37.51,2.06.2,2.33-.29.25-1.03-.05-2.48-.66-1.87-.78-1.98-1.04-2-1.21-.03-.31.25-.46,1.39-1.48ZM235.4,107.13c1.66-.64,2.49-.96,2.97-.6.44.33.33,1.3.09,3.23-.3,2.47-.6,2.66-.81,2.7-.39.09-.7-.24-2.46-1.52-2.08-1.52-2.5-1.68-2.53-2.09-.05-.64.89-1,2.75-1.72ZM224.16,33.64c.72.26.85,1.47,1.12,3.85.24,2.12.34,3.19-.19,3.54-.49.32-1.53-.29-3.59-1.5-2.64-1.56-2.76-1.97-2.75-2.23.02-.47.46-.64,2.38-1.93,2.27-1.52,2.57-1.89,3.03-1.73ZM218.93,19.48c.89-1.78,1.16-1.87,1.33-1.86.31,0,.45.31,1.4,1.59,1.12,1.52,1.38,1.72,1.3,2.03-.13.48-.93.58-2.49.77-1.39.17-2.1.25-2.35-.11-.23-.33.11-1.03.81-2.42ZM217.25,45.99c.24-.2.52-.06,2,.31,1.75.43,2.07.41,2.19.71.19.46-.34,1.07-1.39,2.26-.93,1.06-1.41,1.59-1.81,1.48-.37-.1-.54-.88-.86-2.42-.41-1.98-.26-2.22-.13-2.34ZM217.03,85.32c.11-.29.44-.32,1.96-.81,1.8-.57,2.07-.75,2.34-.57.41.28.25,1.07-.08,2.61-.29,1.37-.44,2.06-.86,2.19-.39.11-.94-.44-2.03-1.55-1.4-1.42-1.39-1.7-1.33-1.87ZM189.17,22.36c-1.02,1.75-1.29,1.83-1.46,1.83-.31,0-.43-.3-1.28-1.57-1.01-1.49-1.26-1.69-1.15-1.99.17-.47.97-.57,2.54-.76,1.4-.17,2.11-.24,2.34.11.21.32-.18,1.01-.98,2.38ZM202.6,28.08c-.35-.24-.27-.67-.34-2.78-.08-2.49-.23-2.9.12-3.18.55-.43,1.56.05,3.53.99,1.76.84,2.64,1.28,2.65,1.85,0,.53-.96,1.05-2.9,2.06-2.48,1.29-2.86,1.19-3.06,1.06ZM212.49,139.29c-.63,1.46-.95,2.2-1.42,2.22-.43.02-.89-.75-1.77-2.29-1.13-1.98-1.06-2.29-.96-2.46.18-.3.54-.25,2.25-.37,2.03-.15,2.36-.28,2.6,0,.37.43,0,1.27-.69,2.91ZM214.13,40.57c-.32.21-1.01-.18-2.38-.98-1.75-1.02-1.83-1.29-1.83-1.46,0-.31.3-.43,1.57-1.28,1.49-1.01,1.69-1.26,1.99-1.15.47.17.57.97.76,2.54.17,1.4.24,2.11-.11,2.34ZM214.51,102.57c.03-.5.51-.67,2.59-1.98,2.46-1.55,2.78-1.93,3.27-1.75.75.29.86,1.59,1.08,4.13.19,2.27.27,3.41-.3,3.75-.53.32-1.62-.35-3.77-1.7-2.76-1.73-2.87-2.18-2.86-2.45ZM222.2,225.96c-.12.4-.54.45-2.48,1.12-2.29.79-2.63,1.04-2.99.8-.56-.38-.4-1.46-.09-3.56.28-1.88.43-2.82.96-2.99.49-.16,1.25.59,2.74,2.1,1.91,1.93,1.92,2.32,1.86,2.54ZM226.6,208.17c-.62.64-1.98.2-4.64-.65-2.38-.77-3.57-1.16-3.68-1.89-.1-.67,1.04-1.49,3.32-3.1,2.92-2.06,3.42-1.99,3.69-1.86.49.24.46.8.91,3.46.53,3.14.78,3.64.39,4.05ZM230.38,164.85c-.15-.41.45-1.07,1.67-2.37,1.56-1.67,1.88-1.69,2.06-1.64.34.09.39.44,1.02,2.04.74,1.89.96,2.17.77,2.48-.3.48-1.21.38-2.98.19-1.58-.17-2.38-.26-2.54-.71ZM232.83,209.92c.36-.28,1.22.11,2.92.9,2.18,1.01,2.3,1.33,2.32,1.53.02.37-.31.54-1.71,1.69-1.65,1.36-1.86,1.67-2.23,1.58-.58-.15-.78-1.09-1.17-2.92-.35-1.64-.51-2.47-.13-2.78ZM238.04,224.38c-.77,2.28-1.06,2.44-1.26,2.47-.36.06-.57-.25-1.87-1.51-1.53-1.49-1.87-1.66-1.82-2.04.08-.59.99-.89,2.77-1.49,1.59-.53,2.39-.79,2.74-.43.32.32.03,1.22-.57,3ZM245.36,142.04c-1.1,2.81-1.48,3-1.73,3.03-.46.06-.7-.35-2.25-2.01-1.84-1.96-2.25-2.2-2.16-2.67.14-.74,1.3-1.06,3.57-1.7,2.03-.57,3.05-.84,3.47-.38.38.43-.04,1.53-.89,3.73ZM247.05,106.17c-.93,1.06-1.41,1.59-1.81,1.48-.37-.1-.54-.88-.86-2.42-.41-1.98-.26-2.22-.13-2.34.24-.2.52-.06,2,.31,1.75.43,2.07.41,2.19.71.19.46-.34,1.07-1.39,2.26ZM253.39,183.15c-.16.45-.92.53-2.4.69-1.32.14-1.99.21-2.2-.13-.2-.31.18-.95.94-2.23.98-1.64,1.23-1.71,1.4-1.71.29.01.4.29,1.19,1.49.94,1.42,1.17,1.6,1.07,1.89ZM257.79,22.59c.23-.47.77-.44,3.33-.84,3.02-.48,3.5-.72,3.89-.34.61.6.18,1.9-.67,4.44-.75,2.27-1.15,3.41-1.85,3.51-.65.09-1.42-1.01-2.95-3.21-1.95-2.82-1.88-3.3-1.75-3.56ZM260.03,178.24c-.53-.12-.81-1.2-1.36-3.35-.7-2.76-.51-3.11-.33-3.27.32-.29.73-.11,2.83.31,2.49.5,2.93.46,3.12.87.3.64-.41,1.53-1.81,3.26-1.25,1.55-1.88,2.32-2.46,2.19ZM262.64,188.14c-.5-.76.24-2.02,1.69-4.49,1.29-2.2,1.96-3.3,2.71-3.25.69.05,1.26,1.37,2.36,4.01,1.41,3.38,1.23,3.86,1.03,4.1-.35.43-.9.28-3.66.14-3.26-.17-3.81-.03-4.13-.51ZM272.04,204.74c-.79,1.44-1.19,2.15-1.68,2.13-.45-.02-.83-.86-1.58-2.53-.96-2.14-.86-2.45-.74-2.61.22-.29.58-.2,2.34-.16,2.09.05,2.44-.05,2.66.25.34.48-.12,1.3-1,2.91ZM274.04,175.47c-.15.19-.4.12-1.6.06-1.43-.07-1.67-.01-1.81-.22-.22-.33.1-.88.74-1.96.57-.96.86-1.45,1.19-1.42.3.02.55.6,1.03,1.75.62,1.48.54,1.69.45,1.8ZM273.95,105.45c-.27-.16-.23-.47-.37-1.99-.17-1.8-.29-2.09-.05-2.3.37-.34,1.12-.03,2.59.56,1.31.53,1.96.8,2,1.22.03.38-.65.8-2,1.61-1.73,1.04-2.01.98-2.16.9ZM280.66,186.69c-.84,1.43-1.27,2.15-1.76,2.11-.45-.03-.82-.89-1.53-2.61-.91-2.2-.8-2.51-.67-2.67.23-.28.59-.18,2.38-.09,2.12.11,2.48.02,2.69.33.33.49-.16,1.31-1.1,2.92ZM280.6,168.02c.14-.74,1.3-1.06,3.57-1.7,2.03-.57,3.05-.84,3.47-.38.38.43-.04,1.53-.89,3.73-1.1,2.81-1.48,3-1.73,3.03-.46.06-.7-.35-2.25-2.01-1.84-1.96-2.25-2.2-2.16-2.67ZM287.26,196.27c1.75-.73,2-.64,2.12-.54.23.18.15.47.07,1.89-.09,1.69-.01,1.97-.27,2.14-.39.26-1.05-.12-2.32-.87-1.14-.67-1.71-1.01-1.68-1.4.03-.36.71-.65,2.07-1.22ZM286.06,246.28c-.78.92-1.18,1.37-1.53,1.28-.32-.08-.47-.74-.76-2.06-.37-1.68-.25-1.89-.14-1.99.2-.17.44-.06,1.71.24,1.5.35,1.77.33,1.88.58.17.39-.28.92-1.15,1.94ZM289.58,226.44c-.23.36-.91.29-2.26.15-1.2-.13-1.8-.2-1.92-.53-.11-.31.34-.81,1.26-1.79,1.18-1.26,1.42-1.28,1.56-1.24.25.07.3.33.77,1.54.56,1.43.73,1.64.58,1.88ZM289.57,181.53c-.67,1.69-.91,1.8-1.06,1.81-.28.02-.43-.23-1.38-1.29-1.12-1.25-1.38-1.4-1.32-1.69.08-.45.8-.62,2.19-.95,1.24-.3,1.87-.44,2.13-.15.24.27-.02.94-.55,2.26ZM295.21,83.43c-.13.73-1.28,1.05-3.51,1.67-1.99.56-3,.83-3.41.37-.38-.42.03-1.51.88-3.67,1.08-2.76,1.45-2.95,1.7-2.98.45-.06.69.34,2.22,1.98,1.81,1.93,2.21,2.16,2.13,2.62ZM294.07,67.94c-.32-.48.15-1.29,1.08-2.87.83-1.41,1.25-2.11,1.73-2.08.44.03.8.88,1.51,2.56.9,2.16.79,2.47.66,2.62-.22.28-.58.18-2.34.09-2.08-.11-2.44-.02-2.64-.33ZM300.02,146.54c1.76-1.06,2.05-1,2.2-.91.27.16.23.48.38,2.02.17,1.83.3,2.12.05,2.34-.38.34-1.14.03-2.63-.57-1.33-.54-2-.82-2.03-1.24-.03-.39.66-.81,2.04-1.64ZM298.28,223.56c-.39-.28-.2-1.03.19-2.5.35-1.31.53-1.97.95-2.08.38-.1.9.45,1.92,1.54,1.31,1.4,1.29,1.67,1.22,1.83-.12.28-.45.3-1.96.72-1.79.5-2.07.66-2.32.48ZM303.64,243.72c-.23.36-.91.29-2.26.15-1.2-.13-1.8-.2-1.92-.53-.11-.31.34-.81,1.26-1.79,1.18-1.26,1.42-1.28,1.56-1.24.25.07.3.33.77,1.54.56,1.43.73,1.64.58,1.88ZM304.28,78.2c-.56.95-.84,1.42-1.17,1.4-.3-.02-.54-.59-1.01-1.72-.61-1.45-.53-1.66-.44-1.77.15-.19.39-.12,1.57-.06,1.4.07,1.64.01,1.78.22.22.33-.1.87-.73,1.93ZM308.54,71.25c-.68-.05-1.24-1.35-2.32-3.94-1.38-3.32-1.21-3.8-1.02-4.03.34-.43.89-.28,3.6-.14,3.2.17,3.75.03,4.06.51.49.75-.24,1.99-1.66,4.41-1.27,2.17-1.92,3.25-2.67,3.2ZM315.65,245.98c-1.33,1.9-1.46,2.29-1.85,2.31-.6.04-1.01-.84-1.8-2.56-.71-1.54-1.06-2.31-.74-2.75.29-.4,1.22-.29,3.08-.04,2.37.31,2.57.59,2.63.79.1.36-.19.64-1.31,2.25ZM318.66,229.9c-.24.48-.79.44-3.38.86-3.07.49-3.56.73-3.95.35-.62-.61-.18-1.93.68-4.52.77-2.31,1.16-3.47,1.88-3.57.66-.09,1.45,1.03,3,3.27,1.99,2.87,1.92,3.35,1.78,3.62ZM319.74,110.27c-.29.39-1.2.28-3.03.04-2.33-.31-2.53-.58-2.58-.77-.1-.35.19-.63,1.29-2.21,1.31-1.87,1.44-2.25,1.82-2.27.59-.04.99.82,1.77,2.51.7,1.51,1.04,2.27.73,2.7ZM324.18,71.88c-.29-.01-.39-.29-1.17-1.46-.92-1.39-1.15-1.58-1.05-1.86.16-.44.9-.52,2.36-.67,1.3-.14,1.96-.2,2.16.12.19.3-.18.94-.93,2.19-.96,1.61-1.21,1.68-1.37,1.68ZM329.09,166.78c-1.37,1.22-1.54,1.49-1.86,1.43-.5-.1-.7-.9-1.1-2.46-.35-1.39-.52-2.09-.2-2.37.3-.25,1.04.05,2.53.67,1.9.8,2.02,1.06,2.04,1.23.03.31-.25.47-1.41,1.5ZM332.44,148.22c-.24.2-.53.06-2.03-.31-1.78-.44-2.1-.42-2.23-.72-.2-.47.35-1.09,1.41-2.3.95-1.08,1.43-1.62,1.84-1.51.38.1.55.89.87,2.46.42,2.02.27,2.26.13,2.38ZM335.9,110.59c-.13.73-1.28,1.05-3.51,1.67-1.99.56-3,.83-3.41.37-.38-.42.03-1.51.88-3.67,1.08-2.76,1.45-2.95,1.7-2.98.45-.06.69.34,2.22,1.98,1.81,1.93,2.21,2.16,2.13,2.62ZM337.05,28.02c.75-2.24,1.04-2.4,1.24-2.43.35-.06.56.25,1.84,1.49,1.51,1.47,1.84,1.63,1.79,2.01-.08.58-.97.88-2.73,1.46-1.56.52-2.35.77-2.7.43-.32-.32-.03-1.2.56-2.95ZM337.03,39.85c-.02-.36.31-.53,1.68-1.66,1.63-1.34,1.83-1.65,2.19-1.55.57.14.77,1.07,1.15,2.87.34,1.61.51,2.43.12,2.73-.35.28-1.2-.1-2.87-.88-2.14-1-2.27-1.3-2.28-1.5ZM341.44,143.92c-1.68.65-2.53.97-3.02.61-.45-.34-.34-1.32-.09-3.29.31-2.51.61-2.7.83-2.75.4-.09.71.24,2.5,1.55,2.12,1.54,2.54,1.71,2.58,2.12.06.65-.91,1.02-2.79,1.75ZM342.94,88.88c-1.53,1.64-1.85,1.66-2.03,1.61-.33-.09-.39-.43-1-2.01-.73-1.86-.95-2.13-.76-2.44.3-.47,1.19-.38,2.93-.19,1.56.17,2.34.26,2.5.69.15.4-.45,1.05-1.64,2.33ZM349.57,51.34c-.48-.24-.45-.79-.89-3.4-.52-3.09-.77-3.58-.38-3.98.61-.63,1.94-.2,4.56.64,2.34.75,3.51,1.14,3.61,1.86.1.66-1.02,1.47-3.26,3.05-2.87,2.03-3.36,1.96-3.63,1.83ZM352.86,218.66c-.73-.26-.87-1.5-1.14-3.92-.24-2.16-.35-3.25.19-3.6.5-.32,1.56.29,3.65,1.53,2.68,1.59,2.81,2.01,2.8,2.27-.02.47-.47.65-2.42,1.96-2.31,1.54-2.61,1.92-3.08,1.76ZM358.18,233.06c-.91,1.81-1.18,1.9-1.36,1.89-.31,0-.46-.31-1.42-1.62-1.14-1.54-1.41-1.75-1.32-2.06.13-.49.95-.59,2.53-.79,1.42-.17,2.13-.25,2.39.11.24.33-.11,1.05-.82,2.46ZM359.9,206.1c-.24.2-.53.06-2.03-.31-1.78-.44-2.1-.42-2.23-.72-.2-.47.35-1.09,1.41-2.3.95-1.08,1.43-1.62,1.84-1.51.38.1.55.89.87,2.46.42,2.02.27,2.26.13,2.38ZM360.12,166.1c-.11.29-.45.33-1.99.82-1.83.58-2.11.76-2.38.58-.42-.29-.25-1.09.08-2.65.3-1.4.45-2.1.88-2.22.39-.12.96.45,2.06,1.58,1.42,1.45,1.41,1.73,1.35,1.9ZM362.68,148.55c-.03.5-.52.68-2.63,2.01-2.5,1.57-2.83,1.97-3.32,1.78-.77-.3-.88-1.62-1.09-4.2-.19-2.3-.28-3.46.31-3.82.54-.33,1.65.36,3.84,1.73,2.8,1.76,2.92,2.21,2.91,2.49ZM365.75,215.4c-1.52,1.03-1.72,1.28-2.03,1.17-.48-.17-.58-.99-.77-2.58-.17-1.43-.25-2.14.11-2.38.33-.21,1.03.19,2.42,1,1.78,1.04,1.86,1.31,1.86,1.49,0,.31-.31.43-1.59,1.3ZM375.02,230.38c-.55.44-1.58-.05-3.59-1.01-1.79-.86-2.69-1.3-2.7-1.89,0-.54.98-1.07,2.95-2.09,2.53-1.31,2.91-1.21,3.11-1.07.36.24.28.68.35,2.83.08,2.54.23,2.95-.12,3.24ZM384.79,35.57c-1.38,1.48-1.67,1.5-1.83,1.45-.3-.08-.35-.39-.9-1.81-.65-1.68-.85-1.93-.68-2.2.27-.43,1.07-.34,2.64-.17,1.4.15,2.11.24,2.25.63.13.36-.41.95-1.49,2.1ZM392.42,231.89c-.17.48-.99.58-2.58.77-1.43.17-2.14.25-2.38-.11-.21-.33.19-1.03,1-2.42,1.04-1.78,1.31-1.86,1.49-1.86.31,0,.43.31,1.3,1.59,1.03,1.52,1.28,1.72,1.17,2.03ZM393.89,108.53c-.08.55-.94.82-2.61,1.35-1.49.47-2.24.71-2.57.37-.3-.31-.01-1.14.57-2.79.74-2.12,1.02-2.26,1.21-2.29.34-.06.53.24,1.72,1.43,1.42,1.41,1.73,1.57,1.67,1.93ZM398.87,114.38c-.24.44-1.04.36-2.6.19-1.4-.15-2.1-.23-2.27-.63-.15-.37.34-.98,1.33-2.18,1.27-1.54,1.55-1.56,1.72-1.52.3.08.37.4,1,1.87.75,1.73.96,1.98.81,2.27ZM396.6,44.16c-.29-.31-.12-.72.29-2.79.48-2.45.43-2.88.83-3.07.63-.3,1.5.4,3.22,1.76,1.53,1.22,2.29,1.84,2.17,2.4-.11.52-1.17.81-3.29,1.35-2.71.7-3.06.52-3.22.34ZM405.66,56.66c-.15,1.4-.24,2.11-.63,2.25-.36.13-.95-.41-2.1-1.49-1.48-1.38-1.5-1.67-1.45-1.83.08-.3.39-.35,1.81-.9,1.68-.65,1.93-.85,2.2-.68.43.27.34,1.07.17,2.64ZM408.85,68.71c-1.15.82-1.73,1.23-2.1,1.04-.34-.18-.33-.97-.29-2.55.04-2.02.24-2.23.4-2.31.27-.14.52.06,1.88.75,1.61.82,1.92.87,1.97,1.18.08.5-.57.97-1.86,1.89ZM410.27,56.75c.12-.45.6-.52,2.75-1.34,2.55-.97,2.93-1.27,3.34-1,.64.41.5,1.63.23,4-.25,2.12-.38,3.19-.98,3.4-.55.2-1.43-.62-3.16-2.27-2.22-2.11-2.25-2.54-2.18-2.79ZM413.85,71.83c-.29-.63.41-1.5,1.78-3.2,1.23-1.52,1.85-2.28,2.41-2.15.52.12.8,1.18,1.33,3.3.69,2.71.5,3.06.32,3.22-.31.29-.72.11-2.78-.31-2.44-.49-2.88-.45-3.07-.85ZM420.24,233.47c-2.06,1.28-2.33,1.61-2.73,1.45-.63-.25-.72-1.33-.89-3.45-.15-1.89-.22-2.84.26-3.13.44-.27,1.35.3,3.14,1.43,2.3,1.46,2.39,1.83,2.38,2.06-.03.41-.43.56-2.17,1.64ZM422.71,213.49c-.46.76-1.88.64-4.67.4-2.49-.21-3.74-.33-4.01-1.02-.25-.63.68-1.69,2.54-3.77,2.39-2.66,2.89-2.71,3.18-2.64.53.12.63.68,1.66,3.17,1.22,2.94,1.58,3.37,1.29,3.86ZM428.06,177.14c-.54.48-1.6.04-3.69-.82-1.86-.77-2.79-1.16-2.83-1.76-.04-.55.93-1.13,2.87-2.28,2.48-1.47,2.88-1.38,3.09-1.26.38.22.32.68.51,2.84.22,2.56.4,2.98.05,3.28ZM431.71,219.07c-.6-.01-1-.88-1.79-2.58-.71-1.52-1.05-2.29-.74-2.68.29-.36,1.21-.17,3.04.22,2.35.5,2.54.78,2.6.97.1.35-.18.59-1.29,2.03-1.31,1.7-1.44,2.05-1.82,2.04ZM437.5,226.73c-.24,2.39-.49,2.61-.68,2.69-.34.14-.61-.12-2.16-1.06-1.83-1.11-2.19-1.2-2.23-1.58-.05-.59.77-1.09,2.37-2.07,1.43-.87,2.16-1.3,2.58-1.04.39.24.3,1.18.12,3.05ZM437.98,160.05c-.02,2.88-.3,3.18-.51,3.3-.39.21-.74-.07-2.7-1.03-2.31-1.13-2.76-1.19-2.84-1.65-.13-.7.8-1.39,2.61-2.74,1.62-1.2,2.44-1.79,2.97-1.52.49.25.49,1.38.48,3.63ZM441.75,180.76c-1.47,1-2.21,1.5-2.67,1.24-.42-.24-.39-1.23-.3-3.22.11-2.54.37-2.79.56-2.89.35-.17.65.09,2.34,1,2,1.07,2.39,1.14,2.45,1.55.09.63-.75,1.2-2.39,2.32ZM447.37,144.13c-.22.22-.52.1-2.04-.15-1.79-.29-2.11-.25-2.26-.54-.23-.45.26-1.1,1.21-2.38.85-1.14,1.29-1.71,1.7-1.63.38.07.61.84,1.06,2.37.57,1.96.44,2.21.32,2.34ZM447.2,101.36c-1.03.91-1.55,1.37-1.93,1.21-.35-.14-.42-.91-.54-2.44-.16-1.96.01-2.18.15-2.27.25-.16.51,0,1.9.54,1.64.63,1.95.65,2.03.95.13.47-.46.99-1.61,2.02ZM450.18,28.88c-.22.19-.78-.02-1.89-.46-1.43-.56-1.52-.76-1.53-.88-.03-.23.18-.35,1.02-1.14,1-.93,1.12-1.14,1.36-1.09.37.07.54.66.86,1.81.29,1.03.42,1.55.19,1.76ZM451.58,93.71c-.37-.27-.26-.72-.25-2.97.01-2.65-.12-3.1.26-3.38.6-.44,1.65.12,3.71,1.2,1.84.97,2.76,1.46,2.75,2.08-.01.57-1.07,1.08-3.17,2.07-2.69,1.27-3.09,1.15-3.3,1ZM454.71,101.67c-.15-.37.34-.98,1.33-2.18,1.27-1.54,1.55-1.56,1.72-1.52.3.08.37.4,1,1.87.75,1.73.96,1.98.81,2.27-.24.44-1.04.36-2.6.19-1.4-.15-2.1-.23-2.27-.63ZM459.88,163.95c1.45.57,1.54.77,1.56.9.03.24-.18.36-1.04,1.16-1.02.95-1.14,1.16-1.38,1.11-.38-.07-.55-.67-.87-1.85-.29-1.05-.43-1.58-.19-1.79.22-.2.79.02,1.92.47ZM460.34,232.57c-1.4.92-1.59,1.14-1.87,1.04-.44-.16-.51-.91-.66-2.37-.13-1.31-.19-1.96.14-2.17.3-.19.94.19,2.19.95,1.61.97,1.68,1.23,1.67,1.39-.01.29-.29.39-1.48,1.17ZM463.61,50.93c-.84,1.12-1.26,1.68-1.67,1.61-.38-.07-.6-.82-1.04-2.33-.56-1.92-.44-2.18-.32-2.3.22-.22.51-.1,2,.15,1.76.29,2.07.25,2.22.53.23.44-.25,1.09-1.19,2.34ZM469.03,13.84c-.11,2.5-.36,2.75-.55,2.84-.34.17-.64-.09-2.3-.98-1.96-1.05-2.35-1.13-2.41-1.52-.09-.61.74-1.18,2.35-2.28,1.44-.99,2.17-1.47,2.62-1.22.42.23.38,1.21.29,3.16ZM470.29,35.83c-.48-.25-.48-1.36-.47-3.57.02-2.84.29-3.13.5-3.24.38-.2.73.07,2.65,1.01,2.27,1.11,2.71,1.17,2.79,1.62.13.69-.78,1.37-2.56,2.69-1.59,1.18-2.4,1.76-2.92,1.5ZM474.68,218.5c-1.48.84-2.23,1.26-2.65.97-.39-.26-.27-1.21-.03-3.1.31-2.42.58-2.64.77-2.72.35-.13.62.14,2.16,1.14,1.83,1.19,2.19,1.29,2.22,1.68.04.61-.81,1.09-2.47,2.03ZM477.17,163.52c-.22,1.54-.39,1.68-.51,1.73-.22.08-.39-.09-1.37-.74-1.16-.77-1.39-.84-1.4-1.08-.02-.39.53-.69,1.59-1.28.95-.53,1.43-.79,1.7-.6.24.17.16.77,0,1.98ZM483.16,20.24c-2.44,1.44-2.83,1.36-3.04,1.24-.37-.22-.31-.66-.5-2.79-.22-2.52-.39-2.93-.05-3.23.53-.47,1.58-.03,3.62.81,1.83.76,2.75,1.14,2.79,1.73.04.54-.92,1.11-2.82,2.24ZM496.91,211.12c-.19.22-.48.12-1.91-.03-1.69-.18-1.98-.12-2.13-.39-.24-.41.18-1.04,1.01-2.28.74-1.11,1.11-1.66,1.5-1.61.36.05.61.75,1.11,2.15.63,1.8.53,2.04.42,2.16ZM499,87.47c-.35-.14-.42-.91-.54-2.44-.16-1.96.01-2.18.15-2.27.25-.16.51,0,1.9.54,1.64.63,1.95.65,2.03.95.13.47-.46.99-1.61,2.02-1.03.91-1.55,1.37-1.93,1.21ZM501.26,150.99c-.4-.12-.56-.95-.86-2.62-.39-2.14-.23-2.39-.08-2.51.26-.21.56-.05,2.14.38,1.87.51,2.21.5,2.33.82.2.5-.39,1.14-1.54,2.39-1.03,1.11-1.55,1.67-1.98,1.54ZM506.63,228.96c-.29.22-.97-.12-2.3-.8-1.71-.87-1.8-1.13-1.8-1.29,0-.29.27-.42,1.42-1.29,1.36-1.04,1.53-1.28,1.83-1.19.46.13.59.89.85,2.37.23,1.32.34,1.98.02,2.22ZM508.15,109.99c-2.69,1.27-3.09,1.15-3.3,1-.37-.27-.26-.73-.25-2.97.01-2.65-.12-3.1.26-3.38.6-.44,1.65.12,3.71,1.2,1.84.97,2.76,1.46,2.75,2.08-.01.57-1.07,1.08-3.17,2.07ZM518.2,83.66c-.03,1.76.06,2.05-.19,2.23-.4.29-1.09-.09-2.45-.82-1.21-.65-1.82-.99-1.8-1.39.01-.37.71-.7,2.11-1.35,1.79-.82,2.05-.74,2.19-.64.24.18.17.48.15,1.97ZM518.3,72.63c-.49-.22-.55-1.31-.65-3.5-.13-2.8.12-3.1.33-3.22.36-.22.72.03,2.67.86,2.3.97,2.73,1.01,2.84,1.45.16.68-.7,1.39-2.38,2.78-1.5,1.25-2.27,1.86-2.8,1.63ZM526.33,249.86c-.37.27-1.2-.15-2.85-1-2.12-1.08-2.23-1.4-2.24-1.6,0-.36.33-.52,1.76-1.61,1.69-1.28,1.9-1.59,2.27-1.48.57.17.73,1.1,1.05,2.93.28,1.64.42,2.46.02,2.75ZM523.57,84.73c-.29-.63.41-1.5,1.78-3.2,1.23-1.52,1.85-2.28,2.41-2.15.52.11.8,1.18,1.33,3.3.69,2.71.5,3.06.32,3.22-.31.29-.72.11-2.78-.31-2.44-.49-2.88-.45-3.07-.85ZM530.5,167.2c-.78.92-1.18,1.37-1.53,1.28-.32-.08-.47-.74-.76-2.06-.37-1.68-.25-1.89-.14-1.99.2-.17.44-.06,1.71.24,1.5.35,1.77.33,1.88.58.17.39-.28.92-1.15,1.94ZM534.02,147.35c-.23.36-.91.29-2.26.15-1.2-.13-1.8-.2-1.92-.53-.11-.31.34-.81,1.26-1.79,1.18-1.26,1.42-1.28,1.56-1.24.25.07.3.33.77,1.54.56,1.43.73,1.64.58,1.88ZM533.56,72.64c-2.59-.04-3.02.07-3.29-.26-.41-.52.15-1.43,1.24-3.21.98-1.59,1.48-2.38,2.08-2.36.55.02,1.03.94,1.96,2.78,1.19,2.35,1.06,2.7.91,2.87-.27.32-.71.22-2.9.19ZM540.73,211.77c-.16.45-.92.53-2.4.69-1.32.14-1.99.21-2.2-.13-.2-.31.18-.95.94-2.23.98-1.64,1.23-1.71,1.4-1.71.29.01.4.29,1.19,1.49.94,1.42,1.17,1.6,1.07,1.89ZM540.45,178.48c-1.11,1.65-1.67,2.47-2.25,2.39-.54-.07-.91-1.12-1.64-3.22-.93-2.68-.77-3.05-.61-3.23.29-.32.71-.18,2.84.06,2.52.28,2.95.2,3.18.59.35.61-.28,1.56-1.52,3.4ZM542.73,144.48c-.39-.28-.2-1.03.19-2.5.35-1.31.53-1.97.95-2.08.38-.1.9.45,1.92,1.54,1.31,1.4,1.29,1.67,1.22,1.83-.12.28-.45.3-1.96.72-1.79.5-2.07.66-2.32.48ZM543.91,164.25c-.11-.31.34-.81,1.26-1.79,1.18-1.26,1.42-1.28,1.56-1.24.25.07.3.33.77,1.54.56,1.43.73,1.64.58,1.88-.23.36-.91.29-2.26.15-1.2-.13-1.8-.2-1.92-.53ZM547.37,206.86c-.53-.12-.81-1.2-1.36-3.35-.7-2.76-.51-3.11-.33-3.27.32-.29.73-.11,2.83.31,2.49.5,2.93.46,3.12.87.3.64-.41,1.53-1.81,3.26-1.25,1.55-1.88,2.32-2.46,2.19ZM549.98,216.76c-.5-.76.24-2.02,1.69-4.49,1.29-2.2,1.96-3.3,2.71-3.25.69.05,1.26,1.37,2.36,4.01,1.41,3.38,1.23,3.86,1.03,4.1-.35.43-.9.28-3.66.14-3.26-.17-3.81-.03-4.13-.51ZM559.38,233.37c-.79,1.44-1.19,2.15-1.68,2.13-.45-.02-.83-.86-1.58-2.53-.96-2.14-.86-2.45-.74-2.61.22-.29.58-.2,2.34-.16,2.09.05,2.44-.05,2.66.25.34.48-.12,1.3-1,2.91ZM561.37,204.09c-.15.19-.4.12-1.6.06-1.43-.07-1.67-.01-1.81-.22-.22-.33.1-.88.74-1.96.57-.96.86-1.45,1.19-1.42.3.02.55.6,1.03,1.75.62,1.48.54,1.69.45,1.8ZM560.1,166.89c-1.33,1.9-1.46,2.29-1.85,2.31-.6.04-1.01-.84-1.8-2.56-.71-1.54-1.06-2.31-.74-2.75.29-.4,1.22-.29,3.08-.04,2.37.31,2.57.59,2.63.79.1.36-.19.64-1.31,2.25ZM563.1,150.81c-.24.48-.79.44-3.38.86-3.07.49-3.56.73-3.95.35-.62-.61-.18-1.93.68-4.52.77-2.31,1.16-3.47,1.88-3.57.66-.09,1.45,1.03,3,3.27,1.99,2.87,1.92,3.35,1.78,3.62ZM561.63,114.29c-2.17-.57-2.34-.84-2.38-1.02-.08-.33.2-.55,1.29-1.83,1.3-1.52,1.43-1.85,1.79-1.82.56.04.9.87,1.56,2.49.59,1.45.88,2.18.57,2.53-.28.32-1.14.1-2.83-.34ZM567.99,215.31c-.84,1.43-1.27,2.15-1.76,2.11-.45-.03-.82-.89-1.53-2.61-.91-2.2-.8-2.51-.67-2.67.23-.28.59-.18,2.38-.09,2.12.11,2.48.02,2.69.33.33.49-.16,1.31-1.1,2.92ZM576.79,226.25c-.09,1.69-.01,1.97-.27,2.14-.39.26-1.05-.12-2.32-.87-1.14-.67-1.71-1.01-1.68-1.4.03-.36.71-.65,2.07-1.22,1.75-.73,2-.64,2.12-.54.23.18.15.47.07,1.89ZM576.91,210.15c-.67,1.69-.91,1.8-1.06,1.81-.28.02-.43-.23-1.38-1.29-1.12-1.25-1.38-1.4-1.32-1.69.08-.45.8-.62,2.19-.95,1.24-.3,1.87-.44,2.13-.15.24.27-.02.94-.55,2.26ZM579.31,193.31c-.07,1.43-.01,1.67-.22,1.81-.33.22-.88-.1-1.96-.74-.96-.57-1.45-.86-1.42-1.19.02-.3.6-.55,1.75-1.03,1.48-.62,1.69-.54,1.8-.45.19.15.12.4.06,1.6Z"/>
  <path class="cls-2" d="M205.09,124.71c0-51.34-25.18-96.8-63.85-124.71H0v260.05h124.3c48.1-25.97,80.79-76.84,80.79-135.34ZM163.57,195.16c-.12.46-.61.53-2.8,1.37-2.59.99-2.98,1.29-3.39,1.02-.65-.42-.51-1.66-.23-4.07.25-2.16.39-3.25.99-3.46.56-.2,1.45.63,3.21,2.31,2.26,2.15,2.29,2.58,2.22,2.84ZM180.23,142.49c.08-.56.95-.84,2.65-1.38,1.52-.48,2.28-.72,2.61-.38.3.31.01,1.16-.58,2.84-.75,2.15-1.04,2.3-1.23,2.33-.34.06-.54-.25-1.75-1.46-1.44-1.44-1.76-1.6-1.7-1.96ZM177.48,207.97c.3.32.12.73-.29,2.83-.49,2.49-.44,2.93-.85,3.13-.64.3-1.53-.4-3.27-1.79-1.56-1.24-2.33-1.87-2.21-2.44.11-.53,1.19-.82,3.34-1.38,2.76-.71,3.11-.52,3.27-.35ZM172.5,196.34c-.08.3-.4.35-1.84.91-1.71.66-1.96.86-2.24.69-.43-.27-.34-1.09-.17-2.69.16-1.43.24-2.15.64-2.29.37-.14.96.41,2.13,1.51,1.5,1.41,1.52,1.7,1.48,1.87ZM165.18,125.5c.16-.44.9-.52,2.36-.67,1.3-.14,1.96-.2,2.16.12.19.3-.18.94-.93,2.19-.96,1.61-1.21,1.68-1.37,1.68-.29-.01-.39-.29-1.17-1.46-.92-1.39-1.15-1.58-1.05-1.86ZM167.14,181.94c.35.18.34.99.3,2.6-.05,2.06-.25,2.27-.4,2.35-.28.14-.53-.06-1.91-.76-1.64-.83-1.95-.88-2.01-1.2-.09-.5.58-.98,1.89-1.92,1.17-.84,1.76-1.25,2.13-1.05ZM157.92,19.08c2.02-1.26,2.29-1.58,2.69-1.42.62.24.7,1.31.87,3.39.15,1.86.21,2.8-.26,3.08-.44.26-1.33-.29-3.09-1.41-2.26-1.43-2.35-1.8-2.34-2.02.03-.41.42-.55,2.13-1.62ZM155.49,38.72c.45-.75,1.85-.63,4.59-.39,2.45.21,3.67.33,3.94,1,.24.62-.67,1.66-2.5,3.7-2.35,2.62-2.84,2.66-3.13,2.6-.52-.12-.62-.67-1.63-3.11-1.2-2.89-1.55-3.31-1.27-3.79ZM140.95,25.71c.23-2.35.48-2.57.66-2.65.33-.14.6.12,2.12,1.04,1.8,1.09,2.16,1.18,2.19,1.55.05.58-.75,1.08-2.33,2.04-1.41.86-2.12,1.28-2.53,1.02-.38-.24-.3-1.16-.12-3ZM118.49,19.97c1.38-.9,1.56-1.13,1.84-1.02.43.16.51.9.65,2.33.13,1.28.19,1.93-.14,2.13-.3.19-.92-.18-2.16-.93-1.58-.96-1.65-1.21-1.65-1.36.01-.28.28-.39,1.45-1.15ZM120.83,87.89c-.22.19-.78-.02-1.89-.46-1.43-.56-1.52-.76-1.53-.88-.03-.23.18-.35,1.02-1.14,1-.93,1.12-1.14,1.36-1.09.37.07.54.66.86,1.81.29,1.03.42,1.55.19,1.76ZM104.4,33.8c1.46-.83,2.2-1.24,2.61-.96.38.26.27,1.19.02,3.05-.31,2.38-.57,2.6-.76,2.67-.34.13-.61-.14-2.13-1.12-1.8-1.17-2.16-1.27-2.18-1.65-.04-.6.8-1.07,2.43-2ZM82.54,41.05c.19-.21.47-.12,1.87.03,1.66.18,1.95.12,2.1.38.24.4-.18,1.03-.99,2.25-.72,1.09-1.09,1.63-1.48,1.58-.35-.04-.6-.74-1.09-2.12-.62-1.77-.52-2.01-.41-2.13ZM49.51,84.24c.77-.9,1.16-1.35,1.5-1.26.31.08.46.73.75,2.02.37,1.66.25,1.86.14,1.96-.19.17-.44.06-1.68-.23-1.47-.34-1.74-.32-1.84-.57-.17-.39.27-.9,1.13-1.91ZM46.05,103.75c.22-.36.9-.29,2.22-.15,1.18.12,1.77.19,1.89.52.11.3-.34.79-1.24,1.76-1.16,1.24-1.4,1.26-1.53,1.22-.25-.06-.29-.33-.76-1.52-.55-1.41-.72-1.61-.57-1.84ZM39.46,40.42c.16-.44.9-.52,2.36-.67,1.3-.14,1.96-.2,2.16.12.19.3-.18.94-.93,2.19-.96,1.61-1.21,1.68-1.37,1.68-.29-.01-.39-.29-1.17-1.46-.92-1.39-1.15-1.58-1.05-1.86ZM39.73,73.15c1.09-1.62,1.64-2.43,2.22-2.35.53.07.9,1.1,1.61,3.16.92,2.64.76,3,.6,3.17-.29.32-.7.17-2.79-.06-2.47-.28-2.9-.2-3.13-.58-.35-.6.27-1.53,1.49-3.34ZM37.49,106.58c.39.28.19,1.02-.19,2.46-.34,1.29-.52,1.93-.93,2.04-.38.1-.89-.44-1.89-1.52-1.28-1.38-1.27-1.64-1.2-1.8.12-.27.44-.29,1.93-.71,1.76-.49,2.04-.65,2.28-.48ZM33.19,165.93c-.61.44-1.68-.12-3.78-1.22-1.87-.98-2.81-1.49-2.79-2.12.01-.58,1.08-1.09,3.22-2.11,2.74-1.3,3.15-1.17,3.35-1.02.37.27.27.74.26,3.02-.01,2.7.13,3.15-.26,3.44ZM30.62,72.96c-.77,1.3-1.16,1.95-1.6,1.92-.41-.03-.74-.81-1.39-2.37-.83-2-.73-2.28-.61-2.43.21-.26.54-.17,2.16-.08,1.93.1,2.25.02,2.44.3.3.45-.14,1.2-1,2.65ZM36.33,87.14c.11.3-.34.79-1.24,1.76-1.16,1.24-1.4,1.26-1.53,1.22-.25-.06-.29-.33-.76-1.52-.55-1.41-.72-1.61-.57-1.84.22-.36.9-.29,2.22-.15,1.18.12,1.77.19,1.89.52ZM32.93,45.24c.52.12.8,1.18,1.33,3.3.69,2.71.5,3.06.32,3.22-.31.29-.72.11-2.78-.31-2.44-.49-2.88-.45-3.07-.85-.29-.63.41-1.5,1.78-3.2,1.23-1.52,1.85-2.28,2.41-2.15ZM30.37,35.51c.49.75-.24,1.99-1.66,4.41-1.27,2.17-1.92,3.25-2.67,3.2-.68-.05-1.24-1.35-2.32-3.94-1.38-3.32-1.21-3.8-1.02-4.03.34-.43.89-.28,3.6-.14,3.2.17,3.75.03,4.06.51ZM21.12,19.18c.78-1.41,1.17-2.12,1.65-2.1.44.02.82.84,1.56,2.48.95,2.1.84,2.41.73,2.57-.21.28-.57.19-2.3.15-2.06-.05-2.4.05-2.61-.25-.33-.47.11-1.28.98-2.86ZM19.16,47.97c.15-.19.39-.12,1.57-.06,1.4.07,1.64.01,1.78.22.22.33-.1.87-.73,1.93-.56.95-.84,1.42-1.17,1.4-.3-.02-.54-.59-1.01-1.72-.61-1.45-.53-1.66-.44-1.77ZM20.42,84.54c1.31-1.87,1.44-2.25,1.82-2.27.59-.04.99.82,1.77,2.51.7,1.51,1.04,2.27.73,2.7-.29.39-1.2.28-3.03.04-2.33-.31-2.53-.58-2.58-.77-.1-.35.19-.63,1.29-2.21ZM17.46,100.35c.23-.47.77-.44,3.33-.84,3.02-.48,3.5-.72,3.89-.34.61.6.18,1.9-.67,4.44-.75,2.27-1.15,3.41-1.85,3.51-.65.09-1.42-1.01-2.95-3.21-1.95-2.82-1.88-3.3-1.75-3.56ZM19.84,175.23c1.92-1.82,2.89-2.72,3.63-2.45.68.25.86,1.72,1.2,4.66.43,3.76.12,4.19-.15,4.38-.47.33-.98.02-3.68-.91-3.19-1.1-3.78-1.12-3.96-1.69-.28-.9.82-1.94,2.96-3.98ZM12.65,36.94c.83-1.41,1.25-2.11,1.73-2.08.44.03.8.88,1.51,2.56.9,2.16.79,2.47.66,2.62-.22.28-.58.18-2.34.09-2.08-.11-2.44-.02-2.64-.33-.32-.48.15-1.29,1.08-2.87ZM4,26.18c.09-1.66.01-1.94.26-2.1.39-.26,1.03.12,2.28.86,1.12.66,1.68,1,1.65,1.38-.03.35-.7.64-2.04,1.2-1.72.72-1.96.63-2.09.53-.22-.18-.14-.46-.07-1.86ZM3.35,59.69c-1.45.61-1.66.53-1.77.45-.19-.15-.12-.39-.06-1.57.07-1.4.01-1.64.22-1.78.33-.22.87.1,1.93.73.95.56,1.42.84,1.4,1.17-.02.3-.59.54-1.72,1.01ZM3.35,44.23c-.23-.27.02-.92.54-2.22.66-1.67.89-1.77,1.04-1.78.27-.02.42.23,1.36,1.26,1.11,1.23,1.35,1.38,1.3,1.66-.08.44-.78.61-2.15.94-1.22.29-1.84.43-2.09.15ZM8.91,141.39c-.57-.04-.91-.88-1.58-2.53-.6-1.47-.9-2.22-.58-2.57.29-.33,1.15-.11,2.88.35,2.21.58,2.38.85,2.42,1.04.08.34-.2.56-1.32,1.86-1.32,1.55-1.46,1.88-1.82,1.85ZM11.33,216.18c-.59-.73.05-2.11,1.31-4.78,1.12-2.39,1.7-3.59,2.48-3.61.72-.02,1.43,1.29,2.81,3.9,1.77,3.35,1.64,3.86,1.46,4.13-.32.48-.91.38-3.76.49-3.37.14-3.93.34-4.31-.13ZM14.81,236.03c-.65-.09-.98-1.09-1.63-3.04-.58-1.74-.86-2.62-.48-3.01.36-.35,1.34-.03,3.29.62,2.49.84,2.67,1.16,2.71,1.38.07.4-.28.62-1.66,2.05-1.63,1.68-1.82,2.05-2.23,1.99ZM24.51,243.13c-.88,3.4-1.3,3.67-1.58,3.74-.52.13-.86-.31-2.88-2.01-2.39-2.02-2.9-2.23-2.86-2.79.05-.87,1.35-1.41,3.89-2.46,2.27-.94,3.41-1.39,3.96-.92.5.44.17,1.78-.52,4.43ZM23.34,140.76c.01-.58,1.08-1.09,3.22-2.11,2.74-1.3,3.15-1.17,3.35-1.02.37.27.27.74.26,3.02-.01,2.7.13,3.15-.26,3.44-.61.44-1.68-.12-3.78-1.22-1.87-.98-2.81-1.49-2.79-2.12ZM26.61,218.14c-.16-2.6.07-2.89.26-3,.34-.21.68.02,2.5.76,2.15.87,2.56.9,2.66,1.31.16.63-.63,1.31-2.18,2.63-1.38,1.18-2.09,1.77-2.58,1.56-.46-.19-.53-1.22-.66-3.25ZM32.86,228.51c-.14,1.82-.22,2.73-.72,2.93-.46.19-1.23-.49-2.76-1.83-1.96-1.73-1.99-2.09-1.94-2.31.09-.39.49-.46,2.3-1.23,2.14-.91,2.45-1.17,2.81-.96.56.33.48,1.37.32,3.4ZM36.07,197.94c-.26.17-.52,0-1.93-.55-1.67-.64-1.98-.66-2.07-.96-.13-.48.47-1.01,1.64-2.05,1.05-.93,1.58-1.39,1.96-1.23.35.14.42.93.55,2.49.16,2-.01,2.22-.15,2.31ZM40.25,182.53c-1,1.61-1.51,2.42-2.12,2.4-.56-.02-1.05-.95-1.99-2.82-1.21-2.39-1.08-2.75-.92-2.92.27-.32.72-.23,2.95-.19,2.63.04,3.08-.07,3.35.27.42.53-.15,1.46-1.26,3.27ZM41.85,145.91c-.34.06-.54-.25-1.75-1.46-1.44-1.44-1.76-1.6-1.7-1.96.08-.56.95-.84,2.65-1.38,1.52-.48,2.28-.72,2.61-.38.3.31.01,1.16-.58,2.84-.75,2.15-1.04,2.3-1.23,2.33ZM46.52,169.96c-1.25,1.55-1.88,2.32-2.46,2.19-.53-.12-.81-1.2-1.36-3.35-.7-2.76-.51-3.11-.33-3.27.32-.29.73-.11,2.83.31,2.49.5,2.93.46,3.12.87.3.64-.41,1.53-1.81,3.26ZM54.01,185.83c-.37.23-.74-.03-2.71-.87-2.34-.99-2.78-1.03-2.88-1.47-.17-.69.71-1.41,2.42-2.83,1.53-1.27,2.31-1.9,2.84-1.66.49.22.56,1.34.66,3.56.13,2.84-.13,3.15-.33,3.27ZM57.99,234.86c-.11.26-.69.3-1.83.37-1.47.09-1.63-.04-1.69-.15-.12-.19.01-.38.43-1.41.49-1.22.51-1.44.74-1.5.35-.09.74.36,1.48,1.23.67.78,1,1.18.88,1.46ZM56.16,169.14c-1.82.84-2.09.75-2.22.65-.24-.18-.17-.49-.15-2,.03-1.79-.06-2.09.2-2.27.4-.29,1.11.09,2.49.83,1.23.66,1.85,1,1.83,1.42-.01.38-.72.72-2.15,1.37ZM56.89,7.1c-1.66,1.26-1.87,1.56-2.23,1.46-.56-.16-.72-1.08-1.03-2.88-.28-1.61-.41-2.42-.02-2.7.36-.26,1.18.15,2.81.98,2.08,1.07,2.19,1.38,2.2,1.57,0,.36-.32.51-1.73,1.58ZM67.36,146.45c-.61.44-1.68-.12-3.78-1.22-1.87-.98-2.81-1.49-2.79-2.12.01-.58,1.08-1.09,3.22-2.11,2.74-1.3,3.15-1.17,3.35-1.02.37.27.27.74.26,3.02-.01,2.7.13,3.15-.26,3.44ZM73.72,168.71c-.26.17-.52,0-1.93-.55-1.67-.64-1.98-.66-2.07-.97-.13-.48.47-1.01,1.64-2.05,1.05-.93,1.58-1.39,1.96-1.23.35.14.42.93.55,2.49.16,2-.01,2.22-.15,2.31ZM73.83,28.03c-.45-.13-.58-.87-.83-2.33-.23-1.3-.33-1.95-.02-2.18.29-.21.95.12,2.26.79,1.68.86,1.77,1.11,1.77,1.27,0,.29-.26.41-1.39,1.27-1.34,1.02-1.51,1.26-1.8,1.17ZM79.19,105.22c-.25.2-.55.05-2.1-.38-1.84-.5-2.17-.49-2.29-.81-.19-.49.39-1.12,1.52-2.35,1.01-1.1,1.53-1.64,1.95-1.52.39.11.55.94.85,2.58.38,2.1.22,2.35.08,2.47ZM83.28,221.62c-.53-.12-.81-1.2-1.36-3.35-.7-2.76-.51-3.11-.33-3.27.32-.29.73-.11,2.83.31,2.49.5,2.93.46,3.12.87.3.64-.41,1.53-1.81,3.26-1.25,1.55-1.88,2.32-2.46,2.19ZM93.08,237.16c-.54.48-1.6.04-3.69-.82-1.86-.77-2.79-1.16-2.83-1.76-.04-.55.93-1.13,2.87-2.28,2.48-1.47,2.88-1.38,3.09-1.26.38.22.32.68.51,2.84.22,2.56.4,2.98.05,3.28ZM103,220.07c-.02,2.88-.3,3.18-.51,3.3-.39.21-.74-.07-2.7-1.03-2.31-1.13-2.76-1.19-2.84-1.65-.13-.7.8-1.39,2.61-2.74,1.62-1.2,2.44-1.79,2.97-1.52.49.25.49,1.38.48,3.63ZM101.94,89.8c-.24-.17-.16-.76,0-1.95.21-1.52.38-1.65.5-1.7.22-.08.39.09,1.35.73,1.14.76,1.37.82,1.38,1.07.02.38-.52.68-1.56,1.26-.94.52-1.41.77-1.67.59ZM106.76,240.78c-1.47,1-2.21,1.5-2.67,1.24-.42-.24-.39-1.23-.3-3.22.11-2.54.37-2.79.56-2.89.35-.17.65.09,2.34,1,2,1.07,2.39,1.14,2.45,1.55.09.63-.75,1.2-2.39,2.32ZM112.39,204.15c-.22.22-.52.1-2.04-.15-1.79-.29-2.11-.25-2.26-.54-.23-.45.26-1.1,1.21-2.38.85-1.14,1.29-1.71,1.7-1.63.38.07.61.84,1.06,2.37.57,1.96.44,2.21.32,2.34ZM113.42,149.03c.24-.45,1.06-.36,2.64-.2,1.42.15,2.13.23,2.3.64.16.38-.34,1-1.35,2.22-1.29,1.56-1.58,1.59-1.75,1.54-.3-.08-.37-.41-1.02-1.9-.77-1.76-.98-2.02-.83-2.31ZM121.54,164.02c-.61.44-1.68-.12-3.78-1.22-1.87-.98-2.81-1.49-2.79-2.12.01-.58,1.08-1.09,3.22-2.11,2.74-1.3,3.15-1.17,3.35-1.02.37.27.27.74.26,3.02-.01,2.7.13,3.15-.26,3.44ZM125.42,226.03c-1.02.95-1.14,1.16-1.38,1.11-.38-.07-.55-.67-.87-1.85-.29-1.05-.43-1.58-.19-1.79.22-.2.79.02,1.92.47,1.45.57,1.54.77,1.56.9.03.24-.18.36-1.04,1.16ZM128.36,153.35c-.26.17-.52,0-1.93-.55-1.67-.64-1.98-.66-2.07-.96-.13-.48.47-1.01,1.64-2.05,1.05-.93,1.58-1.39,1.96-1.23.35.14.42.93.55,2.49.16,2-.01,2.22-.15,2.31ZM127.68,98.98c-1.25,1.55-1.88,2.32-2.46,2.19-.53-.12-.81-1.2-1.36-3.35-.7-2.76-.51-3.11-.33-3.27.32-.29.73-.11,2.83.31,2.49.5,2.93.46,3.12.87.3.64-.41,1.53-1.81,3.26ZM134.27,109.94c-.84,1.12-1.26,1.68-1.67,1.61-.38-.07-.6-.82-1.04-2.33-.56-1.92-.44-2.18-.32-2.3.22-.22.51-.1,2,.15,1.76.29,2.07.25,2.22.53.23.44-.25,1.09-1.19,2.34ZM136.83,74.7c-1.96-1.05-2.35-1.13-2.41-1.52-.09-.61.74-1.18,2.35-2.28,1.44-.99,2.17-1.47,2.62-1.22.42.23.38,1.21.29,3.16-.11,2.5-.36,2.75-.55,2.84-.34.17-.64-.09-2.3-.98ZM142.19,223.54c-.22,1.54-.39,1.68-.51,1.73-.22.08-.39-.09-1.37-.74-1.16-.77-1.39-.84-1.4-1.08-.02-.39.53-.69,1.59-1.28.95-.53,1.43-.79,1.7-.6.24.17.16.77,0,1.98ZM143.87,93.34c-1.59,1.18-2.4,1.76-2.92,1.5-.48-.25-.48-1.36-.47-3.57.02-2.84.29-3.13.5-3.24.38-.2.73.07,2.65,1.01,2.27,1.11,2.71,1.17,2.79,1.62.13.69-.78,1.37-2.56,2.69ZM149.14,38.41c-.28.35-1.19.17-2.99-.22-2.31-.49-2.5-.76-2.56-.96-.1-.34.18-.58,1.27-1.99,1.29-1.67,1.41-2.01,1.79-2.01.59.01.99.87,1.76,2.54.7,1.49,1.04,2.25.73,2.63ZM150.78,80.48c-.37-.22-.31-.66-.5-2.79-.22-2.52-.39-2.93-.05-3.23.53-.47,1.58-.03,3.62.81,1.83.76,2.75,1.14,2.79,1.73.04.54-.92,1.11-2.82,2.24-2.44,1.44-2.83,1.36-3.04,1.24ZM154.31,181.91c-.7-2.76-.51-3.11-.33-3.27.32-.29.73-.11,2.83.31,2.49.5,2.93.46,3.12.87.3.64-.41,1.53-1.81,3.26-1.25,1.55-1.88,2.32-2.46,2.19-.53-.12-.81-1.2-1.36-3.35ZM157.58,214.31c-.3-.08-.37-.41-1.02-1.9-.77-1.76-.98-2.02-.83-2.31.24-.45,1.06-.36,2.64-.2,1.42.15,2.13.23,2.3.64.16.38-.34,1-1.35,2.22-1.29,1.56-1.58,1.59-1.75,1.54Z"/>
  <path class="cls-3" d="M22.71,35.14c-.19.24-.37.71,1.02,4.03,1.08,2.59,1.63,3.89,2.32,3.94.74.05,1.39-1.03,2.67-3.2,1.42-2.42,2.15-3.66,1.66-4.41-.32-.48-.86-.34-4.06-.51-2.71-.14-3.25-.29-3.6.14Z"/>
  <path class="cls-3" d="M20.62,51.46c.32.02.61-.45,1.17-1.4.62-1.06.94-1.6.73-1.93-.14-.21-.38-.15-1.78-.22-1.18-.06-1.42-.13-1.57.06-.08.1-.16.31.44,1.77.47,1.14.72,1.7,1.01,1.72Z"/>
  <path class="cls-3" d="M14.22,40.13c1.76.09,2.11.19,2.34-.09.12-.15.24-.46-.66-2.62-.7-1.69-1.06-2.53-1.51-2.56-.48-.03-.91.67-1.73,2.08-.93,1.58-1.4,2.38-1.08,2.87.21.31.56.22,2.64.33Z"/>
  <path class="cls-3" d="M6.16,27.51c1.34-.56,2.01-.85,2.04-1.2.03-.38-.53-.72-1.65-1.38-1.25-.74-1.9-1.11-2.28-.86-.25.16-.17.45-.26,2.1-.07,1.4-.15,1.68.07,1.86.12.1.37.19,2.09-.53Z"/>
  <path class="cls-3" d="M7.59,43.15c.05-.28-.19-.43-1.3-1.66-.93-1.04-1.08-1.29-1.36-1.26-.15.01-.38.12-1.04,1.78-.52,1.3-.77,1.96-.54,2.22.25.29.87.15,2.09-.15,1.37-.33,2.07-.5,2.15-.94Z"/>
  <path class="cls-3" d="M3.67,57.51c-1.06-.62-1.6-.94-1.93-.73-.21.14-.15.38-.22,1.78-.06,1.18-.13,1.42.06,1.57.1.08.31.16,1.77-.45,1.14-.47,1.7-.72,1.72-1.01.02-.32-.45-.61-1.4-1.17Z"/>
  <path class="cls-4" d="M28.74,50.6c.19.4.62.36,3.07.85,2.07.42,2.47.6,2.78.31.17-.16.36-.51-.32-3.22-.54-2.12-.81-3.18-1.33-3.3-.57-.12-1.19.63-2.41,2.15-1.37,1.7-2.07,2.57-1.78,3.2Z"/>
  <path class="cls-4" d="M41.68,43.74c.16,0,.41-.07,1.37-1.68.75-1.26,1.12-1.89.93-2.19-.21-.33-.86-.26-2.16-.12-1.46.16-2.2.24-2.36.67-.1.28.13.46,1.05,1.86.78,1.18.89,1.45,1.17,1.46Z"/>
  <path class="cls-4" d="M22.75,22.29c1.74.04,2.09.13,2.3-.15.12-.16.22-.46-.73-2.57-.74-1.64-1.12-2.47-1.56-2.48-.48-.02-.87.69-1.65,2.1-.87,1.58-1.31,2.39-.98,2.86.21.3.56.2,2.61.25Z"/>
  <path class="cls-3" d="M29.18,70.01c-1.63-.09-1.96-.18-2.16.08-.11.14-.22.43.61,2.43.65,1.56.98,2.34,1.39,2.37.45.03.84-.62,1.6-1.92.86-1.46,1.29-2.2,1-2.65-.19-.29-.52-.2-2.44-.3Z"/>
  <path class="cls-3" d="M41.37,77.07c2.09.24,2.51.38,2.79.06.16-.18.32-.54-.6-3.17-.72-2.06-1.09-3.09-1.61-3.16-.57-.08-1.13.73-2.22,2.35-1.22,1.81-1.84,2.74-1.49,3.34.22.39.65.3,3.13.58Z"/>
  <path class="cls-3" d="M32.22,86.76c-.14.23.02.43.57,1.84.47,1.19.51,1.45.76,1.52.14.04.38.02,1.53-1.22.9-.97,1.35-1.46,1.24-1.76-.12-.33-.71-.4-1.89-.52-1.32-.14-1.99-.21-2.22.15Z"/>
  <path class="cls-3" d="M50.22,86.72c1.25.29,1.49.4,1.68.23.11-.09.23-.3-.14-1.96-.29-1.29-.44-1.94-.75-2.02-.34-.09-.73.36-1.5,1.26-.86,1.01-1.3,1.52-1.13,1.91.11.25.37.23,1.84.57Z"/>
  <path class="cls-3" d="M22.16,107.12c.7-.1,1.09-1.24,1.85-3.51.84-2.54,1.28-3.85.67-4.44-.39-.38-.87-.14-3.89.34-2.55.41-3.09.38-3.33.84-.13.26-.2.74,1.75,3.56,1.52,2.2,2.3,3.3,2.95,3.21Z"/>
  <path class="cls-3" d="M47.38,107.12c.14.04.38.02,1.53-1.22.9-.97,1.35-1.46,1.24-1.76-.12-.33-.71-.4-1.89-.52-1.32-.14-1.99-.21-2.22.15-.14.23.02.43.57,1.84.47,1.19.51,1.45.76,1.52Z"/>
  <path class="cls-3" d="M78.26,100.17c-.42-.12-.94.42-1.95,1.52-1.13,1.23-1.71,1.85-1.52,2.35.12.32.46.3,2.29.81,1.55.42,1.85.58,2.1.38.14-.11.3-.37-.08-2.47-.3-1.64-.46-2.46-.85-2.58Z"/>
  <path class="cls-4" d="M21.71,87.52c1.82.24,2.74.35,3.03-.04.31-.43-.03-1.19-.73-2.7-.78-1.69-1.18-2.55-1.77-2.51-.38.03-.51.4-1.82,2.27-1.11,1.58-1.39,1.86-1.29,2.21.06.2.25.47,2.58.77Z"/>
  <path class="cls-4" d="M33.28,107.76c-.07.15-.08.41,1.2,1.8,1,1.08,1.51,1.62,1.89,1.52.41-.11.59-.75.93-2.04.38-1.44.58-2.18.19-2.46-.25-.18-.52-.01-2.28.48-1.49.41-1.81.44-1.93.71Z"/>
  <path class="cls-3" d="M56.42,3.95c-1.63-.83-2.45-1.24-2.81-.98-.39.29-.26,1.1.02,2.7.31,1.8.47,2.72,1.03,2.88.36.1.57-.19,2.23-1.46,1.4-1.07,1.74-1.22,1.73-1.58,0-.2-.12-.51-2.2-1.57Z"/>
  <path class="cls-3" d="M77.02,25.58c0-.16-.1-.41-1.77-1.27-1.31-.67-1.97-1-2.26-.79-.31.23-.21.88.02,2.18.25,1.45.38,2.19.83,2.33.29.08.46-.16,1.8-1.17,1.13-.86,1.4-.99,1.39-1.27Z"/>
  <path class="cls-4" d="M84.05,45.3c.38.05.75-.49,1.48-1.58.81-1.22,1.23-1.84.99-2.25-.15-.26-.44-.2-2.1-.38-1.4-.15-1.68-.25-1.87-.03-.11.12-.21.36.41,2.13.49,1.38.74,2.07,1.09,2.12Z"/>
  <path class="cls-3" d="M104.15,37.45c1.52.99,1.78,1.25,2.13,1.12.19-.07.45-.29.76-2.67.24-1.86.35-2.8-.02-3.05-.41-.28-1.15.13-2.61.96-1.63.93-2.47,1.4-2.43,2,.02.38.38.48,2.18,1.65Z"/>
  <path class="cls-3" d="M118.69,22.48c1.24.75,1.86,1.12,2.16.93.32-.2.27-.85.14-2.13-.14-1.44-.22-2.17-.65-2.33-.28-.1-.46.12-1.84,1.02-1.17.76-1.44.87-1.45,1.15,0,.16.06.41,1.65,1.36Z"/>
  <path class="cls-3" d="M143.6,27.69c1.58-.96,2.38-1.45,2.33-2.04-.03-.37-.39-.46-2.19-1.55-1.52-.92-1.79-1.18-2.12-1.04-.18.08-.43.3-.66,2.65-.18,1.84-.26,2.76.12,3,.41.26,1.13-.16,2.53-1.02Z"/>
  <path class="cls-3" d="M146.64,33.24c-.38,0-.5.34-1.79,2.01-1.09,1.41-1.37,1.65-1.27,1.99.06.19.25.46,2.56.96,1.8.38,2.71.57,2.99.22.31-.38-.04-1.14-.73-2.63-.78-1.67-1.18-2.53-1.76-2.54Z"/>
  <path class="cls-3" d="M105.18,87.95c-.01-.24-.24-.31-1.38-1.07-.96-.64-1.13-.81-1.35-.73-.12.05-.29.18-.5,1.7-.17,1.18-.25,1.78,0,1.95.26.18.73-.07,1.67-.59,1.05-.58,1.58-.88,1.56-1.26Z"/>
  <path class="cls-3" d="M119.79,84.32c-.24-.04-.36.16-1.36,1.09-.85.79-1.05.91-1.02,1.14.02.13.11.32,1.53.88,1.11.44,1.67.65,1.89.46.24-.21.1-.73-.19-1.76-.32-1.15-.48-1.74-.86-1.81Z"/>
  <path class="cls-3" d="M133.24,107.07c-1.49-.24-1.78-.36-2-.15-.12.12-.25.37.32,2.3.44,1.5.67,2.26,1.04,2.33.41.07.84-.48,1.67-1.61.94-1.26,1.42-1.9,1.19-2.34-.15-.28-.46-.24-2.22-.53Z"/>
  <path class="cls-3" d="M139.69,72.85c.09-1.95.12-2.93-.29-3.16-.45-.25-1.18.24-2.62,1.22-1.61,1.1-2.44,1.67-2.35,2.28.06.39.44.47,2.41,1.52,1.66.89,1.96,1.15,2.3.98.19-.09.44-.34.55-2.84Z"/>
  <path class="cls-3" d="M156.64,77.01c-.04-.59-.96-.97-2.79-1.73-2.05-.84-3.1-1.28-3.62-.81-.34.3-.17.71.05,3.23.19,2.13.13,2.57.5,2.79.21.12.6.21,3.04-1.24,1.91-1.13,2.86-1.7,2.82-2.24Z"/>
  <path class="cls-3" d="M143.64,89.04c-1.92-.94-2.27-1.21-2.65-1.01-.21.11-.49.4-.5,3.24-.02,2.22-.01,3.33.47,3.57.52.27,1.33-.32,2.92-1.5,1.78-1.32,2.69-2,2.56-2.69-.08-.44-.52-.51-2.79-1.62Z"/>
  <path class="cls-3" d="M158.39,45.63c.29.07.78.02,3.13-2.6,1.83-2.04,2.74-3.08,2.5-3.7-.27-.68-1.49-.8-3.94-1-2.74-.23-4.14-.35-4.59.39-.29.48.07.9,1.27,3.79,1.01,2.45,1.11,2.99,1.63,3.11Z"/>
  <path class="cls-4" d="M158.12,22.72c1.76,1.12,2.65,1.67,3.09,1.41.47-.28.41-1.22.26-3.08-.17-2.08-.25-3.15-.87-3.39-.4-.16-.67.16-2.69,1.42-1.71,1.07-2.1,1.21-2.13,1.62-.01.23.08.59,2.34,2.02Z"/>
  <path class="cls-3" d="M208.56,24.97c0-.58-.89-1.01-2.65-1.85-1.97-.94-2.98-1.43-3.53-.99-.35.28-.2.69-.12,3.18.07,2.11-.01,2.54.34,2.78.2.13.58.24,3.06-1.06,1.94-1.01,2.91-1.52,2.9-2.06Z"/>
  <path class="cls-3" d="M187.81,19.88c-1.57.19-2.37.28-2.54.76-.11.3.14.5,1.15,1.99.86,1.26.97,1.56,1.28,1.57.17,0,.44-.08,1.46-1.83.8-1.37,1.19-2.05.98-2.38-.23-.35-.93-.27-2.34-.11Z"/>
  <path class="cls-3" d="M213.49,35.69c-.3-.11-.5.14-1.99,1.15-1.26.86-1.56.97-1.57,1.28,0,.17.08.44,1.83,1.46,1.37.8,2.05,1.19,2.38.98.35-.23.27-.93.11-2.34-.19-1.57-.28-2.37-.76-2.54Z"/>
  <path class="cls-3" d="M218.24,50.75c.4.11.88-.42,1.81-1.48,1.04-1.19,1.58-1.79,1.39-2.26-.12-.3-.44-.28-2.19-.71-1.48-.37-1.77-.51-2-.31-.13.11-.28.35.13,2.34.32,1.55.49,2.32.86,2.42Z"/>
  <path class="cls-3" d="M218.75,37.29c0,.26.11.67,2.75,2.23,2.06,1.22,3.1,1.82,3.59,1.5.53-.34.43-1.41.19-3.54-.27-2.38-.4-3.6-1.12-3.85-.46-.16-.76.21-3.03,1.73-1.92,1.28-2.37,1.46-2.38,1.93Z"/>
  <path class="cls-4" d="M220.47,22.02c1.56-.19,2.36-.29,2.49-.77.08-.31-.18-.51-1.3-2.03-.95-1.28-1.09-1.59-1.4-1.59-.17,0-.44.08-1.33,1.86-.7,1.39-1.04,2.1-.81,2.42.25.36.96.28,2.35.11Z"/>
  <path class="cls-4" d="M220.39,88.74c.42-.12.57-.81.86-2.19.33-1.54.49-2.32.08-2.61-.27-.18-.54,0-2.34.57-1.52.48-1.85.52-1.96.81-.06.16-.07.44,1.33,1.87,1.09,1.11,1.64,1.67,2.03,1.55Z"/>
  <path class="cls-3" d="M221.14,106.73c.58-.35.49-1.49.3-3.75-.21-2.54-.32-3.83-1.08-4.13-.48-.19-.81.2-3.27,1.75-2.08,1.31-2.56,1.48-2.59,1.98-.02.28.1.72,2.86,2.45,2.15,1.35,3.24,2.03,3.77,1.7Z"/>
  <path class="cls-4" d="M235.18,110.94c1.76,1.28,2.07,1.61,2.46,1.52.22-.05.51-.23.81-2.7.24-1.93.35-2.9-.09-3.23-.48-.36-1.32-.05-2.97.6-1.85.72-2.8,1.09-2.75,1.72.03.41.45.57,2.53,2.09Z"/>
  <path class="cls-3" d="M246.24,103.2c-1.48-.37-1.77-.51-2-.31-.13.11-.28.35.13,2.34.32,1.55.49,2.32.86,2.42.4.11.88-.42,1.81-1.48,1.04-1.19,1.58-1.79,1.39-2.26-.12-.3-.44-.28-2.19-.71Z"/>
  <path class="cls-3" d="M278.11,102.94c-.03-.42-.69-.69-2-1.22-1.47-.59-2.22-.9-2.59-.56-.24.22-.12.51.05,2.3.14,1.52.1,1.83.37,1.99.15.09.43.15,2.16-.9,1.35-.81,2.03-1.23,2-1.61Z"/>
  <path class="cls-3" d="M248.15,87.34c1.46.61,2.19.91,2.48.66.32-.27.15-.96-.2-2.33-.39-1.53-.59-2.32-1.08-2.42-.32-.07-.48.21-1.82,1.4-1.14,1.01-1.42,1.17-1.39,1.48.02.17.14.43,2,1.21Z"/>
  <path class="cls-3" d="M290.87,78.83c-.25.03-.63.21-1.7,2.98-.84,2.16-1.25,3.25-.88,3.67.41.46,1.42.19,3.41-.37,2.23-.63,3.37-.95,3.51-1.67.09-.46-.32-.69-2.13-2.62-1.53-1.63-1.77-2.03-2.22-1.98Z"/>
  <path class="cls-3" d="M331.56,105.99c-.25.03-.63.21-1.7,2.98-.84,2.16-1.25,3.25-.88,3.67.41.46,1.42.19,3.41-.37,2.23-.63,3.37-.95,3.51-1.67.09-.46-.32-.69-2.13-2.62-1.53-1.63-1.77-2.03-2.22-1.98Z"/>
  <path class="cls-3" d="M312.87,63.65c-.32-.48-.86-.34-4.06-.51-2.71-.14-3.25-.29-3.6.14-.19.24-.37.71,1.02,4.03,1.08,2.59,1.63,3.89,2.32,3.94.74.05,1.39-1.03,2.67-3.2,1.42-2.42,2.15-3.66,1.66-4.41Z"/>
  <path class="cls-3" d="M303.23,76.05c-1.18-.06-1.42-.13-1.57.06-.08.1-.16.31.44,1.77.47,1.14.72,1.7,1.01,1.72.32.02.61-.45,1.17-1.4.62-1.06.94-1.6.73-1.93-.14-.21-.38-.15-1.78-.22Z"/>
  <path class="cls-3" d="M299.05,68.18c.12-.15.24-.46-.66-2.62-.7-1.69-1.06-2.53-1.51-2.56-.48-.03-.91.67-1.73,2.08-.93,1.58-1.4,2.38-1.08,2.87.21.31.56.22,2.64.33,1.76.09,2.11.19,2.34-.09Z"/>
  <path class="cls-3" d="M286.76,52.22c-.25.16-.17.45-.26,2.1-.07,1.4-.15,1.68.07,1.86.12.1.37.19,2.09-.53,1.34-.56,2.01-.85,2.04-1.2.03-.38-.53-.72-1.65-1.38-1.25-.74-1.9-1.11-2.28-.86Z"/>
  <path class="cls-3" d="M287.94,72.23c1.37-.33,2.07-.5,2.15-.94.05-.28-.19-.43-1.3-1.66-.93-1.04-1.08-1.29-1.36-1.26-.15.01-.38.12-1.04,1.78-.52,1.3-.77,1.96-.54,2.22.25.29.87.15,2.09-.15Z"/>
  <path class="cls-4" d="M311.24,78.74c.19.4.62.36,3.07.85,2.07.42,2.47.6,2.78.31.17-.16.36-.51-.32-3.22-.54-2.12-.81-3.18-1.33-3.3-.57-.12-1.19.63-2.41,2.15-1.37,1.7-2.07,2.57-1.78,3.2Z"/>
  <path class="cls-4" d="M326.48,68.01c-.21-.33-.86-.26-2.16-.12-1.46.16-2.2.24-2.36.67-.1.28.13.46,1.05,1.86.78,1.18.89,1.45,1.17,1.46.16,0,.41-.07,1.37-1.68.75-1.26,1.12-1.89.93-2.19Z"/>
  <path class="cls-4" d="M305.25,50.43c1.74.04,2.09.13,2.3-.15.12-.16.22-.46-.73-2.57-.74-1.64-1.12-2.47-1.56-2.48-.48-.02-.87.69-1.65,2.1-.87,1.58-1.31,2.39-.98,2.86.21.3.56.2,2.61.25Z"/>
  <path class="cls-3" d="M273.89,12.37c.14.04.38.02,1.53-1.22.9-.97,1.35-1.46,1.24-1.76-.12-.33-.71-.4-1.89-.52-1.32-.14-1.99-.21-2.22.15-.14.23.02.43.57,1.84.47,1.19.51,1.45.76,1.52Z"/>
  <path class="cls-3" d="M290.55,8.97c1.25.29,1.49.4,1.68.23.11-.09.23-.3-.14-1.96-.29-1.29-.44-1.94-.75-2.02-.34-.09-.73.36-1.5,1.26-.86,1.01-1.3,1.52-1.13,1.91.11.25.37.23,1.84.57Z"/>
  <path class="cls-3" d="M262.49,29.36c.7-.1,1.09-1.24,1.85-3.51.84-2.54,1.28-3.85.67-4.44-.39-.38-.87-.14-3.89.34-2.55.41-3.09.38-3.33.84-.13.26-.2.74,1.75,3.56,1.52,2.2,2.3,3.3,2.95,3.21Z"/>
  <path class="cls-3" d="M287.71,29.36c.14.04.38.02,1.53-1.22.9-.97,1.35-1.46,1.24-1.76-.12-.33-.71-.4-1.89-.52-1.32-.14-1.99-.21-2.22.15-.14.23.02.43.57,1.84.47,1.19.51,1.45.76,1.52Z"/>
  <path class="cls-4" d="M262.03,9.77c1.82.24,2.74.35,3.03-.04.31-.43-.03-1.19-.73-2.7-.78-1.69-1.18-2.55-1.77-2.51-.38.03-.51.4-1.82,2.27-1.11,1.58-1.39,1.86-1.29,2.21.06.2.25.47,2.58.77Z"/>
  <path class="cls-4" d="M273.61,30.01c-.07.15-.08.41,1.2,1.8,1,1.08,1.51,1.62,1.89,1.52.41-.11.59-.75.93-2.04.38-1.44.58-2.18.19-2.46-.25-.18-.52-.01-2.28.48-1.49.41-1.81.44-1.93.71Z"/>
  <path class="cls-3" d="M342.09,85.86c-1.74-.19-2.63-.28-2.93.19-.19.3.03.57.76,2.44.61,1.57.67,1.92,1,2.01.18.05.5.02,2.03-1.61,1.2-1.28,1.79-1.93,1.64-2.33-.16-.44-.94-.53-2.5-.69Z"/>
  <path class="cls-3" d="M364.04,114.53c1.69-.12,2.03-.07,2.21-.36.1-.16.17-.47-.94-2.42-.87-1.52-1.31-2.28-1.74-2.26-.46.03-.78.75-1.4,2.18-.69,1.61-1.04,2.43-.68,2.86.23.27.56.14,2.55,0Z"/>
  <path class="cls-3" d="M392.22,106.6c-1.2-1.19-1.39-1.49-1.72-1.43-.19.03-.47.18-1.21,2.29-.58,1.65-.86,2.49-.57,2.79.32.33,1.07.1,2.57-.37,1.67-.53,2.52-.8,2.61-1.35.05-.35-.26-.51-1.67-1.93Z"/>
  <path class="cls-3" d="M528.17,110.26c.32.33,1.07.1,2.57-.37,1.67-.53,2.52-.8,2.61-1.35.05-.35-.26-.51-1.67-1.93-1.2-1.19-1.39-1.49-1.72-1.43-.19.03-.47.18-1.21,2.29-.58,1.65-.86,2.49-.57,2.79Z"/>
  <path class="cls-3" d="M563.88,112.11c-.66-1.62-1-2.45-1.56-2.49-.36-.02-.49.3-1.79,1.82-1.09,1.29-1.38,1.5-1.29,1.83.05.18.21.45,2.38,1.02,1.69.45,2.55.66,2.83.34.31-.35.02-1.08-.57-2.53Z"/>
  <path class="cls-3" d="M538.45,91.84c.2.15.6.28,3.3-1,2.1-.99,3.16-1.5,3.17-2.07.01-.62-.91-1.11-2.75-2.08-2.06-1.08-3.11-1.64-3.71-1.2-.38.28-.24.72-.26,3.38-.01,2.24-.11,2.7.25,2.97Z"/>
  <path class="cls-3" d="M541.67,106.95c-.38.28-.24.72-.26,3.38-.01,2.24-.11,2.7.25,2.97.2.15.6.28,3.3-1,2.1-.99,3.16-1.5,3.17-2.07.01-.62-.91-1.11-2.75-2.08-2.06-1.08-3.11-1.64-3.71-1.2Z"/>
  <path class="cls-3" d="M554.49,72.43c-.18-.57-.76-.58-3.9-1.67-2.65-.92-3.15-1.22-3.62-.9-.26.18-.57.6-.14,4.3.33,2.89.51,4.34,1.18,4.58.72.27,1.68-.62,3.57-2.41,2.11-2,3.19-3.03,2.91-3.91Z"/>
  <path class="cls-3" d="M508.57,105.84c-2.06-1.08-3.11-1.64-3.71-1.2-.38.28-.24.72-.26,3.38-.01,2.24-.11,2.7.25,2.97.2.15.6.28,3.3-1,2.1-.99,3.16-1.5,3.17-2.07.01-.62-.91-1.11-2.75-2.08Z"/>
  <path class="cls-3" d="M535.55,69.58c-.93-1.84-1.4-2.76-1.96-2.78-.6-.02-1.1.77-2.08,2.36-1.1,1.78-1.66,2.69-1.24,3.21.27.34.7.22,3.29.26,2.19.04,2.63.13,2.9-.19.15-.18.28-.52-.91-2.87Z"/>
  <path class="cls-3" d="M518.05,81.69c-.13-.1-.4-.19-2.19.64-1.4.64-2.1.97-2.11,1.35-.01.41.59.74,1.8,1.39,1.35.73,2.05,1.1,2.45.82.25-.18.17-.48.19-2.23.02-1.48.09-1.79-.15-1.97Z"/>
  <path class="cls-3" d="M502.53,84.24c-.08-.3-.39-.32-2.03-.95-1.39-.53-1.65-.7-1.9-.54-.14.09-.31.31-.15,2.27.12,1.53.19,2.3.54,2.44.38.15.9-.3,1.93-1.21,1.15-1.02,1.74-1.55,1.61-2.02Z"/>
  <path class="cls-3" d="M536.01,58.73c.38.15.9-.3,1.93-1.21,1.15-1.02,1.74-1.55,1.61-2.02-.08-.3-.39-.32-2.03-.95-1.39-.53-1.65-.7-1.9-.54-.14.09-.31.31-.15,2.27.12,1.53.19,2.3.54,2.44Z"/>
  <path class="cls-4" d="M529.42,85.88c.17-.16.36-.51-.32-3.22-.54-2.12-.81-3.18-1.33-3.3-.57-.13-1.19.63-2.41,2.15-1.37,1.7-2.07,2.57-1.78,3.2.19.4.62.36,3.07.85,2.07.42,2.47.6,2.78.31Z"/>
  <path class="cls-4" d="M523.48,68.22c-.1-.43-.54-.47-2.84-1.45-1.94-.82-2.3-1.08-2.67-.86-.2.12-.46.42-.33,3.22.1,2.18.16,3.28.65,3.5.53.24,1.29-.38,2.8-1.63,1.68-1.39,2.55-2.11,2.38-2.78Z"/>
  <path class="cls-3" d="M552.02,36.44c-.17.26-.31.77,1.43,4.06,1.36,2.57,2.06,3.85,2.77,3.84.77-.02,1.34-1.19,2.44-3.55,1.23-2.63,1.87-3.98,1.29-4.7-.37-.46-.92-.26-4.23-.13-2.8.11-3.38.01-3.69.48Z"/>
  <path class="cls-3" d="M550.36,13.04c2.49-1.03,3.77-1.56,3.82-2.41.03-.55-.46-.76-2.82-2.74-1.99-1.68-2.32-2.11-2.83-1.98-.28.07-.69.33-1.56,3.68-.68,2.61-1,3.92-.51,4.36.54.47,1.66.02,3.89-.9Z"/>
  <path class="cls-3" d="M539.09,27.3c.35.21.66-.05,2.76-.94,1.78-.75,2.18-.83,2.26-1.21.05-.21.01-.57-1.91-2.27-1.5-1.33-2.26-1.98-2.71-1.8-.49.2-.57,1.09-.71,2.88-.16,2-.24,3.02.31,3.34Z"/>
  <path class="cls-3" d="M541.73,32.49c-1.52,1.3-2.3,1.97-2.14,2.59.1.4.5.43,2.62,1.28,1.79.73,2.12.95,2.45.74.18-.12.41-.39.25-2.95-.12-2-.2-3-.64-3.19-.49-.21-1.18.37-2.54,1.53Z"/>
  <path class="cls-3" d="M516.39,20.35c.22-.06.24-.28.72-1.48.41-1.01.54-1.2.42-1.38-.07-.1-.22-.23-1.67-.14-1.13.07-1.69.11-1.8.36-.12.28.21.66.86,1.43.73.86,1.11,1.3,1.46,1.21Z"/>
  <path class="cls-3" d="M574.08,38.04c.39.06.78-.49,1.55-1.59.86-1.23,1.3-1.86,1.07-2.27-.15-.27-.44-.22-2.14-.44-1.43-.19-1.72-.29-1.92-.08-.11.12-.23.36.37,2.19.46,1.43.7,2.14,1.07,2.19Z"/>
  <path class="cls-3" d="M578.77,54.11c-.21.22-.08.49.19,2.18.22,1.43.21,1.73.47,1.86.14.07.41.1,1.91-.92v-2.72s-.05-.02-.07-.02c-1.42-.48-2.15-.72-2.49-.38Z"/>
  <path class="cls-4" d="M552.7,20.53c.04.22.21.54,2.67,1.36,1.92.64,2.88.96,3.23.61.38-.38.1-1.24-.47-2.96-.64-1.92-.97-2.9-1.6-2.99-.41-.05-.59.31-2.2,1.96-1.36,1.4-1.7,1.62-1.63,2.01Z"/>
  <path class="cls-3" d="M432.95,30.2c1.05-.58,1.58-.88,1.56-1.26-.01-.24-.24-.31-1.38-1.07-.96-.64-1.13-.81-1.35-.73-.12.05-.29.18-.5,1.7-.17,1.18-.25,1.78,0,1.95.26.18.73-.07,1.67-.59Z"/>
  <path class="cls-3" d="M449.13,25.31c-.24-.04-.36.16-1.36,1.09-.85.79-1.05.91-1.02,1.14.02.13.11.32,1.53.88,1.11.44,1.67.65,1.89.46.24-.21.1-.73-.19-1.76-.32-1.15-.48-1.74-.86-1.81Z"/>
  <path class="cls-3" d="M462.58,48.06c-1.49-.24-1.78-.36-2-.15-.12.12-.25.37.32,2.3.44,1.5.67,2.26,1.04,2.33.41.07.84-.48,1.67-1.61.94-1.26,1.42-1.9,1.19-2.34-.15-.28-.46-.24-2.22-.53Z"/>
  <path class="cls-3" d="M468.74,10.67c-.45-.25-1.18.24-2.62,1.22-1.61,1.1-2.44,1.67-2.35,2.28.06.39.44.47,2.41,1.52,1.66.89,1.96,1.15,2.3.98.19-.09.44-.34.55-2.84.09-1.95.12-2.93-.29-3.16Z"/>
  <path class="cls-3" d="M483.2,16.27c-2.05-.84-3.1-1.28-3.62-.81-.34.3-.17.71.05,3.23.19,2.13.13,2.57.5,2.79.21.12.6.21,3.04-1.24,1.91-1.13,2.86-1.7,2.82-2.24-.04-.59-.96-.97-2.79-1.73Z"/>
  <path class="cls-3" d="M475.77,31.65c-.08-.44-.52-.51-2.79-1.62-1.92-.94-2.27-1.21-2.65-1.01-.21.11-.49.4-.5,3.24-.02,2.22-.01,3.33.47,3.57.52.27,1.33-.32,2.92-1.5,1.78-1.32,2.69-2,2.56-2.69Z"/>
  <path class="cls-3" d="M339.19,30.54c1.75-.58,2.65-.88,2.73-1.46.05-.37-.28-.54-1.79-2.01-1.28-1.24-1.48-1.55-1.84-1.49-.2.03-.49.19-1.24,2.43-.59,1.75-.88,2.63-.56,2.95.34.35,1.13.09,2.7-.43Z"/>
  <path class="cls-3" d="M342.17,42.24c.38-.3.22-1.12-.12-2.73-.38-1.8-.58-2.73-1.15-2.87-.36-.09-.57.22-2.19,1.55-1.37,1.13-1.71,1.3-1.68,1.66.01.2.14.51,2.28,1.5,1.67.78,2.52,1.16,2.87.88Z"/>
  <path class="cls-3" d="M356.47,46.47c-.11-.72-1.28-1.11-3.61-1.86-2.61-.84-3.95-1.27-4.56-.64-.39.4-.14.89.38,3.98.44,2.61.41,3.16.89,3.4.27.13.76.2,3.63-1.83,2.24-1.58,3.36-2.39,3.26-3.05Z"/>
  <path class="cls-4" d="M357.15,31.02c.53-.17.67-1.1.94-2.94.3-2.07.46-3.12-.09-3.5-.35-.24-.69,0-2.94.79-1.9.66-2.32.71-2.44,1.1-.07.22-.05.59,1.83,2.49,1.47,1.49,2.21,2.22,2.7,2.07Z"/>
  <path class="cls-3" d="M403.1,42.46c.12-.57-.64-1.19-2.17-2.4-1.71-1.36-2.59-2.06-3.22-1.76-.4.19-.35.63-.83,3.07-.41,2.07-.58,2.47-.29,2.79.16.17.51.36,3.22-.34,2.12-.55,3.18-.83,3.29-1.35Z"/>
  <path class="cls-3" d="M384.02,32.84c-1.57-.17-2.38-.26-2.64.17-.17.27.03.52.68,2.2.55,1.42.6,1.74.9,1.81.17.04.45.02,1.83-1.45,1.08-1.15,1.62-1.74,1.49-2.1-.14-.39-.85-.48-2.25-.63Z"/>
  <path class="cls-3" d="M405.5,54.01c-.27-.17-.52.03-2.2.68-1.42.55-1.74.6-1.81.9-.04.17-.02.45,1.45,1.83,1.15,1.08,1.74,1.62,2.1,1.49.39-.14.48-.85.63-2.25.17-1.57.26-2.38-.17-2.64Z"/>
  <path class="cls-3" d="M408.73,65.64c-1.36-.69-1.61-.89-1.88-.75-.15.08-.35.28-.4,2.31-.03,1.58-.05,2.37.29,2.55.37.2.95-.21,2.1-1.04,1.28-.92,1.94-1.39,1.86-1.89-.05-.32-.37-.37-1.97-1.18Z"/>
  <path class="cls-3" d="M415.61,61.81c.6-.21.73-1.28.98-3.4.27-2.38.42-3.59-.23-4-.41-.26-.79.03-3.34,1-2.16.82-2.63.89-2.75,1.34-.07.25-.04.68,2.18,2.79,1.73,1.65,2.61,2.47,3.16,2.27Z"/>
  <path class="cls-4" d="M415.37,42.25c1.56.16,2.36.25,2.6-.19.15-.28-.06-.54-.81-2.27-.64-1.46-.71-1.79-1-1.87-.17-.04-.45-.02-1.72,1.52-.99,1.2-1.49,1.81-1.33,2.18.17.4.87.49,2.27.63Z"/>
  <path class="cls-4" d="M459.57,102.11c.15-.28-.06-.54-.81-2.27-.64-1.46-.71-1.79-1-1.87-.17-.04-.45-.02-1.72,1.52-.99,1.2-1.49,1.81-1.33,2.18.17.4.87.49,2.27.63,1.56.16,2.36.25,2.6-.19Z"/>
  <path class="cls-4" d="M419.7,72.99c.17-.16.36-.51-.32-3.22-.54-2.12-.81-3.18-1.33-3.3-.57-.12-1.19.63-2.41,2.15-1.37,1.7-2.07,2.57-1.78,3.2.19.4.62.36,3.07.85,2.07.42,2.47.6,2.78.31Z"/>
  <path class="cls-3" d="M458.05,90.64c.01-.62-.91-1.11-2.75-2.08-2.06-1.08-3.11-1.64-3.71-1.2-.38.28-.24.72-.26,3.38-.01,2.24-.11,2.7.25,2.97.2.15.6.28,3.3-1,2.1-.99,3.16-1.5,3.17-2.07Z"/>
  <path class="cls-3" d="M446.78,98.39c-1.39-.53-1.65-.7-1.9-.54-.14.09-.31.31-.15,2.27.12,1.53.19,2.3.54,2.44.38.15.9-.3,1.93-1.21,1.15-1.02,1.74-1.55,1.61-2.02-.08-.3-.39-.32-2.03-.95Z"/>
  <path class="cls-3" d="M557.77,217.14c.19-.24.37-.72-1.03-4.1-1.1-2.64-1.66-3.96-2.36-4.01-.75-.05-1.42,1.05-2.71,3.25-1.45,2.47-2.19,3.73-1.69,4.49.32.49.87.34,4.13.51,2.75.14,3.31.3,3.66-.14Z"/>
  <path class="cls-3" d="M559.89,200.54c-.33-.02-.62.46-1.19,1.42-.63,1.08-.96,1.63-.74,1.96.14.21.38.15,1.81.22,1.2.06,1.45.13,1.6-.06.09-.11.16-.32-.45-1.8-.48-1.15-.73-1.73-1.03-1.75Z"/>
  <path class="cls-3" d="M566.4,212.06c-1.79-.09-2.15-.19-2.38.09-.13.16-.24.47.67,2.67.71,1.72,1.08,2.57,1.53,2.61.49.03.92-.68,1.76-2.11.94-1.6,1.42-2.42,1.1-2.92-.21-.32-.57-.22-2.69-.33Z"/>
  <path class="cls-3" d="M574.6,224.9c-1.37.57-2.05.86-2.07,1.22-.03.39.54.73,1.68,1.4,1.28.75,1.93,1.13,2.32.87.25-.17.18-.45.27-2.14.07-1.43.15-1.71-.07-1.89-.13-.1-.38-.19-2.12.54Z"/>
  <path class="cls-3" d="M575.33,208.04c-1.39.33-2.1.51-2.19.95-.05.29.2.44,1.32,1.69.95,1.05,1.1,1.31,1.38,1.29.16-.01.39-.12,1.06-1.81.53-1.32.78-1.99.55-2.26-.26-.29-.88-.15-2.13.15Z"/>
  <path class="cls-3" d="M577.46,192.16c-1.15.48-1.73.73-1.75,1.03-.02.33.46.62,1.42,1.19,1.08.63,1.63.96,1.96.74.21-.14.15-.38.22-1.81.06-1.2.13-1.45-.06-1.6-.11-.09-.32-.16-1.8.45Z"/>
  <path class="cls-4" d="M551.63,201.41c-.19-.41-.63-.36-3.12-.87-2.1-.42-2.51-.61-2.83-.31-.18.16-.37.52.33,3.27.54,2.16.83,3.24,1.36,3.35.57.13,1.21-.64,2.46-2.19,1.39-1.73,2.11-2.62,1.81-3.26Z"/>
  <path class="cls-4" d="M538.47,208.39c-.16,0-.42.07-1.4,1.71-.76,1.28-1.14,1.92-.94,2.23.21.33.88.27,2.2.13,1.48-.16,2.24-.24,2.4-.69.1-.29-.13-.47-1.07-1.89-.79-1.2-.9-1.48-1.19-1.49Z"/>
  <path class="cls-4" d="M557.72,230.21c-1.77-.04-2.13-.13-2.34.16-.12.16-.23.47.74,2.61.75,1.67,1.14,2.51,1.58,2.53.48.02.89-.7,1.68-2.13.88-1.61,1.34-2.43,1-2.91-.22-.31-.57-.2-2.66-.25Z"/>
  <path class="cls-3" d="M551.35,176.71c-.45-.03-.85.63-1.63,1.95-.87,1.48-1.32,2.24-1.01,2.7.19.29.53.21,2.49.31,1.66.09,1.99.18,2.2-.08.12-.15.22-.44-.62-2.47-.66-1.59-1-2.38-1.42-2.41Z"/>
  <path class="cls-3" d="M538.79,174.49c-2.13-.24-2.55-.38-2.84-.06-.16.18-.32.54.61,3.23.73,2.1,1.1,3.15,1.64,3.22.58.08,1.15-.75,2.25-2.39,1.24-1.84,1.87-2.79,1.52-3.4-.23-.39-.66-.31-3.18-.59Z"/>
  <path class="cls-3" d="M548.09,164.63c.15-.23-.02-.44-.58-1.88-.47-1.21-.52-1.48-.77-1.54-.14-.04-.38-.02-1.56,1.24-.92.99-1.38,1.48-1.26,1.79.12.33.73.41,1.92.53,1.34.14,2.03.21,2.26-.15Z"/>
  <path class="cls-3" d="M529.78,164.67c-1.27-.29-1.51-.41-1.71-.24-.11.1-.23.31.14,1.99.29,1.32.44,1.98.76,2.06.35.09.74-.37,1.53-1.28.88-1.02,1.32-1.55,1.15-1.94-.11-.25-.38-.23-1.88-.58Z"/>
  <path class="cls-3" d="M558.32,143.93c-.71.1-1.11,1.26-1.88,3.57-.86,2.59-1.3,3.91-.68,4.52.4.39.88.14,3.95-.35,2.6-.41,3.14-.38,3.38-.86.13-.26.2-.75-1.78-3.62-1.55-2.24-2.34-3.36-3-3.27Z"/>
  <path class="cls-3" d="M532.67,143.93c-.14-.04-.38-.02-1.56,1.24-.92.99-1.38,1.48-1.26,1.79.12.33.73.41,1.92.53,1.34.14,2.03.21,2.26-.15.15-.23-.02-.44-.58-1.88-.47-1.21-.52-1.48-.77-1.54Z"/>
  <path class="cls-3" d="M503.24,149.45c1.15-1.25,1.74-1.89,1.54-2.39-.13-.32-.46-.31-2.33-.82-1.58-.43-1.88-.59-2.14-.38-.14.12-.31.37.08,2.51.3,1.67.46,2.51.86,2.62.43.13.95-.43,1.98-1.54Z"/>
  <path class="cls-4" d="M558.78,163.86c-1.85-.24-2.79-.36-3.08.04-.32.44.03,1.21.74,2.75.79,1.72,1.2,2.6,1.8,2.56.39-.03.52-.41,1.85-2.31,1.12-1.61,1.42-1.89,1.31-2.25-.06-.2-.25-.47-2.63-.79Z"/>
  <path class="cls-4" d="M547.01,143.27c.07-.15.09-.42-1.22-1.83-1.02-1.1-1.54-1.64-1.92-1.54-.42.11-.6.77-.95,2.08-.39,1.47-.59,2.22-.19,2.5.25.18.53.01,2.32-.48,1.52-.42,1.84-.44,1.96-.72Z"/>
  <path class="cls-3" d="M525.26,244.17c-.36-.11-.58.2-2.27,1.48-1.43,1.09-1.77,1.24-1.76,1.61,0,.2.12.52,2.24,1.6,1.65.85,2.49,1.27,2.85,1,.4-.29.26-1.11-.02-2.75-.32-1.83-.48-2.77-1.05-2.93Z"/>
  <path class="cls-3" d="M505.77,224.37c-.29-.09-.47.16-1.83,1.19-1.15.88-1.42,1-1.42,1.29,0,.16.1.42,1.8,1.29,1.33.68,2.01,1.02,2.3.8.32-.23.21-.9-.02-2.22-.26-1.48-.39-2.23-.85-2.37Z"/>
  <path class="cls-4" d="M495.38,206.81c-.39-.05-.77.5-1.5,1.61-.82,1.24-1.25,1.88-1.01,2.28.15.26.44.2,2.13.39,1.43.15,1.71.25,1.91.03.11-.12.21-.37-.42-2.16-.5-1.4-.75-2.11-1.11-2.15Z"/>
  <path class="cls-3" d="M474.93,214.79c-1.54-1-1.81-1.28-2.16-1.14-.19.08-.46.29-.77,2.72-.25,1.89-.36,2.84.03,3.1.42.28,1.17-.13,2.65-.97,1.66-.94,2.51-1.42,2.47-2.03-.02-.39-.39-.49-2.22-1.68Z"/>
  <path class="cls-3" d="M460.14,230.02c-1.26-.76-1.89-1.14-2.19-.95-.33.21-.27.86-.14,2.17.15,1.46.22,2.21.66,2.37.28.1.47-.12,1.87-1.04,1.19-.78,1.46-.88,1.48-1.17,0-.16-.07-.41-1.67-1.39Z"/>
  <path class="cls-3" d="M434.8,224.72c-1.6.98-2.42,1.48-2.37,2.07.04.38.4.47,2.23,1.58,1.55.94,1.82,1.2,2.16,1.06.19-.08.44-.3.68-2.69.18-1.87.27-2.81-.12-3.05-.42-.27-1.14.17-2.58,1.04Z"/>
  <path class="cls-3" d="M434.82,215c-.06-.2-.25-.47-2.6-.97-1.84-.39-2.76-.58-3.04-.22-.31.39.04,1.16.74,2.68.79,1.7,1.2,2.57,1.79,2.58.38,0,.51-.34,1.82-2.04,1.11-1.43,1.39-1.68,1.29-2.03Z"/>
  <path class="cls-3" d="M475.47,162.14c-1.07.59-1.61.89-1.59,1.28.01.25.25.32,1.4,1.08.98.65,1.15.83,1.37.74.12-.05.29-.18.51-1.73.17-1.21.25-1.81,0-1.98-.27-.18-.75.08-1.7.6Z"/>
  <path class="cls-3" d="M457.96,163.48c-.24.21-.1.74.19,1.79.32,1.17.49,1.77.87,1.85.24.05.36-.17,1.38-1.11.86-.8,1.07-.92,1.04-1.16-.02-.13-.11-.33-1.56-.9-1.13-.45-1.7-.66-1.92-.47Z"/>
  <path class="cls-3" d="M445.99,139.43c-.41-.08-.85.49-1.7,1.63-.95,1.28-1.44,1.93-1.21,2.38.15.29.46.24,2.26.54,1.52.25,1.81.37,2.04.15.12-.12.25-.38-.32-2.34-.45-1.53-.68-2.3-1.06-2.37Z"/>
  <path class="cls-3" d="M441.69,176.9c-1.69-.91-1.99-1.17-2.34-1-.19.09-.45.35-.56,2.89-.09,1.98-.13,2.98.3,3.22.46.26,1.2-.24,2.67-1.24,1.64-1.12,2.48-1.7,2.39-2.32-.06-.4-.45-.47-2.45-1.55Z"/>
  <path class="cls-3" d="M427.5,171.02c-.21-.13-.61-.21-3.09,1.26-1.94,1.15-2.91,1.73-2.87,2.28.04.6.97.99,2.83,1.76,2.08.86,3.15,1.3,3.69.82.34-.3.17-.72-.05-3.28-.19-2.17-.13-2.62-.51-2.84Z"/>
  <path class="cls-3" d="M437.5,156.42c-.53-.27-1.35.32-2.97,1.52-1.81,1.34-2.74,2.03-2.61,2.74.08.45.53.52,2.84,1.65,1.95.95,2.31,1.23,2.7,1.03.22-.12.49-.41.51-3.3.02-2.25.01-3.38-.48-3.63Z"/>
  <path class="cls-3" d="M419.76,206.47c-.3-.07-.8-.02-3.18,2.64-1.86,2.08-2.79,3.13-2.54,3.77.27.69,1.52.81,4.01,1.02,2.78.24,4.21.36,4.67-.4.29-.49-.07-.92-1.29-3.86-1.03-2.49-1.13-3.04-1.66-3.17Z"/>
  <path class="cls-4" d="M420.03,229.77c-1.79-1.14-2.7-1.7-3.14-1.43-.48.29-.42,1.24-.26,3.13.17,2.12.26,3.2.89,3.45.4.16.68-.16,2.73-1.45,1.74-1.09,2.14-1.23,2.17-1.64.02-.23-.08-.6-2.38-2.06Z"/>
  <path class="cls-3" d="M374.79,224.31c-.2-.13-.59-.24-3.11,1.07-1.97,1.03-2.96,1.55-2.95,2.09,0,.59.91,1.03,2.7,1.89,2.01.96,3.03,1.45,3.59,1.01.36-.28.21-.7.12-3.24-.07-2.14.01-2.58-.35-2.83Z"/>
  <path class="cls-3" d="M389.94,228.28c-.17,0-.45.08-1.49,1.86-.81,1.39-1.21,2.09-1,2.42.23.36.95.28,2.38.11,1.6-.19,2.41-.29,2.58-.77.11-.31-.14-.51-1.17-2.03-.87-1.28-.99-1.58-1.3-1.59Z"/>
  <path class="cls-3" d="M365.48,212.61c-1.39-.81-2.09-1.21-2.42-1-.36.23-.28.95-.11,2.38.19,1.6.29,2.41.77,2.58.31.11.51-.14,2.03-1.17,1.28-.87,1.58-.99,1.59-1.3,0-.17-.08-.45-1.86-1.49Z"/>
  <path class="cls-3" d="M358.89,201.26c-.41-.11-.89.43-1.84,1.51-1.06,1.21-1.61,1.82-1.41,2.3.13.3.45.28,2.23.72,1.5.37,1.8.52,2.03.31.13-.11.28-.36-.13-2.38-.33-1.57-.5-2.36-.87-2.46Z"/>
  <path class="cls-3" d="M358.36,214.95c0-.26-.12-.68-2.8-2.27-2.09-1.24-3.15-1.85-3.65-1.53-.54.35-.43,1.44-.19,3.6.27,2.42.41,3.66,1.14,3.92.47.17.77-.21,3.08-1.76,1.95-1.31,2.41-1.48,2.42-1.96Z"/>
  <path class="cls-4" d="M356.62,230.49c-1.59.19-2.4.29-2.53.79-.09.32.18.52,1.32,2.06.96,1.31,1.11,1.61,1.42,1.62.18,0,.45-.08,1.36-1.89.71-1.42,1.06-2.13.82-2.46-.26-.36-.97-.28-2.39-.11Z"/>
  <path class="cls-4" d="M356.7,162.62c-.43.13-.58.83-.88,2.22-.33,1.56-.5,2.36-.08,2.65.27.18.55,0,2.38-.58,1.55-.49,1.88-.52,1.99-.82.06-.16.07-.45-1.35-1.9-1.11-1.13-1.67-1.7-2.06-1.58Z"/>
  <path class="cls-3" d="M359.77,146.06c-2.19-1.38-3.3-2.06-3.84-1.73-.59.35-.5,1.51-.31,3.82.22,2.58.33,3.9,1.09,4.2.49.19.83-.2,3.32-1.78,2.11-1.33,2.6-1.51,2.63-2.01.02-.28-.1-.73-2.91-2.49Z"/>
  <path class="cls-4" d="M341.65,140.04c-1.79-1.31-2.11-1.64-2.5-1.55-.22.05-.52.24-.83,2.75-.24,1.96-.35,2.95.09,3.29.49.37,1.34.05,3.02-.61,1.88-.73,2.85-1.11,2.79-1.75-.04-.41-.46-.58-2.58-2.12Z"/>
  <path class="cls-3" d="M331.43,143.38c-.41-.11-.89.43-1.84,1.51-1.06,1.21-1.61,1.82-1.41,2.3.13.3.45.28,2.23.72,1.5.37,1.8.52,2.03.31.13-.11.28-.36-.13-2.38-.33-1.57-.5-2.36-.87-2.46Z"/>
  <path class="cls-3" d="M300.02,149.42c1.49.6,2.25.91,2.63.57.24-.22.12-.51-.05-2.34-.15-1.54-.11-1.87-.38-2.02-.15-.09-.43-.15-2.2.91-1.38.83-2.07,1.25-2.04,1.64.03.42.7.7,2.03,1.24Z"/>
  <path class="cls-3" d="M328.47,164.04c-1.48-.62-2.23-.93-2.53-.67-.32.28-.15.98.2,2.37.4,1.56.6,2.36,1.1,2.46.32.07.49-.21,1.86-1.43,1.16-1.03,1.44-1.19,1.41-1.5-.02-.17-.14-.44-2.04-1.23Z"/>
  <path class="cls-3" d="M285.02,172.7c.25-.03.64-.22,1.73-3.03.86-2.2,1.28-3.3.89-3.73-.42-.46-1.44-.19-3.47.38-2.27.64-3.43.96-3.57,1.7-.09.47.32.7,2.16,2.67,1.55,1.66,1.8,2.07,2.25,2.01Z"/>
  <path class="cls-3" d="M242.78,138.7c-2.27.64-3.43.96-3.57,1.7-.09.47.32.7,2.16,2.67,1.55,1.66,1.8,2.07,2.25,2.01.25-.03.64-.22,1.73-3.03.86-2.2,1.28-3.3.89-3.73-.42-.46-1.44-.19-3.47.38Z"/>
  <path class="cls-3" d="M270.43,188.52c.19-.24.37-.72-1.03-4.1-1.1-2.64-1.66-3.96-2.36-4.01-.75-.05-1.42,1.05-2.71,3.25-1.45,2.47-2.19,3.73-1.69,4.49.32.49.87.34,4.13.51,2.75.14,3.31.3,3.66-.14Z"/>
  <path class="cls-3" d="M272.55,171.92c-.33-.02-.62.46-1.19,1.42-.63,1.08-.96,1.63-.74,1.96.14.21.38.15,1.81.22,1.2.06,1.45.13,1.6-.06.09-.11.16-.32-.45-1.8-.48-1.15-.73-1.73-1.03-1.75Z"/>
  <path class="cls-3" d="M279.07,183.44c-1.79-.09-2.15-.19-2.38.09-.13.16-.24.47.67,2.67.71,1.72,1.08,2.57,1.53,2.61.49.03.92-.68,1.76-2.11.94-1.6,1.42-2.42,1.1-2.92-.21-.32-.57-.22-2.69-.33Z"/>
  <path class="cls-3" d="M286.87,198.9c1.28.75,1.93,1.13,2.32.87.25-.17.18-.45.27-2.14.07-1.43.15-1.71-.07-1.89-.13-.1-.38-.19-2.12.54-1.37.57-2.05.86-2.07,1.22-.03.39.54.73,1.68,1.4Z"/>
  <path class="cls-3" d="M287.99,179.42c-1.39.33-2.1.51-2.19.95-.05.29.2.44,1.32,1.69.95,1.05,1.1,1.31,1.38,1.29.16-.01.39-.12,1.06-1.81.53-1.32.78-1.99.55-2.26-.26-.29-.88-.15-2.13.15Z"/>
  <path class="cls-4" d="M264.3,172.79c-.19-.41-.63-.36-3.12-.87-2.1-.42-2.51-.61-2.83-.31-.18.16-.37.52.33,3.27.54,2.16.83,3.24,1.36,3.35.57.13,1.21-.64,2.46-2.19,1.39-1.73,2.11-2.62,1.81-3.26Z"/>
  <path class="cls-4" d="M251.13,179.77c-.16,0-.42.07-1.4,1.71-.76,1.28-1.14,1.92-.94,2.23.21.33.88.27,2.2.13,1.48-.16,2.24-.24,2.4-.69.1-.29-.13-.47-1.07-1.89-.79-1.2-.9-1.48-1.19-1.49Z"/>
  <path class="cls-4" d="M270.39,201.58c-1.77-.04-2.13-.13-2.34.16-.12.16-.23.47.74,2.61.75,1.67,1.14,2.51,1.58,2.53.48.02.89-.7,1.68-2.13.88-1.61,1.34-2.43,1-2.91-.22-.31-.57-.2-2.66-.25Z"/>
  <path class="cls-3" d="M302.29,240.3c-.14-.04-.38-.02-1.56,1.24-.92.99-1.38,1.49-1.26,1.79.12.33.73.41,1.92.53,1.34.14,2.03.21,2.26-.15.15-.23-.02-.44-.58-1.88-.47-1.21-.52-1.48-.77-1.54Z"/>
  <path class="cls-3" d="M285.34,243.76c-1.27-.29-1.51-.41-1.71-.24-.11.1-.23.31.14,1.99.29,1.32.44,1.98.76,2.06.35.09.74-.37,1.53-1.28.88-1.02,1.32-1.55,1.15-1.94-.11-.25-.38-.23-1.88-.58Z"/>
  <path class="cls-3" d="M313.88,223.01c-.71.1-1.11,1.26-1.88,3.57-.86,2.59-1.3,3.91-.68,4.52.4.39.88.14,3.95-.35,2.6-.41,3.14-.38,3.38-.86.13-.26.2-.75-1.78-3.62-1.55-2.24-2.34-3.36-3-3.27Z"/>
  <path class="cls-3" d="M288.22,223.02c-.14-.04-.38-.02-1.56,1.24-.92.99-1.38,1.49-1.26,1.79.12.33.73.41,1.92.53,1.34.14,2.03.21,2.26-.15.15-.23-.02-.44-.58-1.88-.47-1.21-.52-1.48-.77-1.54Z"/>
  <path class="cls-4" d="M314.34,242.94c-1.85-.24-2.79-.36-3.08.04-.32.44.03,1.21.74,2.75.79,1.72,1.2,2.6,1.8,2.56.39-.03.52-.41,1.85-2.31,1.12-1.61,1.42-1.89,1.31-2.25-.06-.2-.25-.47-2.63-.79Z"/>
  <path class="cls-4" d="M302.57,222.36c.07-.15.09-.42-1.22-1.83-1.02-1.1-1.54-1.64-1.92-1.54-.42.11-.6.77-.95,2.08-.39,1.47-.59,2.22-.19,2.5.25.18.53.01,2.32-.48,1.52-.42,1.84-.44,1.96-.72Z"/>
  <path class="cls-3" d="M235.9,165.36c.19-.31-.03-.58-.77-2.48-.62-1.6-.68-1.96-1.02-2.04-.19-.05-.51-.03-2.06,1.64-1.22,1.3-1.82,1.96-1.67,2.37.16.44.96.54,2.54.71,1.77.19,2.68.29,2.98-.19Z"/>
  <path class="cls-3" d="M210.59,136.39c-1.71.13-2.07.07-2.25.37-.1.16-.17.48.96,2.46.89,1.55,1.34,2.32,1.77,2.29.47-.03.79-.76,1.42-2.22.7-1.64,1.06-2.48.69-2.91-.24-.28-.57-.14-2.6,0Z"/>
  <path class="cls-3" d="M181.93,144.45c1.22,1.21,1.41,1.52,1.75,1.46.19-.03.47-.18,1.23-2.33.59-1.68.88-2.53.58-2.84-.33-.34-1.09-.1-2.61.38-1.7.54-2.57.82-2.65,1.38-.05.36.26.52,1.7,1.96Z"/>
  <path class="cls-3" d="M43.65,140.74c-.33-.34-1.09-.1-2.61.38-1.7.54-2.57.82-2.65,1.38-.05.36.26.52,1.7,1.96,1.22,1.21,1.41,1.52,1.75,1.46.19-.03.47-.18,1.23-2.33.59-1.68.88-2.53.58-2.84Z"/>
  <path class="cls-3" d="M12.04,137.67c-.05-.19-.22-.46-2.42-1.04-1.72-.45-2.59-.67-2.88-.35-.31.35-.02,1.1.58,2.57.67,1.65,1.02,2.49,1.58,2.53.36.02.5-.3,1.82-1.85,1.11-1.31,1.4-1.53,1.32-1.86Z"/>
  <path class="cls-3" d="M33.2,159.47c-.21-.15-.61-.28-3.35,1.02-2.14,1.01-3.21,1.53-3.22,2.11-.01.63.92,1.13,2.79,2.12,2.1,1.1,3.17,1.67,3.78,1.22.39-.29.25-.74.26-3.44.01-2.28.12-2.75-.26-3.02Z"/>
  <path class="cls-3" d="M29.91,144.1c.39-.29.25-.74.26-3.44.01-2.28.12-2.75-.26-3.02-.21-.15-.61-.28-3.35,1.02-2.14,1.01-3.21,1.53-3.22,2.11-.01.63.92,1.13,2.79,2.12,2.1,1.1,3.17,1.67,3.78,1.22Z"/>
  <path class="cls-3" d="M20.84,180.9c2.7.93,3.21,1.24,3.68.91.26-.18.58-.61.15-4.38-.34-2.94-.52-4.41-1.2-4.66-.74-.27-1.71.63-3.63,2.45-2.15,2.04-3.25,3.08-2.96,3.98.18.58.77.59,3.96,1.69Z"/>
  <path class="cls-3" d="M67.36,139.99c-.21-.15-.61-.28-3.35,1.02-2.14,1.01-3.21,1.53-3.22,2.11-.01.63.92,1.13,2.79,2.12,2.1,1.1,3.17,1.67,3.78,1.22.39-.29.25-.74.26-3.44.01-2.28.12-2.75-.26-3.02Z"/>
  <path class="cls-3" d="M38.16,178.99c-2.23-.04-2.68-.13-2.95.19-.15.18-.28.53.92,2.92.94,1.87,1.43,2.81,1.99,2.82.61.02,1.12-.79,2.12-2.4,1.12-1.81,1.69-2.73,1.26-3.27-.27-.34-.71-.22-3.35-.27Z"/>
  <path class="cls-3" d="M56.47,166.35c-1.38-.74-2.08-1.12-2.49-.83-.26.19-.17.49-.2,2.27-.02,1.51-.1,1.82.15,2,.14.1.4.19,2.22-.65,1.42-.65,2.13-.99,2.15-1.37.01-.41-.6-.75-1.83-1.42Z"/>
  <path class="cls-3" d="M73.32,163.91c-.38-.16-.91.31-1.96,1.23-1.17,1.04-1.77,1.57-1.64,2.05.09.31.4.33,2.07.97,1.41.54,1.67.71,1.93.55.14-.09.32-.31.15-2.31-.13-1.56-.2-2.34-.55-2.49Z"/>
  <path class="cls-3" d="M35.67,193.15c-.38-.16-.91.31-1.96,1.23-1.17,1.04-1.77,1.57-1.64,2.05.09.31.4.33,2.07.96,1.41.54,1.67.71,1.93.55.14-.09.32-.31.15-2.31-.13-1.56-.2-2.34-.55-2.49Z"/>
  <path class="cls-4" d="M45.21,165.84c-2.1-.42-2.51-.61-2.83-.31-.18.16-.37.52.33,3.27.54,2.16.83,3.24,1.36,3.35.57.13,1.21-.64,2.46-2.19,1.39-1.73,2.11-2.62,1.81-3.26-.19-.41-.63-.36-3.12-.87Z"/>
  <path class="cls-4" d="M53.68,179c-.54-.24-1.31.39-2.84,1.66-1.71,1.42-2.59,2.14-2.42,2.83.11.44.55.48,2.88,1.47,1.97.84,2.34,1.1,2.71.87.21-.13.46-.43.33-3.27-.1-2.22-.17-3.34-.66-3.56Z"/>
  <path class="cls-3" d="M19.39,215.82c.18-.27.31-.78-1.46-4.13-1.39-2.61-2.09-3.92-2.81-3.9-.78.02-1.36,1.21-2.48,3.61-1.26,2.68-1.9,4.05-1.31,4.78.38.47.93.27,4.31.13,2.85-.11,3.44-.01,3.76-.49Z"/>
  <path class="cls-3" d="M21.08,239.61c-2.54,1.05-3.83,1.58-3.89,2.46-.04.56.47.77,2.86,2.79,2.02,1.71,2.36,2.14,2.88,2.01.29-.07.7-.34,1.58-3.74.69-2.66,1.02-3.99.52-4.43-.55-.48-1.69-.02-3.96.92Z"/>
  <path class="cls-3" d="M32.54,225.11c-.36-.21-.67.05-2.81.96-1.81.77-2.21.84-2.3,1.23-.05.22-.01.58,1.94,2.31,1.53,1.35,2.3,2.02,2.76,1.83.5-.2.58-1.11.72-2.93.16-2.03.24-3.07-.32-3.4Z"/>
  <path class="cls-3" d="M29.85,219.83c1.55-1.32,2.34-2,2.18-2.63-.1-.4-.51-.43-2.66-1.31-1.82-.74-2.16-.97-2.5-.76-.19.12-.42.4-.26,3,.13,2.03.2,3.05.66,3.25.5.21,1.2-.38,2.58-1.56Z"/>
  <path class="cls-3" d="M55.63,232.18c-.23.06-.24.29-.74,1.5-.42,1.03-.55,1.22-.43,1.41.07.11.23.24,1.69.15,1.15-.07,1.72-.11,1.83-.37.12-.28-.21-.68-.88-1.46-.75-.87-1.13-1.32-1.48-1.23Z"/>
  <path class="cls-4" d="M18.7,231.99c-.04-.22-.22-.54-2.71-1.38-1.95-.65-2.93-.97-3.29-.62-.39.38-.1,1.26.48,3.01.65,1.95.98,2.95,1.63,3.04.42.06.6-.31,2.23-1.99,1.38-1.42,1.73-1.65,1.66-2.05Z"/>
  <path class="cls-3" d="M140.49,222.16c-1.07.59-1.61.89-1.59,1.28.01.25.25.32,1.4,1.08.98.65,1.15.83,1.37.74.12-.05.29-.18.51-1.73.17-1.21.25-1.81,0-1.98-.26-.18-.75.08-1.7.6Z"/>
  <path class="cls-3" d="M124.9,223.97c-1.13-.45-1.7-.66-1.92-.47-.24.21-.1.74.19,1.79.32,1.17.49,1.77.87,1.85.24.05.36-.17,1.38-1.11.86-.8,1.07-.92,1.04-1.16-.02-.13-.11-.33-1.56-.9Z"/>
  <path class="cls-3" d="M111.01,199.45c-.41-.08-.85.49-1.7,1.63-.95,1.28-1.44,1.93-1.21,2.38.15.29.46.24,2.26.54,1.52.25,1.81.37,2.04.15.12-.12.25-.38-.32-2.34-.45-1.53-.68-2.3-1.06-2.37Z"/>
  <path class="cls-3" d="M106.71,236.91c-1.69-.91-1.99-1.17-2.34-1-.19.09-.45.35-.56,2.89-.09,1.98-.13,2.98.3,3.22.46.26,1.2-.24,2.67-1.24,1.64-1.12,2.48-1.7,2.39-2.32-.06-.4-.45-.47-2.45-1.55Z"/>
  <path class="cls-3" d="M92.52,231.04c-.21-.13-.61-.21-3.09,1.26-1.94,1.15-2.91,1.73-2.87,2.28.04.6.97.99,2.83,1.76,2.08.86,3.15,1.3,3.69.82.34-.3.17-.72-.05-3.28-.19-2.17-.13-2.62-.51-2.84Z"/>
  <path class="cls-3" d="M102.52,216.43c-.53-.27-1.35.32-2.97,1.52-1.81,1.34-2.74,2.03-2.61,2.74.08.45.53.52,2.84,1.65,1.95.95,2.31,1.23,2.7,1.03.22-.12.49-.41.51-3.3.02-2.25.01-3.38-.48-3.63Z"/>
  <path class="cls-3" d="M235.87,221.81c-1.78.59-2.69.89-2.77,1.49-.05.38.28.55,1.82,2.04,1.3,1.26,1.51,1.58,1.87,1.51.2-.04.5-.2,1.26-2.47.6-1.78.89-2.67.57-3-.35-.35-1.15-.1-2.74.43Z"/>
  <path class="cls-3" d="M234.12,215.62c.37.09.58-.22,2.23-1.58,1.4-1.15,1.73-1.32,1.71-1.69-.01-.2-.14-.52-2.32-1.53-1.7-.79-2.56-1.18-2.92-.9-.39.31-.22,1.13.13,2.78.39,1.84.59,2.78,1.17,2.92Z"/>
  <path class="cls-3" d="M225.3,200.66c-.27-.13-.77-.2-3.69,1.86-2.28,1.61-3.42,2.43-3.32,3.1.11.73,1.3,1.13,3.68,1.89,2.66.86,4.02,1.29,4.64.65.39-.41.14-.91-.39-4.05-.45-2.66-.42-3.22-.91-3.46Z"/>
  <path class="cls-4" d="M217.6,221.32c-.53.17-.68,1.12-.96,2.99-.31,2.1-.47,3.18.09,3.56.36.24.7,0,2.99-.8,1.94-.67,2.36-.72,2.48-1.12.07-.22.05-.6-1.86-2.54-1.49-1.51-2.25-2.26-2.74-2.1Z"/>
  <path class="cls-3" d="M170.86,209.69c-.12.58.65,1.21,2.21,2.44,1.74,1.38,2.63,2.09,3.27,1.79.41-.19.36-.64.85-3.13.41-2.1.59-2.52.29-2.83-.17-.18-.52-.37-3.27.35-2.15.56-3.23.85-3.34,1.38Z"/>
  <path class="cls-3" d="M191.35,215.22c-.17-.04-.46-.02-1.87,1.48-1.1,1.17-1.65,1.77-1.51,2.13.15.4.86.49,2.29.64,1.6.17,2.42.26,2.69-.17.17-.28-.03-.53-.69-2.24-.56-1.45-.61-1.77-.91-1.84Z"/>
  <path class="cls-3" d="M168.89,192.96c-.4.15-.49.86-.64,2.29-.17,1.6-.26,2.42.17,2.69.28.17.53-.03,2.24-.69,1.45-.56,1.77-.61,1.84-.91.04-.17.02-.46-1.48-1.87-1.17-1.1-1.77-1.65-2.13-1.51Z"/>
  <path class="cls-3" d="M163.12,184.91c.05.32.37.38,2.01,1.2,1.38.7,1.63.91,1.91.76.15-.08.36-.29.4-2.35.04-1.61.05-2.41-.3-2.6-.38-.2-.97.22-2.13,1.05-1.31.94-1.97,1.42-1.89,1.92Z"/>
  <path class="cls-3" d="M161.35,192.32c-1.76-1.68-2.66-2.51-3.21-2.31-.61.22-.74,1.3-.99,3.46-.28,2.42-.42,3.66.23,4.07.42.27.8-.03,3.39-1.02,2.19-.83,2.68-.91,2.8-1.37.07-.26.04-.69-2.22-2.84Z"/>
  <path class="cls-4" d="M160.68,210.55c-.17-.41-.88-.49-2.3-.64-1.59-.17-2.4-.25-2.64.2-.15.29.06.54.83,2.31.65,1.49.72,1.82,1.02,1.9.17.04.45.02,1.75-1.54,1.01-1.22,1.51-1.84,1.35-2.22Z"/>
  <path class="cls-4" d="M115.27,153.23c.17.04.45.02,1.75-1.54,1.01-1.22,1.51-1.84,1.35-2.22-.17-.41-.88-.49-2.3-.64-1.59-.17-2.4-.25-2.64.2-.15.29.06.54.83,2.31.65,1.49.72,1.82,1.02,1.9Z"/>
  <path class="cls-4" d="M158.12,183.07c1.39-1.73,2.11-2.62,1.81-3.26-.19-.41-.63-.36-3.12-.87-2.1-.42-2.51-.61-2.83-.31-.18.16-.37.52.33,3.27.54,2.16.83,3.24,1.36,3.35.57.13,1.21-.64,2.46-2.19Z"/>
  <path class="cls-3" d="M121.55,157.57c-.21-.15-.61-.28-3.35,1.02-2.14,1.01-3.21,1.53-3.22,2.11-.01.63.92,1.13,2.79,2.12,2.1,1.1,3.17,1.67,3.78,1.22.39-.29.25-.74.26-3.44.01-2.28.12-2.75-.26-3.02Z"/>
  <path class="cls-3" d="M127.97,148.55c-.38-.16-.91.31-1.96,1.23-1.17,1.04-1.77,1.57-1.64,2.05.09.31.4.33,2.07.96,1.41.54,1.67.71,1.93.55.14-.09.32-.31.15-2.31-.13-1.56-.2-2.34-.55-2.49Z"/>
  <path class="cls-4" d="M126.37,94.86c-2.1-.42-2.51-.61-2.83-.31-.18.16-.37.52.33,3.27.54,2.16.83,3.24,1.36,3.35.57.13,1.21-.64,2.46-2.19,1.39-1.73,2.11-2.62,1.81-3.26-.19-.41-.63-.36-3.12-.87Z"/>
  <path class="cls-4" d="M87.55,216.17c-.19-.41-.63-.36-3.12-.87-2.1-.42-2.51-.61-2.83-.31-.18.16-.37.52.33,3.27.54,2.16.83,3.24,1.36,3.35.57.13,1.21-.64,2.46-2.19,1.39-1.73,2.11-2.62,1.81-3.26Z"/>
  <path class="cls-4" d="M167.4,128.82c.16,0,.41-.07,1.37-1.68.75-1.26,1.12-1.89.93-2.19-.21-.33-.86-.26-2.16-.12-1.46.16-2.2.24-2.36.67-.1.28.13.46,1.05,1.86.78,1.18.89,1.45,1.17,1.46Z"/>
  <path class="cls-4" d="M317.24,105.05c-.38.03-.51.4-1.82,2.27-1.11,1.58-1.39,1.86-1.29,2.21.06.2.25.47,2.58.77,1.82.24,2.74.35,3.03-.04.31-.43-.03-1.19-.73-2.7-.78-1.69-1.18-2.55-1.77-2.51Z"/>
  <path class="cls-4" d="M420.55,159.72c.53.24,1.29-.38,2.8-1.63,1.68-1.39,2.55-2.11,2.38-2.78-.1-.43-.54-.47-2.84-1.45-1.94-.82-2.3-1.08-2.67-.86-.2.12-.46.42-.33,3.22.1,2.18.16,3.28.65,3.5Z"/>
  <path class="cls-4" d="M397.06,110.25c-.17-.04-.45-.02-1.72,1.52-.99,1.2-1.49,1.81-1.33,2.18.17.4.87.49,2.27.63,1.56.16,2.36.25,2.6-.19.15-.28-.06-.54-.81-2.27-.64-1.46-.71-1.79-1-1.87Z"/>
</svg>